{
DisplayStrings = (
/uniE600
);
customParameters = (
{
name = glyphOrder;
value = (
    ".notdef",
    uni0000,
    uni0001,
    space,
    uniE600,
    uniE601,
    uniE602,
    uniE603,
    uniE604,
    uniE605,
    uniE606,
    uniE607,
    uniE608,
    uniE609,
    uniE60A,
    uniE60B,
    uniE60C,
    uniE60D,
    uniE60E,
    uniE60F,
    uniE610,
    uniE611,
    uniE612,
    uniE613,
    uniE614,
    uniE615,
    uniE616,
    uniE617,
    uniE618,
    uniE619,
    uniE61A,
    uniE61B,
    uniE61C,
    uniE61D,
    uniE61E,
    uniE61F,
    uniE620,
    uniE621,
    uniE622,
    uniE623,
    uniE624,
    uniE625,
    uniE626,
    uniE627,
    uniE628,
    uniE629,
    uniE62A,
    uniE62B,
    uniE62C,
    uniE62D,
    uniE62E,
    uniE62F,
    uniE630,
    uniE631,
    uniE632
);}
);
date = "2014-03-31 16:16:19 +0000";
familyName = "dashable";
fontMaster = (
{
ascender = 480;
capHeight = 0;
customParameters = (
{
name = TypoAscender;
value = 480;
},
{
name = TypoDescender;
value = "-32";
}
);
descender = "-32";
id = "19B4AD07-3ADD-4C6B-9307-3D60BE925762";
weightValue = 400;
widthValue = 5;
xHeight = 0;
}
);
glyphs = (
{
glyphname = uni0000;
layers = (
{
layerId = "19B4AD07-3ADD-4C6B-9307-3D60BE925762";
name = Regular;
paths = (
{
closed = 1;
nodes = (
"0 0 LINE",
"0 0 LINE"
);
}
);
width = 0;
}
);
unicode = 0000;
},
{
glyphname = uni0001;
layers = (
{
layerId = "19B4AD07-3ADD-4C6B-9307-3D60BE925762";
name = Regular;
paths = (
{
closed = 1;
nodes = (
"0 0 LINE",
"0 0 LINE"
);
}
);
width = 0;
}
);
unicode = 0001;
},
{
glyphname = space;
layers = (
{
layerId = "19B4AD07-3ADD-4C6B-9307-3D60BE925762";
name = Regular;
paths = (
{
closed = 1;
nodes = (
"0 0 LINE",
"0 0 LINE"
);
}
);
width = 256;
}
);
unicode = 0020;
},
{
glyphname = uniE600;
lastChange = "2014-03-31 11:16:57 -0500";
layers = (
{
layerId = "19B4AD07-3ADD-4C6B-9307-3D60BE925762";
name = Regular;
paths = (
{
closed = 1;
nodes = (
"344 371 LINE",
"344 380 OFFCURVE",
"342 390 OFFCURVE",
"339 403 CURVE",
"335 415 OFFCURVE",
"329 427 OFFCURVE",
"320 438 CURVE SMOOTH",
"311 449 OFFCURVE",
"299 459 OFFCURVE",
"284 468 CURVE",
"269 476 OFFCURVE",
"249 480 OFFCURVE",
"226 480 CURVE SMOOTH",
"202 480 OFFCURVE",
"182 476 OFFCURVE",
"167 468 CURVE",
"152 459 OFFCURVE",
"140 449 OFFCURVE",
"131 438 CURVE SMOOTH",
"122 427 OFFCURVE",
"116 415 OFFCURVE",
"113 403 CURVE",
"109 390 OFFCURVE",
"107 380 OFFCURVE",
"107 371 CURVE",
"52 371 LINE SMOOTH",
"45 371 OFFCURVE",
"38 370 OFFCURVE",
"32 368 CURVE",
"25 366 OFFCURVE",
"20 363 OFFCURVE",
"15 360 CURVE SMOOTH",
"10 357 OFFCURVE",
"7 353 OFFCURVE",
"4 348 CURVE SMOOTH",
"1 343 OFFCURVE",
"0 338 OFFCURVE",
"0 333 CURVE SMOOTH",
"0 326 LINE SMOOTH",
"0 321 OFFCURVE",
"1 316 OFFCURVE",
"4 311 CURVE SMOOTH",
"7 306 OFFCURVE",
"10 302 OFFCURVE",
"15 299 CURVE SMOOTH",
"20 296 OFFCURVE",
"25 293 OFFCURVE",
"32 291 CURVE",
"38 289 OFFCURVE",
"45 288 OFFCURVE",
"52 288 CURVE SMOOTH",
"55 288 LINE",
"55 28 LINE SMOOTH",
"55 20 OFFCURVE",
"57 12 OFFCURVE",
"60 5 CURVE SMOOTH",
"63 -2 OFFCURVE",
"68 -9 OFFCURVE",
"74 -14 CURVE",
"80 -20 OFFCURVE",
"87 -24 OFFCURVE",
"95 -27 CURVE",
"102 -30 OFFCURVE",
"110 -32 OFFCURVE",
"119 -32 CURVE SMOOTH",
"337 -32 LINE SMOOTH",
"346 -32 OFFCURVE",
"354 -30 OFFCURVE",
"362 -27 CURVE SMOOTH",
"370 -24 OFFCURVE",
"377 -20 OFFCURVE",
"383 -14 CURVE SMOOTH",
"388 -9 OFFCURVE",
"393 -2 OFFCURVE",
"396 5 CURVE SMOOTH",
"399 12 OFFCURVE",
"401 20 OFFCURVE",
"401 28 CURVE SMOOTH",
"401 288 LINE",
"408 289 OFFCURVE",
"414 290 OFFCURVE",
"420 293 CURVE",
"425 295 OFFCURVE",
"430 298 OFFCURVE",
"435 301 CURVE",
"439 304 OFFCURVE",
"442 308 OFFCURVE",
"445 313 CURVE",
"447 317 OFFCURVE",
"448 321 OFFCURVE",
"448 326 CURVE SMOOTH",
"448 333 LINE SMOOTH",
"448 338 OFFCURVE",
"447 343 OFFCURVE",
"444 348 CURVE SMOOTH",
"441 353 OFFCURVE",
"438 357 OFFCURVE",
"433 360 CURVE SMOOTH",
"428 363 OFFCURVE",
"423 366 OFFCURVE",
"417 368 CURVE",
"410 370 OFFCURVE",
"403 371 OFFCURVE",
"396 371 CURVE SMOOTH"
);
},
{
closed = 1;
nodes = (
"234 408 OFFCURVE",
"241 407 OFFCURVE",
"246 405 CURVE",
"251 402 OFFCURVE",
"255 399 OFFCURVE",
"258 396 CURVE SMOOTH",
"261 393 OFFCURVE",
"264 389 OFFCURVE",
"265 385 CURVE",
"266 380 OFFCURVE",
"267 376 OFFCURVE",
"267 371 CURVE",
"184 371 LINE",
"185 376 OFFCURVE",
"186 380 OFFCURVE",
"187 385 CURVE",
"188 389 OFFCURVE",
"191 393 OFFCURVE",
"194 396 CURVE SMOOTH",
"197 399 OFFCURVE",
"201 402 OFFCURVE",
"206 405 CURVE",
"211 407 OFFCURVE",
"218 408 OFFCURVE",
"226 408 CURVE SMOOTH"
);
},
{
closed = 1;
nodes = (
"359 37 OFFCURVE",
"358 33 OFFCURVE",
"356 29 CURVE",
"354 24 OFFCURVE",
"351 21 OFFCURVE",
"348 18 CURVE SMOOTH",
"345 15 OFFCURVE",
"341 12 OFFCURVE",
"337 11 CURVE",
"332 9 OFFCURVE",
"328 8 OFFCURVE",
"323 8 CURVE SMOOTH",
"134 8 LINE SMOOTH",
"129 8 OFFCURVE",
"124 9 OFFCURVE",
"120 11 CURVE",
"115 12 OFFCURVE",
"112 15 OFFCURVE",
"109 18 CURVE SMOOTH",
"106 21 OFFCURVE",
"103 24 OFFCURVE",
"101 29 CURVE",
"99 33 OFFCURVE",
"98 37 OFFCURVE",
"98 41 CURVE SMOOTH",
"98 284 LINE",
"98 288 LINE",
"358 288 LINE",
"359 284 LINE",
"359 41 LINE SMOOTH"
);
},
{
closed = 1;
nodes = (
"261 231 LINE SMOOTH",
"260 231 OFFCURVE",
"259 231 OFFCURVE",
"258 231 CURVE",
"257 230 OFFCURVE",
"256 230 OFFCURVE",
"255 229 CURVE SMOOTH",
"254 228 OFFCURVE",
"254 227 OFFCURVE",
"254 226 CURVE",
"253 225 OFFCURVE",
"253 223 OFFCURVE",
"253 222 CURVE SMOOTH",
"253 46 LINE SMOOTH",
"253 45 OFFCURVE",
"253 44 OFFCURVE",
"254 43 CURVE",
"254 42 OFFCURVE",
"254 41 OFFCURVE",
"255 40 CURVE SMOOTH",
"256 39 OFFCURVE",
"257 38 OFFCURVE",
"258 38 CURVE",
"259 37 OFFCURVE",
"260 37 OFFCURVE",
"261 37 CURVE SMOOTH",
"296 37 LINE SMOOTH",
"297 37 OFFCURVE",
"299 37 OFFCURVE",
"300 38 CURVE",
"301 38 OFFCURVE",
"301 39 OFFCURVE",
"302 40 CURVE SMOOTH",
"303 41 OFFCURVE",
"303 42 OFFCURVE",
"304 43 CURVE",
"304 44 OFFCURVE",
"304 45 OFFCURVE",
"304 46 CURVE SMOOTH",
"304 222 LINE SMOOTH",
"304 223 OFFCURVE",
"304 225 OFFCURVE",
"304 226 CURVE",
"303 227 OFFCURVE",
"303 228 OFFCURVE",
"302 229 CURVE SMOOTH",
"301 230 OFFCURVE",
"301 230 OFFCURVE",
"300 231 CURVE",
"299 231 OFFCURVE",
"297 231 OFFCURVE",
"296 231 CURVE SMOOTH"
);
},
{
closed = 1;
nodes = (
"157 233 LINE SMOOTH",
"156 233 OFFCURVE",
"155 233 OFFCURVE",
"154 232 CURVE SMOOTH",
"153 231 OFFCURVE",
"152 231 OFFCURVE",
"151 230 CURVE SMOOTH",
"150 229 OFFCURVE",
"150 229 OFFCURVE",
"150 228 CURVE",
"149 227 OFFCURVE",
"149 225 OFFCURVE",
"149 224 CURVE SMOOTH",
"149 46 LINE SMOOTH",
"149 45 OFFCURVE",
"149 44 OFFCURVE",
"150 43 CURVE",
"150 42 OFFCURVE",
"150 41 OFFCURVE",
"151 40 CURVE SMOOTH",
"152 39 OFFCURVE",
"153 38 OFFCURVE",
"154 38 CURVE",
"155 37 OFFCURVE",
"156 37 OFFCURVE",
"157 37 CURVE SMOOTH",
"192 37 LINE SMOOTH",
"193 37 OFFCURVE",
"195 37 OFFCURVE",
"196 38 CURVE",
"197 38 OFFCURVE",
"197 39 OFFCURVE",
"198 40 CURVE SMOOTH",
"199 41 OFFCURVE",
"199 42 OFFCURVE",
"200 43 CURVE SMOOTH",
"201 44 OFFCURVE",
"201 45 OFFCURVE",
"201 46 CURVE SMOOTH",
"201 224 LINE SMOOTH",
"201 225 OFFCURVE",
"201 227 OFFCURVE",
"200 228 CURVE SMOOTH",
"199 229 OFFCURVE",
"199 229 OFFCURVE",
"198 230 CURVE SMOOTH",
"197 231 OFFCURVE",
"197 231 OFFCURVE",
"196 232 CURVE SMOOTH",
"195 233 OFFCURVE",
"193 233 OFFCURVE",
"192 233 CURVE SMOOTH"
);
}
);
width = 448;
}
);
unicode = E600;
},
{
glyphname = uniE601;
layers = (
{
layerId = "19B4AD07-3ADD-4C6B-9307-3D60BE925762";
name = Regular;
paths = (
{
closed = 1;
nodes = (
"740 80 OFFCURVE",
"732 85 OFFCURVE",
"719 93 CURVE",
"706 100 OFFCURVE",
"692 109 OFFCURVE",
"675 118 CURVE SMOOTH",
"658 127 OFFCURVE",
"641 136 OFFCURVE",
"624 145 CURVE SMOOTH",
"607 154 OFFCURVE",
"592 160 OFFCURVE",
"579 165 CURVE",
"579 253 LINE",
"582 256 OFFCURVE",
"586 259 OFFCURVE",
"589 263 CURVE",
"592 266 OFFCURVE",
"594 270 OFFCURVE",
"596 274 CURVE SMOOTH",
"598 278 OFFCURVE",
"600 283 OFFCURVE",
"601 288 CURVE SMOOTH",
"602 293 OFFCURVE",
"602 299 OFFCURVE",
"602 305 CURVE SMOOTH",
"602 375 LINE SMOOTH",
"602 390 OFFCURVE",
"600 403 OFFCURVE",
"596 416 CURVE",
"591 429 OFFCURVE",
"585 440 OFFCURVE",
"576 449 CURVE SMOOTH",
"567 458 OFFCURVE",
"556 466 OFFCURVE",
"543 472 CURVE",
"530 477 OFFCURVE",
"514 480 OFFCURVE",
"496 480 CURVE SMOOTH",
"478 480 OFFCURVE",
"463 477 OFFCURVE",
"450 472 CURVE",
"437 466 OFFCURVE",
"426 458 OFFCURVE",
"417 449 CURVE SMOOTH",
"408 440 OFFCURVE",
"401 429 OFFCURVE",
"397 416 CURVE",
"392 403 OFFCURVE",
"390 390 OFFCURVE",
"390 375 CURVE SMOOTH",
"390 305 LINE SMOOTH",
"390 299 OFFCURVE",
"391 293 OFFCURVE",
"392 288 CURVE SMOOTH",
"393 283 OFFCURVE",
"394 278 OFFCURVE",
"396 274 CURVE",
"398 269 OFFCURVE",
"401 265 OFFCURVE",
"404 262 CURVE SMOOTH",
"407 259 OFFCURVE",
"410 256 OFFCURVE",
"413 253 CURVE",
"413 165 LINE",
"401 160 OFFCURVE",
"386 154 OFFCURVE",
"369 145 CURVE SMOOTH",
"352 136 OFFCURVE",
"335 127 OFFCURVE",
"318 118 CURVE SMOOTH",
"301 109 OFFCURVE",
"287 100 OFFCURVE",
"274 93 CURVE",
"261 85 OFFCURVE",
"252 80 OFFCURVE",
"248 78 CURVE",
"243 75 OFFCURVE",
"240 73 OFFCURVE",
"237 70 CURVE SMOOTH",
"234 67 OFFCURVE",
"231 64 OFFCURVE",
"229 61 CURVE SMOOTH",
"227 58 OFFCURVE",
"226 54 OFFCURVE",
"225 49 CURVE SMOOTH",
"224 44 OFFCURVE",
"224 39 OFFCURVE",
"224 33 CURVE SMOOTH",
"224 -25 LINE SMOOTH",
"224 -26 OFFCURVE",
"224 -27 OFFCURVE",
"225 -28 CURVE",
"225 -29 OFFCURVE",
"225 -29 OFFCURVE",
"226 -30 CURVE SMOOTH",
"227 -31 OFFCURVE",
"227 -31 OFFCURVE",
"228 -31 CURVE",
"229 -32 OFFCURVE",
"230 -32 OFFCURVE",
"231 -32 CURVE SMOOTH",
"761 -32 LINE SMOOTH",
"762 -32 OFFCURVE",
"763 -32 OFFCURVE",
"764 -31 CURVE",
"765 -31 OFFCURVE",
"765 -31 OFFCURVE",
"766 -30 CURVE SMOOTH",
"767 -29 OFFCURVE",
"767 -29 OFFCURVE",
"768 -28 CURVE",
"768 -27 OFFCURVE",
"768 -26 OFFCURVE",
"768 -25 CURVE SMOOTH",
"768 33 LINE SMOOTH",
"768 39 OFFCURVE",
"768 44 OFFCURVE",
"767 49 CURVE SMOOTH",
"766 54 OFFCURVE",
"765 58 OFFCURVE",
"763 61 CURVE SMOOTH",
"761 64 OFFCURVE",
"759 67 OFFCURVE",
"756 70 CURVE SMOOTH",
"753 73 OFFCURVE",
"749 75 OFFCURVE",
"744 78 CURVE"
);
},
{
closed = 1;
nodes = (
"332 196 LINE",
"332 272 LINE",
"333 273 OFFCURVE",
"335 274 OFFCURVE",
"336 275 CURVE SMOOTH",
"337 276 OFFCURVE",
"338 277 OFFCURVE",
"339 278 CURVE SMOOTH",
"340 279 OFFCURVE",
"341 281 OFFCURVE",
"342 282 CURVE SMOOTH",
"343 283 OFFCURVE",
"343 284 OFFCURVE",
"344 286 CURVE",
"342 288 OFFCURVE",
"340 291 OFFCURVE",
"339 294 CURVE",
"337 297 OFFCURVE",
"336 300 OFFCURVE",
"335 304 CURVE",
"334 307 OFFCURVE",
"333 311 OFFCURVE",
"332 316 CURVE",
"331 320 OFFCURVE",
"331 324 OFFCURVE",
"331 329 CURVE SMOOTH",
"331 398 LINE SMOOTH",
"331 401 OFFCURVE",
"331 405 OFFCURVE",
"331 408 CURVE SMOOTH",
"331 411 OFFCURVE",
"331 414 OFFCURVE",
"332 417 CURVE SMOOTH",
"333 420 OFFCURVE",
"333 423 OFFCURVE",
"334 426 CURVE",
"334 429 OFFCURVE",
"335 431 OFFCURVE",
"336 434 CURVE",
"332 439 OFFCURVE",
"328 444 OFFCURVE",
"323 448 CURVE SMOOTH",
"318 452 OFFCURVE",
"312 456 OFFCURVE",
"306 459 CURVE",
"299 462 OFFCURVE",
"292 464 OFFCURVE",
"285 466 CURVE",
"277 467 OFFCURVE",
"269 468 OFFCURVE",
"260 468 CURVE SMOOTH",
"245 468 OFFCURVE",
"231 466 OFFCURVE",
"220 461 CURVE SMOOTH",
"208 456 OFFCURVE",
"198 450 OFFCURVE",
"191 442 CURVE SMOOTH",
"183 433 OFFCURVE",
"177 424 OFFCURVE",
"173 413 CURVE SMOOTH",
"169 402 OFFCURVE",
"167 390 OFFCURVE",
"167 377 CURVE SMOOTH",
"167 317 LINE SMOOTH",
"167 312 OFFCURVE",
"168 307 OFFCURVE",
"169 302 CURVE SMOOTH",
"170 297 OFFCURVE",
"171 293 OFFCURVE",
"173 290 CURVE",
"174 286 OFFCURVE",
"176 283 OFFCURVE",
"179 280 CURVE SMOOTH",
"182 277 OFFCURVE",
"185 274 OFFCURVE",
"188 272 CURVE",
"188 196 LINE",
"177 191 OFFCURVE",
"165 185 OFFCURVE",
"150 178 CURVE",
"135 170 OFFCURVE",
"120 162 OFFCURVE",
"106 154 CURVE SMOOTH",
"91 146 OFFCURVE",
"78 139 OFFCURVE",
"67 133 CURVE SMOOTH",
"55 126 OFFCURVE",
"47 122 OFFCURVE",
"44 120 CURVE",
"40 118 OFFCURVE",
"37 116 OFFCURVE",
"34 114 CURVE",
"31 111 OFFCURVE",
"29 109 OFFCURVE",
"28 106 CURVE",
"26 103 OFFCURVE",
"25 99 OFFCURVE",
"25 95 CURVE",
"24 91 OFFCURVE",
"24 86 OFFCURVE",
"24 81 CURVE SMOOTH",
"24 30 LINE SMOOTH",
"24 29 OFFCURVE",
"24 29 OFFCURVE",
"24 28 CURVE SMOOTH",
"24 27 OFFCURVE",
"24 27 OFFCURVE",
"25 27 CURVE",
"26 26 OFFCURVE",
"26 26 OFFCURVE",
"27 26 CURVE",
"28 25 OFFCURVE",
"28 25 OFFCURVE",
"29 25 CURVE SMOOTH",
"165 25 LINE",
"165 56 LINE SMOOTH",
"165 62 OFFCURVE",
"165 67 OFFCURVE",
"166 72 CURVE SMOOTH",
"167 77 OFFCURVE",
"168 81 OFFCURVE",
"170 84 CURVE SMOOTH",
"172 87 OFFCURVE",
"175 91 OFFCURVE",
"178 94 CURVE SMOOTH",
"181 97 OFFCURVE",
"184 99 OFFCURVE",
"189 102 CURVE",
"193 104 OFFCURVE",
"201 109 OFFCURVE",
"214 116 CURVE SMOOTH",
"227 123 OFFCURVE",
"241 131 OFFCURVE",
"257 140 CURVE SMOOTH",
"273 149 OFFCURVE",
"290 157 OFFCURVE",
"307 166 CURVE SMOOTH",
"324 175 OFFCURVE",
"339 182 OFFCURVE",
"351 187 CURVE"
);
},
{
closed = 1;
nodes = (
"945 122 OFFCURVE",
"937 126 OFFCURVE",
"926 133 CURVE",
"915 139 OFFCURVE",
"902 146 OFFCURVE",
"888 154 CURVE SMOOTH",
"873 162 OFFCURVE",
"859 170 OFFCURVE",
"844 178 CURVE",
"829 185 OFFCURVE",
"815 191 OFFCURVE",
"804 196 CURVE",
"804 272 LINE",
"807 274 OFFCURVE",
"810 277 OFFCURVE",
"813 280 CURVE SMOOTH",
"816 283 OFFCURVE",
"818 286 OFFCURVE",
"820 290 CURVE",
"821 293 OFFCURVE",
"823 297 OFFCURVE",
"824 302 CURVE SMOOTH",
"825 307 OFFCURVE",
"825 312 OFFCURVE",
"825 317 CURVE SMOOTH",
"825 377 LINE SMOOTH",
"825 390 OFFCURVE",
"823 402 OFFCURVE",
"819 413 CURVE SMOOTH",
"815 424 OFFCURVE",
"809 433 OFFCURVE",
"802 442 CURVE",
"794 450 OFFCURVE",
"784 456 OFFCURVE",
"773 461 CURVE SMOOTH",
"761 466 OFFCURVE",
"747 468 OFFCURVE",
"732 468 CURVE SMOOTH",
"725 468 OFFCURVE",
"718 468 OFFCURVE",
"712 467 CURVE SMOOTH",
"705 466 OFFCURVE",
"699 464 OFFCURVE",
"694 462 CURVE",
"688 459 OFFCURVE",
"683 457 OFFCURVE",
"678 454 CURVE SMOOTH",
"673 451 OFFCURVE",
"669 447 OFFCURVE",
"665 444 CURVE",
"666 440 OFFCURVE",
"668 436 OFFCURVE",
"669 433 CURVE SMOOTH",
"670 430 OFFCURVE",
"670 426 OFFCURVE",
"671 422 CURVE SMOOTH",
"672 418 OFFCURVE",
"672 414 OFFCURVE",
"673 410 CURVE",
"673 406 OFFCURVE",
"673 402 OFFCURVE",
"673 398 CURVE SMOOTH",
"673 329 LINE SMOOTH",
"673 323 OFFCURVE",
"673 318 OFFCURVE",
"672 313 CURVE SMOOTH",
"671 308 OFFCURVE",
"669 303 OFFCURVE",
"668 299 CURVE",
"666 295 OFFCURVE",
"664 291 OFFCURVE",
"661 288 CURVE SMOOTH",
"658 285 OFFCURVE",
"655 282 OFFCURVE",
"652 279 CURVE",
"653 278 OFFCURVE",
"653 278 OFFCURVE",
"654 277 CURVE SMOOTH",
"655 276 OFFCURVE",
"655 276 OFFCURVE",
"656 275 CURVE SMOOTH",
"657 274 OFFCURVE",
"657 274 OFFCURVE",
"658 274 CURVE",
"659 273 OFFCURVE",
"659 273 OFFCURVE",
"660 272 CURVE",
"660 196 LINE",
"650 191 LINE",
"650 188 LINE",
"663 183 OFFCURVE",
"678 177 OFFCURVE",
"695 168 CURVE SMOOTH",
"712 159 OFFCURVE",
"729 150 OFFCURVE",
"746 141 CURVE SMOOTH",
"762 132 OFFCURVE",
"777 123 OFFCURVE",
"790 116 CURVE SMOOTH",
"803 109 OFFCURVE",
"811 104 OFFCURVE",
"815 102 CURVE",
"820 99 OFFCURVE",
"824 97 OFFCURVE",
"827 94 CURVE SMOOTH",
"830 91 OFFCURVE",
"832 87 OFFCURVE",
"834 84 CURVE",
"835 81 OFFCURVE",
"836 77 OFFCURVE",
"837 72 CURVE SMOOTH",
"838 67 OFFCURVE",
"838 62 OFFCURVE",
"838 56 CURVE SMOOTH",
"838 25 LINE",
"963 25 LINE SMOOTH",
"964 25 OFFCURVE",
"964 25 OFFCURVE",
"965 26 CURVE",
"966 26 OFFCURVE",
"966 26 OFFCURVE",
"967 27 CURVE",
"968 27 OFFCURVE",
"968 27 OFFCURVE",
"968 28 CURVE SMOOTH",
"968 29 OFFCURVE",
"968 29 OFFCURVE",
"968 30 CURVE SMOOTH",
"968 81 LINE SMOOTH",
"968 86 OFFCURVE",
"968 91 OFFCURVE",
"968 95 CURVE",
"967 99 OFFCURVE",
"966 103 OFFCURVE",
"965 106 CURVE",
"963 109 OFFCURVE",
"961 111 OFFCURVE",
"958 114 CURVE",
"955 116 OFFCURVE",
"952 118 OFFCURVE",
"948 120 CURVE"
);
}
);
width = 992;
}
);
unicode = E601;
},
{
glyphname = uniE602;
layers = (
{
layerId = "19B4AD07-3ADD-4C6B-9307-3D60BE925762";
name = Regular;
paths = (
{
closed = 1;
nodes = (
"64 200 OFFCURVE",
"68 219 OFFCURVE",
"77 238 CURVE SMOOTH",
"85 256 OFFCURVE",
"96 272 OFFCURVE",
"111 286 CURVE",
"126 299 OFFCURVE",
"143 310 OFFCURVE",
"162 318 CURVE",
"181 325 OFFCURVE",
"202 329 OFFCURVE",
"224 329 CURVE SMOOTH",
"246 329 OFFCURVE",
"267 325 OFFCURVE",
"286 318 CURVE",
"305 310 OFFCURVE",
"322 299 OFFCURVE",
"337 286 CURVE",
"352 272 OFFCURVE",
"363 256 OFFCURVE",
"372 238 CURVE",
"380 219 OFFCURVE",
"384 200 OFFCURVE",
"384 179 CURVE SMOOTH",
"384 158 OFFCURVE",
"380 139 OFFCURVE",
"372 121 CURVE SMOOTH",
"363 102 OFFCURVE",
"352 86 OFFCURVE",
"337 73 CURVE",
"322 59 OFFCURVE",
"305 48 OFFCURVE",
"286 40 CURVE SMOOTH",
"267 32 OFFCURVE",
"246 28 OFFCURVE",
"224 28 CURVE SMOOTH",
"202 28 OFFCURVE",
"181 32 OFFCURVE",
"162 40 CURVE SMOOTH",
"143 48 OFFCURVE",
"126 59 OFFCURVE",
"111 73 CURVE",
"96 86 OFFCURVE",
"85 102 OFFCURVE",
"77 121 CURVE",
"68 139 OFFCURVE",
"64 158 OFFCURVE",
"64 179 CURVE SMOOTH"
);
},
{
closed = 1;
nodes = (
"392 375 LINE",
"402 367 LINE",
"418 383 LINE",
"376 416 LINE",
"360 400 LINE",
"372 389 LINE",
"348 365 LINE",
"340 370 OFFCURVE",
"333 374 OFFCURVE",
"326 378 CURVE",
"319 381 OFFCURVE",
"311 385 OFFCURVE",
"304 388 CURVE",
"296 391 OFFCURVE",
"288 394 OFFCURVE",
"279 396 CURVE SMOOTH",
"270 398 OFFCURVE",
"259 400 OFFCURVE",
"248 401 CURVE",
"248 448 LINE",
"265 448 LINE SMOOTH",
"269 448 OFFCURVE",
"272 449 OFFCURVE",
"275 451 CURVE",
"277 452 OFFCURVE",
"279 454 OFFCURVE",
"280 456 CURVE SMOOTH",
"281 458 OFFCURVE",
"282 460 OFFCURVE",
"283 462 CURVE",
"283 463 OFFCURVE",
"283 464 OFFCURVE",
"283 464 CURVE",
"283 467 OFFCURVE",
"282 470 OFFCURVE",
"280 473 CURVE",
"278 475 OFFCURVE",
"276 477 OFFCURVE",
"274 478 CURVE",
"271 479 OFFCURVE",
"269 479 OFFCURVE",
"268 480 CURVE",
"266 480 OFFCURVE",
"265 480 OFFCURVE",
"265 480 CURVE SMOOTH",
"185 480 LINE SMOOTH",
"180 480 OFFCURVE",
"177 479 OFFCURVE",
"175 477 CURVE",
"172 475 OFFCURVE",
"171 473 OFFCURVE",
"170 471 CURVE",
"169 468 OFFCURVE",
"168 466 OFFCURVE",
"168 465 CURVE SMOOTH",
"168 463 OFFCURVE",
"168 462 OFFCURVE",
"168 462 CURVE",
"168 458 OFFCURVE",
"169 455 OFFCURVE",
"171 454 CURVE",
"172 452 OFFCURVE",
"174 451 OFFCURVE",
"176 450 CURVE SMOOTH",
"178 449 OFFCURVE",
"180 449 OFFCURVE",
"182 449 CURVE SMOOTH",
"183 449 OFFCURVE",
"184 449 OFFCURVE",
"184 449 CURVE",
"200 449 LINE",
"200 401 LINE",
"176 401 OFFCURVE",
"152 395 OFFCURVE",
"129 384 CURVE SMOOTH",
"105 372 OFFCURVE",
"84 356 OFFCURVE",
"65 336 CURVE SMOOTH",
"46 316 OFFCURVE",
"30 293 OFFCURVE",
"18 267 CURVE SMOOTH",
"6 241 OFFCURVE",
"0 213 OFFCURVE",
"0 184 CURVE SMOOTH",
"0 155 OFFCURVE",
"6 127 OFFCURVE",
"18 101 CURVE",
"29 74 OFFCURVE",
"45 51 OFFCURVE",
"66 32 CURVE",
"86 12 OFFCURVE",
"110 -4 OFFCURVE",
"137 -15 CURVE SMOOTH",
"164 -26 OFFCURVE",
"194 -32 OFFCURVE",
"225 -32 CURVE SMOOTH",
"256 -32 OFFCURVE",
"285 -26 OFFCURVE",
"312 -15 CURVE SMOOTH",
"339 -4 OFFCURVE",
"363 12 OFFCURVE",
"383 32 CURVE SMOOTH",
"403 51 OFFCURVE",
"419 74 OFFCURVE",
"431 101 CURVE SMOOTH",
"442 127 OFFCURVE",
"448 155 OFFCURVE",
"448 184 CURVE SMOOTH",
"448 201 OFFCURVE",
"446 217 OFFCURVE",
"443 233 CURVE",
"439 248 OFFCURVE",
"434 263 OFFCURVE",
"427 277 CURVE SMOOTH",
"420 291 OFFCURVE",
"412 304 OFFCURVE",
"403 316 CURVE",
"393 328 OFFCURVE",
"382 339 OFFCURVE",
"370 349 CURVE"
);
},
{
closed = 1;
nodes = (
"232 268 LINE SMOOTH",
"232 269 OFFCURVE",
"232 270 OFFCURVE",
"232 271 CURVE",
"231 272 OFFCURVE",
"231 273 OFFCURVE",
"230 274 CURVE SMOOTH",
"229 275 OFFCURVE",
"229 275 OFFCURVE",
"228 276 CURVE",
"227 276 OFFCURVE",
"225 276 OFFCURVE",
"224 276 CURVE SMOOTH",
"223 276 OFFCURVE",
"222 276 OFFCURVE",
"221 276 CURVE",
"220 275 OFFCURVE",
"219 275 OFFCURVE",
"218 274 CURVE SMOOTH",
"217 273 OFFCURVE",
"217 272 OFFCURVE",
"217 271 CURVE",
"216 270 OFFCURVE",
"216 269 OFFCURVE",
"216 268 CURVE SMOOTH",
"216 193 LINE",
"216 193 OFFCURVE",
"215 193 OFFCURVE",
"213 193 CURVE",
"211 192 OFFCURVE",
"209 191 OFFCURVE",
"207 190 CURVE",
"205 188 OFFCURVE",
"203 185 OFFCURVE",
"202 182 CURVE",
"200 179 OFFCURVE",
"199 174 OFFCURVE",
"199 168 CURVE SMOOTH",
"199 165 OFFCURVE",
"200 162 OFFCURVE",
"201 159 CURVE SMOOTH",
"202 156 OFFCURVE",
"203 153 OFFCURVE",
"206 151 CURVE",
"208 149 OFFCURVE",
"211 147 OFFCURVE",
"214 146 CURVE SMOOTH",
"217 145 OFFCURVE",
"220 144 OFFCURVE",
"223 144 CURVE SMOOTH",
"227 144 OFFCURVE",
"231 145 OFFCURVE",
"234 146 CURVE SMOOTH",
"237 147 OFFCURVE",
"239 149 OFFCURVE",
"242 151 CURVE",
"244 153 OFFCURVE",
"246 156 OFFCURVE",
"247 159 CURVE SMOOTH",
"248 162 OFFCURVE",
"249 165 OFFCURVE",
"249 168 CURVE SMOOTH",
"249 174 OFFCURVE",
"248 179 OFFCURVE",
"247 182 CURVE",
"245 185 OFFCURVE",
"243 188 OFFCURVE",
"241 190 CURVE",
"238 191 OFFCURVE",
"236 192 OFFCURVE",
"235 193 CURVE",
"233 193 OFFCURVE",
"232 193 OFFCURVE",
"232 193 CURVE"
);
}
);
width = 448;
}
);
unicode = E602;
},
{
glyphname = uniE603;
layers = (
{
layerId = "19B4AD07-3ADD-4C6B-9307-3D60BE925762";
name = Regular;
paths = (
{
closed = 1;
nodes = (
"565 249 OFFCURVE",
"563 253 OFFCURVE",
"562 257 CURVE",
"561 260 OFFCURVE",
"559 264 OFFCURVE",
"558 267 CURVE SMOOTH",
"557 270 OFFCURVE",
"555 274 OFFCURVE",
"554 278 CURVE",
"552 281 OFFCURVE",
"550 284 OFFCURVE",
"548 287 CURVE",
"463 251 LINE",
"465 247 OFFCURVE",
"467 243 OFFCURVE",
"469 240 CURVE",
"470 237 OFFCURVE",
"472 233 OFFCURVE",
"474 230 CURVE",
"475 226 OFFCURVE",
"477 222 OFFCURVE",
"478 219 CURVE SMOOTH",
"479 216 OFFCURVE",
"480 212 OFFCURVE",
"481 208 CURVE",
"566 246 LINE"
);
},
{
closed = 1;
nodes = (
"134 279 OFFCURVE",
"136 282 OFFCURVE",
"139 285 CURVE",
"141 288 OFFCURVE",
"143 291 OFFCURVE",
"146 294 CURVE SMOOTH",
"149 297 OFFCURVE",
"152 299 OFFCURVE",
"155 301 CURVE SMOOTH",
"158 303 OFFCURVE",
"160 306 OFFCURVE",
"163 309 CURVE",
"98 375 LINE",
"95 373 OFFCURVE",
"93 371 OFFCURVE",
"90 368 CURVE SMOOTH",
"87 365 OFFCURVE",
"84 362 OFFCURVE",
"81 360 CURVE",
"78 357 OFFCURVE",
"76 355 OFFCURVE",
"74 352 CURVE",
"71 349 OFFCURVE",
"69 346 OFFCURVE",
"66 343 CURVE",
"131 276 LINE"
);
},
{
closed = 1;
nodes = (
"194 329 OFFCURVE",
"198 331 OFFCURVE",
"201 333 CURVE SMOOTH",
"204 335 OFFCURVE",
"208 337 OFFCURVE",
"211 338 CURVE SMOOTH",
"214 339 OFFCURVE",
"218 340 OFFCURVE",
"222 342 CURVE",
"225 343 OFFCURVE",
"229 344 OFFCURVE",
"232 345 CURVE",
"196 433 LINE",
"193 431 OFFCURVE",
"189 430 OFFCURVE",
"186 429 CURVE",
"182 428 OFFCURVE",
"178 426 OFFCURVE",
"175 424 CURVE SMOOTH",
"172 422 OFFCURVE",
"168 420 OFFCURVE",
"165 419 CURVE SMOOTH",
"162 418 OFFCURVE",
"158 416 OFFCURVE",
"155 414 CURVE",
"191 328 LINE"
);
},
{
closed = 1;
nodes = (
"96 209 OFFCURVE",
"98 213 OFFCURVE",
"99 216 CURVE SMOOTH",
"100 219 OFFCURVE",
"102 223 OFFCURVE",
"103 227 CURVE SMOOTH",
"104 231 OFFCURVE",
"106 235 OFFCURVE",
"108 238 CURVE",
"109 241 OFFCURVE",
"111 244 OFFCURVE",
"112 248 CURVE",
"27 283 LINE",
"25 280 OFFCURVE",
"23 277 OFFCURVE",
"22 273 CURVE SMOOTH",
"21 269 OFFCURVE",
"19 266 OFFCURVE",
"18 263 CURVE",
"16 260 OFFCURVE",
"15 256 OFFCURVE",
"14 252 CURVE SMOOTH",
"13 248 OFFCURVE",
"11 245 OFFCURVE",
"10 242 CURVE",
"95 205 LINE"
);
},
{
closed = 1;
nodes = (
"419 416 OFFCURVE",
"415 418 OFFCURVE",
"412 420 CURVE",
"408 422 OFFCURVE",
"404 424 OFFCURVE",
"401 425 CURVE SMOOTH",
"398 426 OFFCURVE",
"394 427 OFFCURVE",
"391 429 CURVE",
"387 430 OFFCURVE",
"383 431 OFFCURVE",
"380 432 CURVE",
"345 346 LINE",
"348 344 OFFCURVE",
"352 343 OFFCURVE",
"356 342 CURVE",
"359 341 OFFCURVE",
"363 339 OFFCURVE",
"366 338 CURVE",
"369 336 OFFCURVE",
"373 334 OFFCURVE",
"376 333 CURVE SMOOTH",
"379 332 OFFCURVE",
"383 330 OFFCURVE",
"386 327 CURVE",
"422 415 LINE"
);
},
{
closed = 1;
nodes = (
"509 346 OFFCURVE",
"507 349 OFFCURVE",
"504 352 CURVE",
"501 354 OFFCURVE",
"499 357 OFFCURVE",
"496 360 CURVE SMOOTH",
"493 363 OFFCURVE",
"491 365 OFFCURVE",
"488 368 CURVE",
"485 370 OFFCURVE",
"483 373 OFFCURVE",
"480 376 CURVE",
"414 308 LINE",
"417 306 OFFCURVE",
"420 304 OFFCURVE",
"423 301 CURVE SMOOTH",
"426 298 OFFCURVE",
"428 296 OFFCURVE",
"431 294 CURVE",
"434 291 OFFCURVE",
"436 288 OFFCURVE",
"439 285 CURVE SMOOTH",
"442 282 OFFCURVE",
"444 279 OFFCURVE",
"446 277 CURVE",
"511 342 LINE"
);
},
{
closed = 1;
nodes = (
"309 446 OFFCURVE",
"307 446 OFFCURVE",
"306 447 CURVE",
"304 447 OFFCURVE",
"302 447 OFFCURVE",
"300 447 CURVE SMOOTH",
"298 447 OFFCURVE",
"296 447 OFFCURVE",
"294 448 CURVE",
"292 448 OFFCURVE",
"290 448 OFFCURVE",
"289 447 CURVE",
"287 448 OFFCURVE",
"285 448 OFFCURVE",
"283 448 CURVE",
"281 447 OFFCURVE",
"279 447 OFFCURVE",
"278 447 CURVE SMOOTH",
"276 447 OFFCURVE",
"274 447 OFFCURVE",
"272 447 CURVE",
"270 446 OFFCURVE",
"268 446 OFFCURVE",
"266 447 CURVE",
"266 352 LINE",
"268 353 OFFCURVE",
"270 353 OFFCURVE",
"272 353 CURVE",
"274 352 OFFCURVE",
"276 352 OFFCURVE",
"278 353 CURVE",
"279 354 OFFCURVE",
"281 354 OFFCURVE",
"283 354 CURVE",
"285 353 OFFCURVE",
"287 353 OFFCURVE",
"289 354 CURVE",
"291 353 OFFCURVE",
"293 353 OFFCURVE",
"295 354 CURVE",
"296 354 OFFCURVE",
"298 354 OFFCURVE",
"300 353 CURVE SMOOTH",
"302 352 OFFCURVE",
"304 352 OFFCURVE",
"306 353 CURVE",
"307 353 OFFCURVE",
"309 353 OFFCURVE",
"311 352 CURVE",
"311 447 LINE"
);
},
{
closed = 1;
nodes = (
"278 -19 OFFCURVE",
"267 -17 OFFCURVE",
"257 -13 CURVE",
"247 -10 OFFCURVE",
"238 -4 OFFCURVE",
"231 4 CURVE",
"224 11 OFFCURVE",
"218 20 OFFCURVE",
"214 29 CURVE SMOOTH",
"210 38 OFFCURVE",
"208 48 OFFCURVE",
"208 60 CURVE SMOOTH",
"208 67 OFFCURVE",
"209 74 OFFCURVE",
"211 81 CURVE SMOOTH",
"213 88 OFFCURVE",
"216 95 OFFCURVE",
"220 101 CURVE",
"223 106 OFFCURVE",
"228 112 OFFCURVE",
"233 117 CURVE SMOOTH",
"238 122 OFFCURVE",
"243 125 OFFCURVE",
"250 128 CURVE",
"289 309 LINE",
"328 128 LINE",
"334 125 OFFCURVE",
"340 122 OFFCURVE",
"345 117 CURVE SMOOTH",
"350 112 OFFCURVE",
"355 106 OFFCURVE",
"359 101 CURVE",
"362 95 OFFCURVE",
"365 88 OFFCURVE",
"367 81 CURVE SMOOTH",
"369 74 OFFCURVE",
"370 67 OFFCURVE",
"370 60 CURVE SMOOTH",
"370 48 OFFCURVE",
"368 38 OFFCURVE",
"364 29 CURVE",
"359 20 OFFCURVE",
"353 11 OFFCURVE",
"346 4 CURVE",
"339 -4 OFFCURVE",
"330 -10 OFFCURVE",
"321 -13 CURVE",
"311 -17 OFFCURVE",
"300 -19 OFFCURVE",
"289 -20 CURVE"
);
}
);
width = 576;
}
);
unicode = E603;
},
{
glyphname = uniE604;
layers = (
{
layerId = "19B4AD07-3ADD-4C6B-9307-3D60BE925762";
name = Regular;
paths = (
{
closed = 1;
nodes = (
"174 125 OFFCURVE",
"153 129 OFFCURVE",
"134 138 CURVE",
"115 146 OFFCURVE",
"98 157 OFFCURVE",
"83 172 CURVE SMOOTH",
"68 186 OFFCURVE",
"57 203 OFFCURVE",
"49 222 CURVE",
"40 241 OFFCURVE",
"36 262 OFFCURVE",
"36 284 CURVE SMOOTH",
"36 306 OFFCURVE",
"40 327 OFFCURVE",
"49 346 CURVE",
"57 365 OFFCURVE",
"68 382 OFFCURVE",
"83 397 CURVE SMOOTH",
"98 412 OFFCURVE",
"115 423 OFFCURVE",
"134 432 CURVE",
"153 440 OFFCURVE",
"174 444 OFFCURVE",
"196 444 CURVE SMOOTH",
"218 444 OFFCURVE",
"239 440 OFFCURVE",
"258 432 CURVE",
"277 423 OFFCURVE",
"294 412 OFFCURVE",
"309 397 CURVE SMOOTH",
"323 382 OFFCURVE",
"334 365 OFFCURVE",
"343 346 CURVE",
"351 327 OFFCURVE",
"355 306 OFFCURVE",
"355 284 CURVE SMOOTH",
"355 262 OFFCURVE",
"351 241 OFFCURVE",
"343 222 CURVE",
"334 203 OFFCURVE",
"323 186 OFFCURVE",
"309 172 CURVE SMOOTH",
"294 157 OFFCURVE",
"277 146 OFFCURVE",
"258 138 CURVE",
"239 129 OFFCURVE",
"218 125 OFFCURVE",
"196 125 CURVE SMOOTH"
);
},
{
closed = 1;
nodes = (
"349 163 LINE",
"356 171 OFFCURVE",
"362 180 OFFCURVE",
"367 190 CURVE",
"372 199 OFFCURVE",
"377 209 OFFCURVE",
"381 219 CURVE",
"384 229 OFFCURVE",
"387 240 OFFCURVE",
"389 251 CURVE",
"390 262 OFFCURVE",
"391 273 OFFCURVE",
"391 284 CURVE SMOOTH",
"391 311 OFFCURVE",
"386 337 OFFCURVE",
"376 361 CURVE SMOOTH",
"366 384 OFFCURVE",
"352 405 OFFCURVE",
"334 423 CURVE SMOOTH",
"316 440 OFFCURVE",
"295 454 OFFCURVE",
"272 465 CURVE",
"248 475 OFFCURVE",
"223 480 OFFCURVE",
"196 480 CURVE SMOOTH",
"169 480 OFFCURVE",
"143 475 OFFCURVE",
"120 465 CURVE SMOOTH",
"96 454 OFFCURVE",
"75 440 OFFCURVE",
"58 423 CURVE SMOOTH",
"40 405 OFFCURVE",
"26 384 OFFCURVE",
"16 361 CURVE SMOOTH",
"5 337 OFFCURVE",
"0 311 OFFCURVE",
"0 284 CURVE SMOOTH",
"0 257 OFFCURVE",
"5 232 OFFCURVE",
"16 209 CURVE",
"26 185 OFFCURVE",
"40 164 OFFCURVE",
"58 146 CURVE SMOOTH",
"75 128 OFFCURVE",
"96 114 OFFCURVE",
"120 104 CURVE SMOOTH",
"143 94 OFFCURVE",
"169 89 OFFCURVE",
"196 89 CURVE SMOOTH",
"207 89 OFFCURVE",
"219 90 OFFCURVE",
"230 92 CURVE",
"241 93 OFFCURVE",
"251 96 OFFCURVE",
"261 100 CURVE",
"271 103 OFFCURVE",
"281 108 OFFCURVE",
"291 113 CURVE",
"300 118 OFFCURVE",
"309 124 OFFCURVE",
"317 131 CURVE",
"334 114 LINE",
"333 110 OFFCURVE",
"332 106 OFFCURVE",
"331 103 CURVE",
"330 99 OFFCURVE",
"330 95 OFFCURVE",
"331 92 CURVE",
"331 88 OFFCURVE",
"332 84 OFFCURVE",
"334 81 CURVE",
"335 77 OFFCURVE",
"338 74 OFFCURVE",
"341 71 CURVE SMOOTH",
"433 -21 LINE",
"436 -25 OFFCURVE",
"440 -28 OFFCURVE",
"445 -29 CURVE",
"449 -31 OFFCURVE",
"453 -32 OFFCURVE",
"458 -32 CURVE SMOOTH",
"463 -32 OFFCURVE",
"467 -31 OFFCURVE",
"472 -29 CURVE",
"477 -28 OFFCURVE",
"481 -25 OFFCURVE",
"484 -21 CURVE",
"501 -4 LINE",
"505 -1 OFFCURVE",
"508 3 OFFCURVE",
"510 8 CURVE",
"511 13 OFFCURVE",
"512 17 OFFCURVE",
"512 22 CURVE SMOOTH",
"512 27 OFFCURVE",
"511 31 OFFCURVE",
"510 36 CURVE",
"508 40 OFFCURVE",
"505 44 OFFCURVE",
"501 47 CURVE",
"409 139 LINE SMOOTH",
"406 142 OFFCURVE",
"403 145 OFFCURVE",
"400 147 CURVE",
"396 148 OFFCURVE",
"392 149 OFFCURVE",
"389 150 CURVE",
"385 150 OFFCURVE",
"381 150 OFFCURVE",
"378 149 CURVE",
"374 148 OFFCURVE",
"370 147 OFFCURVE",
"366 146 CURVE"
);
}
);
width = 512;
}
);
unicode = E604;
},
{
glyphname = uniE605;
layers = (
{
layerId = "19B4AD07-3ADD-4C6B-9307-3D60BE925762";
name = Regular;
paths = (
{
closed = 1;
nodes = (
"381 305 LINE",
"313 236 LINE",
"313 235 OFFCURVE",
"313 234 OFFCURVE",
"314 234 CURVE",
"314 233 OFFCURVE",
"314 232 OFFCURVE",
"314 231 CURVE SMOOTH",
"314 230 OFFCURVE",
"314 229 OFFCURVE",
"314 229 CURVE",
"314 228 OFFCURVE",
"314 227 OFFCURVE",
"314 225 CURVE SMOOTH",
"314 220 OFFCURVE",
"313 215 OFFCURVE",
"311 210 CURVE",
"308 204 OFFCURVE",
"305 199 OFFCURVE",
"302 196 CURVE SMOOTH",
"298 192 OFFCURVE",
"294 189 OFFCURVE",
"289 186 CURVE SMOOTH",
"284 183 OFFCURVE",
"278 182 OFFCURVE",
"272 183 CURVE",
"268 182 OFFCURVE",
"264 183 OFFCURVE",
"261 185 CURVE",
"258 186 OFFCURVE",
"254 188 OFFCURVE",
"251 190 CURVE",
"248 191 OFFCURVE",
"245 194 OFFCURVE",
"243 197 CURVE",
"240 200 OFFCURVE",
"238 202 OFFCURVE",
"236 204 CURVE",
"178 205 LINE",
"177 204 OFFCURVE",
"175 205 OFFCURVE",
"174 206 CURVE SMOOTH",
"173 207 OFFCURVE",
"172 207 OFFCURVE",
"171 208 CURVE SMOOTH",
"170 209 OFFCURVE",
"169 210 OFFCURVE",
"168 212 CURVE",
"167 213 OFFCURVE",
"167 214 OFFCURVE",
"167 215 CURVE SMOOTH",
"167 237 LINE SMOOTH",
"167 238 OFFCURVE",
"167 239 OFFCURVE",
"168 241 CURVE",
"169 242 OFFCURVE",
"170 243 OFFCURVE",
"171 244 CURVE",
"172 244 OFFCURVE",
"173 245 OFFCURVE",
"174 246 CURVE SMOOTH",
"175 247 OFFCURVE",
"177 247 OFFCURVE",
"178 246 CURVE",
"236 247 LINE",
"238 249 OFFCURVE",
"240 252 OFFCURVE",
"243 255 CURVE",
"245 258 OFFCURVE",
"248 260 OFFCURVE",
"251 262 CURVE",
"254 263 OFFCURVE",
"258 265 OFFCURVE",
"261 267 CURVE",
"264 268 OFFCURVE",
"268 269 OFFCURVE",
"272 268 CURVE",
"273 269 OFFCURVE",
"275 269 OFFCURVE",
"276 268 CURVE SMOOTH",
"277 267 OFFCURVE",
"278 267 OFFCURVE",
"279 268 CURVE",
"280 268 OFFCURVE",
"281 268 OFFCURVE",
"282 267 CURVE SMOOTH",
"283 266 OFFCURVE",
"283 266 OFFCURVE",
"284 267 CURVE SMOOTH",
"352 334 LINE",
"353 336 OFFCURVE",
"354 337 OFFCURVE",
"355 337 CURVE SMOOTH",
"356 337 OFFCURVE",
"358 337 OFFCURVE",
"359 338 CURVE",
"360 338 OFFCURVE",
"362 338 OFFCURVE",
"363 337 CURVE SMOOTH",
"364 336 OFFCURVE",
"366 336 OFFCURVE",
"367 335 CURVE SMOOTH",
"381 320 LINE SMOOTH",
"382 319 OFFCURVE",
"383 318 OFFCURVE",
"384 317 CURVE",
"384 315 OFFCURVE",
"384 314 OFFCURVE",
"384 313 CURVE SMOOTH",
"384 312 OFFCURVE",
"384 310 OFFCURVE",
"384 309 CURVE",
"383 307 OFFCURVE",
"382 306 OFFCURVE",
"381 306 CURVE"
);
},
{
closed = 1;
nodes = (
"519 182 LINE",
"520 188 OFFCURVE",
"520 193 OFFCURVE",
"521 197 CURVE",
"521 200 OFFCURVE",
"521 204 OFFCURVE",
"522 207 CURVE",
"522 210 OFFCURVE",
"522 213 OFFCURVE",
"523 216 CURVE",
"523 219 OFFCURVE",
"523 222 OFFCURVE",
"523 226 CURVE SMOOTH",
"523 261 OFFCURVE",
"517 294 OFFCURVE",
"504 325 CURVE SMOOTH",
"491 356 OFFCURVE",
"473 383 OFFCURVE",
"450 406 CURVE SMOOTH",
"427 429 OFFCURVE",
"400 447 OFFCURVE",
"370 461 CURVE",
"339 474 OFFCURVE",
"307 481 OFFCURVE",
"272 480 CURVE",
"237 481 OFFCURVE",
"205 474 OFFCURVE",
"175 461 CURVE SMOOTH",
"144 447 OFFCURVE",
"118 429 OFFCURVE",
"95 406 CURVE SMOOTH",
"72 383 OFFCURVE",
"54 357 OFFCURVE",
"41 326 CURVE SMOOTH",
"28 295 OFFCURVE",
"21 262 OFFCURVE",
"21 227 CURVE SMOOTH",
"21 191 OFFCURVE",
"27 158 OFFCURVE",
"40 128 CURVE",
"52 97 OFFCURVE",
"69 70 OFFCURVE",
"92 47 CURVE SMOOTH",
"114 24 OFFCURVE",
"140 6 OFFCURVE",
"171 -7 CURVE SMOOTH",
"202 -20 OFFCURVE",
"235 -27 OFFCURVE",
"272 -28 CURVE",
"272 -27 LINE",
"283 -28 OFFCURVE",
"294 -27 OFFCURVE",
"306 -25 CURVE SMOOTH",
"317 -23 OFFCURVE",
"329 -20 OFFCURVE",
"341 -17 CURVE SMOOTH",
"352 -14 OFFCURVE",
"364 -9 OFFCURVE",
"376 -4 CURVE SMOOTH",
"387 1 OFFCURVE",
"398 7 OFFCURVE",
"409 14 CURVE",
"410 15 LINE",
"441 -29 LINE",
"442 -30 OFFCURVE",
"443 -30 OFFCURVE",
"444 -31 CURVE SMOOTH",
"445 -32 OFFCURVE",
"445 -32 OFFCURVE",
"446 -31 CURVE",
"447 -31 OFFCURVE",
"447 -31 OFFCURVE",
"448 -30 CURVE SMOOTH",
"449 -29 OFFCURVE",
"449 -28 OFFCURVE",
"450 -26 CURVE",
"496 108 LINE",
"497 110 OFFCURVE",
"497 112 OFFCURVE",
"497 113 CURVE",
"496 114 OFFCURVE",
"496 115 OFFCURVE",
"495 116 CURVE SMOOTH",
"494 117 OFFCURVE",
"494 118 OFFCURVE",
"493 118 CURVE SMOOTH",
"492 118 OFFCURVE",
"490 119 OFFCURVE",
"489 120 CURVE",
"346 118 LINE",
"345 119 OFFCURVE",
"344 120 OFFCURVE",
"343 119 CURVE SMOOTH",
"342 118 OFFCURVE",
"341 117 OFFCURVE",
"341 117 CURVE",
"340 116 OFFCURVE",
"340 115 OFFCURVE",
"340 114 CURVE SMOOTH",
"340 113 OFFCURVE",
"340 112 OFFCURVE",
"341 111 CURVE",
"373 66 LINE",
"365 61 OFFCURVE",
"357 57 OFFCURVE",
"350 53 CURVE SMOOTH",
"343 49 OFFCURVE",
"335 46 OFFCURVE",
"327 44 CURVE SMOOTH",
"319 42 OFFCURVE",
"311 40 OFFCURVE",
"302 39 CURVE",
"293 37 OFFCURVE",
"283 36 OFFCURVE",
"272 37 CURVE",
"272 36 LINE",
"246 37 OFFCURVE",
"222 42 OFFCURVE",
"199 52 CURVE",
"176 61 OFFCURVE",
"156 75 OFFCURVE",
"139 92 CURVE SMOOTH",
"122 109 OFFCURVE",
"108 130 OFFCURVE",
"99 153 CURVE",
"89 176 OFFCURVE",
"84 200 OFFCURVE",
"84 227 CURVE SMOOTH",
"84 253 OFFCURVE",
"89 278 OFFCURVE",
"99 301 CURVE",
"108 324 OFFCURVE",
"122 345 OFFCURVE",
"139 362 CURVE SMOOTH",
"156 379 OFFCURVE",
"176 392 OFFCURVE",
"199 403 CURVE",
"222 413 OFFCURVE",
"246 418 OFFCURVE",
"272 417 CURVE",
"298 418 OFFCURVE",
"323 413 OFFCURVE",
"346 403 CURVE",
"369 392 OFFCURVE",
"389 379 OFFCURVE",
"406 362 CURVE SMOOTH",
"423 345 OFFCURVE",
"436 324 OFFCURVE",
"446 301 CURVE",
"455 277 OFFCURVE",
"460 252 OFFCURVE",
"460 226 CURVE SMOOTH",
"460 222 OFFCURVE",
"460 219 OFFCURVE",
"460 216 CURVE SMOOTH",
"460 213 OFFCURVE",
"460 210 OFFCURVE",
"459 207 CURVE SMOOTH",
"458 204 OFFCURVE",
"458 200 OFFCURVE",
"457 197 CURVE",
"456 193 OFFCURVE",
"456 188 OFFCURVE",
"455 182 CURVE",
"519 183 LINE"
);
}
);
width = 544;
}
);
unicode = E605;
},
{
glyphname = uniE606;
layers = (
{
layerId = "19B4AD07-3ADD-4C6B-9307-3D60BE925762";
name = Regular;
paths = (
{
closed = 1;
nodes = (
"293 310 OFFCURVE",
"295 309 OFFCURVE",
"298 309 CURVE SMOOTH",
"300 309 OFFCURVE",
"302 309 OFFCURVE",
"305 310 CURVE",
"307 310 OFFCURVE",
"309 311 OFFCURVE",
"311 313 CURVE SMOOTH",
"312 314 OFFCURVE",
"314 316 OFFCURVE",
"315 318 CURVE",
"381 425 LINE",
"382 427 OFFCURVE",
"383 429 OFFCURVE",
"384 432 CURVE",
"384 434 OFFCURVE",
"384 436 OFFCURVE",
"384 438 CURVE",
"383 440 OFFCURVE",
"382 442 OFFCURVE",
"381 444 CURVE SMOOTH",
"380 446 OFFCURVE",
"378 447 OFFCURVE",
"376 448 CURVE",
"338 470 LINE",
"254 332 LINE",
"291 311 LINE"
);
},
{
closed = 1;
nodes = (
"83 -31 OFFCURVE",
"85 -32 OFFCURVE",
"88 -32 CURVE SMOOTH",
"90 -32 OFFCURVE",
"92 -32 OFFCURVE",
"95 -31 CURVE",
"97 -30 OFFCURVE",
"99 -29 OFFCURVE",
"101 -28 CURVE",
"102 -27 OFFCURVE",
"104 -25 OFFCURVE",
"105 -23 CURVE",
"170 81 LINE",
"171 84 OFFCURVE",
"172 86 OFFCURVE",
"173 88 CURVE",
"173 90 OFFCURVE",
"173 92 OFFCURVE",
"172 95 CURVE",
"171 97 OFFCURVE",
"170 99 OFFCURVE",
"169 101 CURVE",
"168 102 OFFCURVE",
"166 104 OFFCURVE",
"164 105 CURVE",
"127 126 LINE",
"44 -8 LINE",
"81 -30 LINE"
);
},
{
closed = 1;
nodes = (
"322 478 OFFCURVE",
"311 479 OFFCURVE",
"296 480 CURVE",
"281 480 OFFCURVE",
"262 475 OFFCURVE",
"240 465 CURVE SMOOTH",
"218 455 OFFCURVE",
"193 438 OFFCURVE",
"166 413 CURVE SMOOTH",
"139 388 OFFCURVE",
"110 351 OFFCURVE",
"79 303 CURVE SMOOTH",
"47 252 OFFCURVE",
"26 209 OFFCURVE",
"15 172 CURVE SMOOTH",
"4 135 OFFCURVE",
"-1 104 OFFCURVE",
"0 79 CURVE SMOOTH",
"1 54 OFFCURVE",
"5 35 OFFCURVE",
"13 22 CURVE SMOOTH",
"21 9 OFFCURVE",
"28 1 OFFCURVE",
"34 -2 CURVE",
"116 132 LINE",
"111 135 OFFCURVE",
"108 138 OFFCURVE",
"107 142 CURVE SMOOTH",
"106 146 OFFCURVE",
"106 151 OFFCURVE",
"107 158 CURVE SMOOTH",
"108 164 OFFCURVE",
"111 171 OFFCURVE",
"115 180 CURVE",
"118 188 OFFCURVE",
"123 198 OFFCURVE",
"128 209 CURVE",
"132 216 OFFCURVE",
"136 224 OFFCURVE",
"141 232 CURVE",
"145 240 OFFCURVE",
"150 248 OFFCURVE",
"155 257 CURVE",
"160 265 OFFCURVE",
"165 273 OFFCURVE",
"171 282 CURVE SMOOTH",
"176 290 OFFCURVE",
"182 298 OFFCURVE",
"188 306 CURVE SMOOTH",
"192 311 OFFCURVE",
"196 317 OFFCURVE",
"201 322 CURVE SMOOTH",
"206 327 OFFCURVE",
"210 331 OFFCURVE",
"215 334 CURVE SMOOTH",
"220 337 OFFCURVE",
"224 340 OFFCURVE",
"229 341 CURVE SMOOTH",
"234 342 OFFCURVE",
"238 341 OFFCURVE",
"243 338 CURVE",
"328 476 LINE"
);
}
);
width = 384;
}
);
unicode = E606;
},
{
glyphname = uniE607;
layers = (
{
layerId = "19B4AD07-3ADD-4C6B-9307-3D60BE925762";
name = Regular;
paths = (
{
closed = 1;
nodes = (
"394 148 LINE",
"393 147 OFFCURVE",
"393 147 OFFCURVE",
"392 146 CURVE SMOOTH",
"391 145 OFFCURVE",
"391 145 OFFCURVE",
"390 145 CURVE",
"389 144 OFFCURVE",
"388 144 OFFCURVE",
"387 144 CURVE SMOOTH",
"386 144 OFFCURVE",
"385 144 OFFCURVE",
"384 144 CURVE SMOOTH",
"383 144 OFFCURVE",
"383 144 OFFCURVE",
"382 144 CURVE SMOOTH",
"381 144 OFFCURVE",
"380 144 OFFCURVE",
"379 145 CURVE",
"378 145 OFFCURVE",
"377 145 OFFCURVE",
"376 146 CURVE SMOOTH",
"375 147 OFFCURVE",
"375 147 OFFCURVE",
"374 148 CURVE",
"280 226 LINE",
"24 -30 LINE",
"25 -31 OFFCURVE",
"25 -31 OFFCURVE",
"26 -31 CURVE SMOOTH",
"27 -31 OFFCURVE",
"27 -31 OFFCURVE",
"28 -31 CURVE",
"29 -32 OFFCURVE",
"29 -32 OFFCURVE",
"30 -32 CURVE SMOOTH",
"31 -32 OFFCURVE",
"31 -32 OFFCURVE",
"32 -32 CURVE SMOOTH",
"736 -32 LINE SMOOTH",
"737 -32 OFFCURVE",
"737 -32 OFFCURVE",
"738 -32 CURVE SMOOTH",
"739 -32 OFFCURVE",
"739 -32 OFFCURVE",
"740 -31 CURVE",
"741 -31 OFFCURVE",
"741 -31 OFFCURVE",
"742 -31 CURVE SMOOTH",
"743 -31 OFFCURVE",
"743 -31 OFFCURVE",
"744 -30 CURVE",
"488 226 LINE"
);
},
{
closed = 1;
nodes = (
"2 457 OFFCURVE",
"2 456 OFFCURVE",
"2 455 CURVE",
"1 454 OFFCURVE",
"1 454 OFFCURVE",
"1 453 CURVE",
"0 452 OFFCURVE",
"0 452 OFFCURVE",
"0 451 CURVE SMOOTH",
"0 450 OFFCURVE",
"0 449 OFFCURVE",
"0 448 CURVE SMOOTH",
"0 0 LINE SMOOTH",
"0 -1 OFFCURVE",
"0 -1 OFFCURVE",
"0 -2 CURVE SMOOTH",
"0 -3 OFFCURVE",
"0 -3 OFFCURVE",
"1 -4 CURVE",
"1 -5 OFFCURVE",
"1 -5 OFFCURVE",
"1 -6 CURVE SMOOTH",
"1 -7 OFFCURVE",
"1 -7 OFFCURVE",
"2 -8 CURVE",
"256 246 LINE",
"2 458 LINE"
);
},
{
closed = 1;
nodes = (
"768 449 OFFCURVE",
"768 450 OFFCURVE",
"768 451 CURVE SMOOTH",
"768 452 OFFCURVE",
"768 452 OFFCURVE",
"768 453 CURVE",
"767 454 OFFCURVE",
"767 454 OFFCURVE",
"767 455 CURVE",
"766 456 OFFCURVE",
"766 457 OFFCURVE",
"766 458 CURVE",
"513 246 LINE",
"766 -8 LINE",
"767 -7 OFFCURVE",
"767 -7 OFFCURVE",
"767 -6 CURVE SMOOTH",
"767 -5 OFFCURVE",
"767 -5 OFFCURVE",
"768 -4 CURVE",
"768 -3 OFFCURVE",
"768 -3 OFFCURVE",
"768 -2 CURVE SMOOTH",
"768 -1 OFFCURVE",
"768 -1 OFFCURVE",
"768 0 CURVE SMOOTH",
"768 448 LINE SMOOTH"
);
},
{
closed = 1;
nodes = (
"742 479 LINE",
"741 479 OFFCURVE",
"741 479 OFFCURVE",
"741 479 CURVE SMOOTH",
"740 479 OFFCURVE",
"740 479 OFFCURVE",
"739 480 CURVE",
"738 480 OFFCURVE",
"738 480 OFFCURVE",
"738 480 CURVE SMOOTH",
"737 480 OFFCURVE",
"737 480 OFFCURVE",
"736 480 CURVE SMOOTH",
"32 480 LINE SMOOTH",
"31 480 OFFCURVE",
"31 480 OFFCURVE",
"31 480 CURVE SMOOTH",
"30 480 OFFCURVE",
"30 480 OFFCURVE",
"29 480 CURVE",
"28 479 OFFCURVE",
"28 479 OFFCURVE",
"28 479 CURVE SMOOTH",
"27 479 OFFCURVE",
"27 479 OFFCURVE",
"26 479 CURVE",
"384 181 LINE"
);
}
);
width = 768;
}
);
unicode = E607;
},
{
glyphname = uniE608;
layers = (
{
layerId = "19B4AD07-3ADD-4C6B-9307-3D60BE925762";
name = Regular;
paths = (
{
closed = 1;
nodes = (
"512 272 LINE",
"457 273 LINE",
"456 278 OFFCURVE",
"454 283 OFFCURVE",
"453 288 CURVE",
"451 293 OFFCURVE",
"449 298 OFFCURVE",
"447 303 CURVE SMOOTH",
"445 308 OFFCURVE",
"443 313 OFFCURVE",
"441 318 CURVE",
"438 323 OFFCURVE",
"436 327 OFFCURVE",
"433 331 CURVE",
"471 371 LINE",
"403 438 LINE",
"364 401 LINE",
"359 403 OFFCURVE",
"355 405 OFFCURVE",
"350 408 CURVE SMOOTH",
"345 411 OFFCURVE",
"341 413 OFFCURVE",
"336 415 CURVE",
"331 416 OFFCURVE",
"326 418 OFFCURVE",
"321 420 CURVE SMOOTH",
"316 422 OFFCURVE",
"310 423 OFFCURVE",
"305 424 CURVE",
"305 480 LINE",
"207 479 LINE",
"207 425 LINE",
"202 423 OFFCURVE",
"197 421 OFFCURVE",
"192 420 CURVE SMOOTH",
"187 419 OFFCURVE",
"182 417 OFFCURVE",
"177 415 CURVE",
"172 412 OFFCURVE",
"167 410 OFFCURVE",
"162 408 CURVE SMOOTH",
"157 406 OFFCURVE",
"153 403 OFFCURVE",
"148 400 CURVE",
"109 439 LINE",
"41 370 LINE",
"79 332 LINE",
"76 327 OFFCURVE",
"74 322 OFFCURVE",
"72 318 CURVE",
"69 313 OFFCURVE",
"67 308 OFFCURVE",
"65 303 CURVE SMOOTH",
"63 298 OFFCURVE",
"61 293 OFFCURVE",
"60 288 CURVE",
"58 283 OFFCURVE",
"56 278 OFFCURVE",
"55 272 CURVE",
"0 273 LINE",
"0 174 LINE",
"55 175 LINE",
"56 169 OFFCURVE",
"58 164 OFFCURVE",
"60 159 CURVE",
"61 154 OFFCURVE",
"63 149 OFFCURVE",
"65 144 CURVE SMOOTH",
"67 139 OFFCURVE",
"69 134 OFFCURVE",
"72 130 CURVE",
"74 125 OFFCURVE",
"76 120 OFFCURVE",
"79 115 CURVE",
"41 77 LINE",
"109 8 LINE",
"148 47 LINE",
"153 44 OFFCURVE",
"157 41 OFFCURVE",
"162 39 CURVE SMOOTH",
"167 37 OFFCURVE",
"172 35 OFFCURVE",
"177 33 CURVE",
"182 30 OFFCURVE",
"187 28 OFFCURVE",
"192 27 CURVE SMOOTH",
"197 26 OFFCURVE",
"202 24 OFFCURVE",
"207 22 CURVE",
"207 -32 LINE",
"305 -33 LINE",
"305 23 LINE",
"310 24 OFFCURVE",
"316 25 OFFCURVE",
"321 27 CURVE SMOOTH",
"326 29 OFFCURVE",
"331 31 OFFCURVE",
"336 33 CURVE",
"341 34 OFFCURVE",
"345 36 OFFCURVE",
"350 39 CURVE SMOOTH",
"355 42 OFFCURVE",
"359 44 OFFCURVE",
"364 46 CURVE",
"403 9 LINE",
"471 76 LINE",
"433 116 LINE",
"436 120 OFFCURVE",
"438 125 OFFCURVE",
"441 130 CURVE",
"443 135 OFFCURVE",
"445 139 OFFCURVE",
"447 144 CURVE SMOOTH",
"449 149 OFFCURVE",
"451 154 OFFCURVE",
"453 159 CURVE",
"454 164 OFFCURVE",
"456 169 OFFCURVE",
"457 174 CURVE",
"512 175 LINE"
);
},
{
closed = 1;
nodes = (
"243 129 OFFCURVE",
"230 131 OFFCURVE",
"219 136 CURVE SMOOTH",
"208 141 OFFCURVE",
"198 148 OFFCURVE",
"189 157 CURVE SMOOTH",
"180 166 OFFCURVE",
"174 176 OFFCURVE",
"169 187 CURVE SMOOTH",
"164 198 OFFCURVE",
"161 210 OFFCURVE",
"161 224 CURVE SMOOTH",
"161 237 OFFCURVE",
"164 249 OFFCURVE",
"169 261 CURVE SMOOTH",
"174 272 OFFCURVE",
"180 282 OFFCURVE",
"189 291 CURVE",
"198 299 OFFCURVE",
"208 306 OFFCURVE",
"219 311 CURVE SMOOTH",
"230 316 OFFCURVE",
"243 319 OFFCURVE",
"256 318 CURVE",
"269 319 OFFCURVE",
"282 316 OFFCURVE",
"293 311 CURVE SMOOTH",
"304 306 OFFCURVE",
"314 299 OFFCURVE",
"323 291 CURVE",
"332 282 OFFCURVE",
"339 272 OFFCURVE",
"344 261 CURVE SMOOTH",
"349 249 OFFCURVE",
"351 237 OFFCURVE",
"351 224 CURVE SMOOTH",
"351 210 OFFCURVE",
"349 198 OFFCURVE",
"344 187 CURVE SMOOTH",
"339 176 OFFCURVE",
"332 166 OFFCURVE",
"323 157 CURVE SMOOTH",
"314 148 OFFCURVE",
"304 141 OFFCURVE",
"293 136 CURVE SMOOTH",
"282 131 OFFCURVE",
"269 129 OFFCURVE",
"256 128 CURVE"
);
}
);
width = 512;
}
);
unicode = E608;
},
{
glyphname = uniE609;
layers = (
{
layerId = "19B4AD07-3ADD-4C6B-9307-3D60BE925762";
name = Regular;
paths = (
{
closed = 1;
nodes = (
"0 -32 LINE",
"186 10 LINE",
"45 152 LINE"
);
},
{
closed = 1;
nodes = (
"367 480 LINE",
"89 200 LINE",
"234 54 LINE",
"512 334 LINE"
);
}
);
width = 512;
}
);
unicode = E609;
},
{
glyphname = uniE60A;
layers = (
{
layerId = "19B4AD07-3ADD-4C6B-9307-3D60BE925762";
name = Regular;
paths = (
{
closed = 1;
nodes = (
"256 131 LINE",
"144 19 LINE",
"137 13 OFFCURVE",
"130 8 OFFCURVE",
"122 5 CURVE SMOOTH",
"114 2 OFFCURVE",
"106 0 OFFCURVE",
"98 0 CURVE SMOOTH",
"89 0 OFFCURVE",
"81 2 OFFCURVE",
"73 5 CURVE SMOOTH",
"65 8 OFFCURVE",
"58 13 OFFCURVE",
"51 19 CURVE",
"45 26 OFFCURVE",
"40 33 OFFCURVE",
"37 41 CURVE SMOOTH",
"34 49 OFFCURVE",
"32 57 OFFCURVE",
"32 66 CURVE SMOOTH",
"32 74 OFFCURVE",
"34 82 OFFCURVE",
"37 90 CURVE SMOOTH",
"40 98 OFFCURVE",
"45 105 OFFCURVE",
"51 112 CURVE",
"163 224 LINE",
"51 336 LINE",
"45 343 OFFCURVE",
"40 350 OFFCURVE",
"37 358 CURVE SMOOTH",
"34 366 OFFCURVE",
"32 374 OFFCURVE",
"32 383 CURVE SMOOTH",
"32 391 OFFCURVE",
"34 399 OFFCURVE",
"37 407 CURVE SMOOTH",
"40 415 OFFCURVE",
"45 422 OFFCURVE",
"51 429 CURVE",
"58 435 OFFCURVE",
"65 440 OFFCURVE",
"73 443 CURVE SMOOTH",
"81 446 OFFCURVE",
"89 448 OFFCURVE",
"98 448 CURVE SMOOTH",
"106 448 OFFCURVE",
"114 446 OFFCURVE",
"122 443 CURVE SMOOTH",
"130 440 OFFCURVE",
"137 435 OFFCURVE",
"144 429 CURVE",
"256 317 LINE",
"368 429 LINE",
"375 435 OFFCURVE",
"382 440 OFFCURVE",
"390 443 CURVE SMOOTH",
"398 446 OFFCURVE",
"406 448 OFFCURVE",
"415 448 CURVE SMOOTH",
"423 448 OFFCURVE",
"431 446 OFFCURVE",
"439 443 CURVE SMOOTH",
"447 440 OFFCURVE",
"454 435 OFFCURVE",
"461 429 CURVE",
"467 422 OFFCURVE",
"472 415 OFFCURVE",
"475 407 CURVE SMOOTH",
"478 399 OFFCURVE",
"480 391 OFFCURVE",
"480 383 CURVE SMOOTH",
"480 374 OFFCURVE",
"478 366 OFFCURVE",
"475 358 CURVE SMOOTH",
"472 350 OFFCURVE",
"467 343 OFFCURVE",
"461 336 CURVE",
"349 224 LINE",
"461 112 LINE",
"467 105 OFFCURVE",
"472 98 OFFCURVE",
"475 90 CURVE SMOOTH",
"478 82 OFFCURVE",
"480 74 OFFCURVE",
"480 66 CURVE SMOOTH",
"480 57 OFFCURVE",
"478 49 OFFCURVE",
"475 41 CURVE SMOOTH",
"472 33 OFFCURVE",
"467 26 OFFCURVE",
"461 19 CURVE",
"454 13 OFFCURVE",
"447 8 OFFCURVE",
"439 5 CURVE SMOOTH",
"431 2 OFFCURVE",
"423 0 OFFCURVE",
"415 0 CURVE SMOOTH",
"406 0 OFFCURVE",
"398 2 OFFCURVE",
"390 5 CURVE SMOOTH",
"382 8 OFFCURVE",
"375 13 OFFCURVE",
"368 19 CURVE"
);
}
);
width = 512;
}
);
unicode = E60A;
},
{
glyphname = uniE60B;
layers = (
{
layerId = "19B4AD07-3ADD-4C6B-9307-3D60BE925762";
name = Regular;
paths = (
{
closed = 1;
nodes = (
"298 416 OFFCURVE",
"323 411 OFFCURVE",
"346 401 CURVE SMOOTH",
"369 391 OFFCURVE",
"389 377 OFFCURVE",
"406 360 CURVE SMOOTH",
"423 343 OFFCURVE",
"436 322 OFFCURVE",
"446 299 CURVE",
"455 276 OFFCURVE",
"460 251 OFFCURVE",
"460 224 CURVE SMOOTH",
"460 197 OFFCURVE",
"455 172 OFFCURVE",
"446 149 CURVE",
"436 126 OFFCURVE",
"423 105 OFFCURVE",
"406 88 CURVE SMOOTH",
"389 71 OFFCURVE",
"369 57 OFFCURVE",
"346 47 CURVE SMOOTH",
"323 37 OFFCURVE",
"298 32 OFFCURVE",
"272 32 CURVE SMOOTH",
"246 32 OFFCURVE",
"222 37 OFFCURVE",
"199 47 CURVE SMOOTH",
"176 57 OFFCURVE",
"156 71 OFFCURVE",
"139 88 CURVE SMOOTH",
"122 105 OFFCURVE",
"108 126 OFFCURVE",
"99 149 CURVE",
"89 172 OFFCURVE",
"84 197 OFFCURVE",
"84 224 CURVE SMOOTH",
"84 251 OFFCURVE",
"89 276 OFFCURVE",
"99 299 CURVE",
"108 322 OFFCURVE",
"122 343 OFFCURVE",
"139 360 CURVE SMOOTH",
"156 377 OFFCURVE",
"176 391 OFFCURVE",
"199 401 CURVE SMOOTH",
"222 411 OFFCURVE",
"246 416 OFFCURVE",
"272 416 CURVE",
"272 416 LINE"
);
},
{
closed = 1;
nodes = (
"237 480 OFFCURVE",
"205 473 OFFCURVE",
"175 460 CURVE SMOOTH",
"144 447 OFFCURVE",
"118 428 OFFCURVE",
"95 405 CURVE SMOOTH",
"72 382 OFFCURVE",
"54 355 OFFCURVE",
"41 324 CURVE SMOOTH",
"28 293 OFFCURVE",
"21 259 OFFCURVE",
"21 224 CURVE SMOOTH",
"21 189 OFFCURVE",
"28 156 OFFCURVE",
"41 125 CURVE SMOOTH",
"54 94 OFFCURVE",
"72 66 OFFCURVE",
"95 43 CURVE SMOOTH",
"118 20 OFFCURVE",
"144 1 OFFCURVE",
"175 -12 CURVE SMOOTH",
"205 -25 OFFCURVE",
"237 -32 OFFCURVE",
"272 -32 CURVE SMOOTH",
"307 -32 OFFCURVE",
"339 -25 OFFCURVE",
"370 -12 CURVE SMOOTH",
"400 1 OFFCURVE",
"427 20 OFFCURVE",
"450 43 CURVE SMOOTH",
"473 66 OFFCURVE",
"491 94 OFFCURVE",
"504 125 CURVE SMOOTH",
"517 156 OFFCURVE",
"523 189 OFFCURVE",
"523 224 CURVE SMOOTH",
"523 259 OFFCURVE",
"517 293 OFFCURVE",
"504 324 CURVE SMOOTH",
"491 355 OFFCURVE",
"473 382 OFFCURVE",
"450 405 CURVE SMOOTH",
"427 428 OFFCURVE",
"400 447 OFFCURVE",
"370 460 CURVE SMOOTH",
"339 473 OFFCURVE",
"307 480 OFFCURVE",
"272 480 CURVE SMOOTH",
"272 480 LINE SMOOTH"
);
},
{
closed = 1;
nodes = (
"333 128 OFFCURVE",
"331 128 OFFCURVE",
"329 129 CURVE",
"327 129 OFFCURVE",
"325 130 OFFCURVE",
"323 131 CURVE SMOOTH",
"321 132 OFFCURVE",
"319 133 OFFCURVE",
"318 134 CURVE",
"316 135 OFFCURVE",
"314 136 OFFCURVE",
"313 137 CURVE SMOOTH",
"250 201 LINE",
"249 203 OFFCURVE",
"247 205 OFFCURVE",
"246 207 CURVE",
"245 208 OFFCURVE",
"244 210 OFFCURVE",
"243 212 CURVE",
"242 213 OFFCURVE",
"242 215 OFFCURVE",
"242 218 CURVE",
"241 220 OFFCURVE",
"241 222 OFFCURVE",
"241 224 CURVE",
"241 224 LINE SMOOTH",
"241 224 OFFCURVE",
"241 224 OFFCURVE",
"241 224 CURVE SMOOTH",
"241 224 OFFCURVE",
"241 224 OFFCURVE",
"241 224 CURVE SMOOTH",
"241 224 OFFCURVE",
"241 224 OFFCURVE",
"241 224 CURVE SMOOTH",
"241 224 OFFCURVE",
"241 224 OFFCURVE",
"241 224 CURVE",
"241 352 LINE SMOOTH",
"241 357 OFFCURVE",
"242 361 OFFCURVE",
"244 365 CURVE",
"245 368 OFFCURVE",
"247 372 OFFCURVE",
"250 375 CURVE SMOOTH",
"253 378 OFFCURVE",
"256 380 OFFCURVE",
"260 382 CURVE",
"263 383 OFFCURVE",
"267 384 OFFCURVE",
"272 384 CURVE SMOOTH",
"276 384 OFFCURVE",
"280 383 OFFCURVE",
"284 382 CURVE",
"288 380 OFFCURVE",
"291 378 OFFCURVE",
"294 375 CURVE SMOOTH",
"297 372 OFFCURVE",
"299 368 OFFCURVE",
"301 365 CURVE",
"302 361 OFFCURVE",
"303 357 OFFCURVE",
"303 352 CURVE SMOOTH",
"303 237 LINE",
"357 183 LINE SMOOTH",
"360 180 OFFCURVE",
"363 176 OFFCURVE",
"364 172 CURVE SMOOTH",
"365 168 OFFCURVE",
"366 164 OFFCURVE",
"366 160 CURVE SMOOTH",
"366 156 OFFCURVE",
"365 152 OFFCURVE",
"364 148 CURVE SMOOTH",
"363 144 OFFCURVE",
"360 140 OFFCURVE",
"357 137 CURVE SMOOTH",
"356 136 OFFCURVE",
"354 135 OFFCURVE",
"352 134 CURVE SMOOTH",
"350 133 OFFCURVE",
"348 132 OFFCURVE",
"347 131 CURVE",
"345 130 OFFCURVE",
"343 129 OFFCURVE",
"341 129 CURVE",
"339 128 OFFCURVE",
"337 128 OFFCURVE",
"335 128 CURVE SMOOTH",
"335 128 LINE SMOOTH"
);
}
);
width = 544;
}
);
unicode = E60B;
},
{
glyphname = uniE60C;
layers = (
{
layerId = "19B4AD07-3ADD-4C6B-9307-3D60BE925762";
name = Regular;
paths = (
{
closed = 1;
nodes = (
"397 434 LINE",
"394 437 OFFCURVE",
"392 440 OFFCURVE",
"389 441 CURVE SMOOTH",
"386 442 OFFCURVE",
"383 442 OFFCURVE",
"380 443 CURVE",
"376 443 OFFCURVE",
"373 442 OFFCURVE",
"370 441 CURVE",
"367 439 OFFCURVE",
"364 437 OFFCURVE",
"361 435 CURVE",
"159 185 LINE",
"87 273 LINE",
"85 276 OFFCURVE",
"82 278 OFFCURVE",
"79 280 CURVE",
"76 281 OFFCURVE",
"73 282 OFFCURVE",
"70 282 CURVE",
"67 281 OFFCURVE",
"63 281 OFFCURVE",
"60 280 CURVE SMOOTH",
"57 279 OFFCURVE",
"54 276 OFFCURVE",
"53 272 CURVE",
"7 219 LINE",
"7 217 OFFCURVE",
"6 215 OFFCURVE",
"5 214 CURVE SMOOTH",
"4 213 OFFCURVE",
"3 211 OFFCURVE",
"3 209 CURVE",
"2 207 OFFCURVE",
"2 205 OFFCURVE",
"1 204 CURVE",
"0 202 OFFCURVE",
"0 200 OFFCURVE",
"1 197 CURVE",
"0 196 OFFCURVE",
"0 194 OFFCURVE",
"1 192 CURVE",
"2 189 OFFCURVE",
"2 187 OFFCURVE",
"3 186 CURVE",
"3 184 OFFCURVE",
"4 182 OFFCURVE",
"5 180 CURVE SMOOTH",
"6 178 OFFCURVE",
"7 177 OFFCURVE",
"7 176 CURVE",
"141 12 LINE",
"142 11 OFFCURVE",
"143 10 OFFCURVE",
"145 9 CURVE",
"146 8 OFFCURVE",
"148 7 OFFCURVE",
"149 7 CURVE",
"150 6 OFFCURVE",
"152 6 OFFCURVE",
"154 5 CURVE SMOOTH",
"156 4 OFFCURVE",
"157 4 OFFCURVE",
"158 5 CURVE",
"161 4 OFFCURVE",
"163 4 OFFCURVE",
"164 5 CURVE SMOOTH",
"165 6 OFFCURVE",
"166 6 OFFCURVE",
"168 7 CURVE",
"170 7 OFFCURVE",
"172 8 OFFCURVE",
"173 9 CURVE SMOOTH",
"174 10 OFFCURVE",
"175 11 OFFCURVE",
"177 12 CURVE",
"441 337 LINE",
"442 338 OFFCURVE",
"443 340 OFFCURVE",
"444 342 CURVE",
"445 343 OFFCURVE",
"446 345 OFFCURVE",
"447 347 CURVE",
"448 348 OFFCURVE",
"448 350 OFFCURVE",
"448 353 CURVE SMOOTH",
"448 355 OFFCURVE",
"448 357 OFFCURVE",
"449 358 CURVE",
"448 361 OFFCURVE",
"448 363 OFFCURVE",
"448 365 CURVE SMOOTH",
"448 366 OFFCURVE",
"448 368 OFFCURVE",
"447 370 CURVE SMOOTH",
"446 372 OFFCURVE",
"445 374 OFFCURVE",
"444 375 CURVE SMOOTH",
"443 376 OFFCURVE",
"442 378 OFFCURVE",
"441 380 CURVE"
);
}
);
width = 448;
}
);
unicode = E60C;
},
{
glyphname = uniE60D;
layers = (
{
layerId = "19B4AD07-3ADD-4C6B-9307-3D60BE925762";
name = Regular;
paths = (
{
closed = 1;
nodes = (
"293 124 LINE SMOOTH",
"292 124 OFFCURVE",
"291 124 OFFCURVE",
"290 124 CURVE",
"289 123 OFFCURVE",
"288 123 OFFCURVE",
"288 122 CURVE",
"287 121 OFFCURVE",
"287 121 OFFCURVE",
"286 120 CURVE SMOOTH",
"285 119 OFFCURVE",
"285 117 OFFCURVE",
"286 116 CURVE",
"285 69 LINE",
"286 68 OFFCURVE",
"286 68 OFFCURVE",
"286 67 CURVE SMOOTH",
"286 66 OFFCURVE",
"287 65 OFFCURVE",
"288 64 CURVE SMOOTH",
"289 63 OFFCURVE",
"289 63 OFFCURVE",
"290 63 CURVE",
"291 62 OFFCURVE",
"292 62 OFFCURVE",
"294 62 CURVE SMOOTH",
"338 62 LINE SMOOTH",
"340 62 OFFCURVE",
"341 62 OFFCURVE",
"342 63 CURVE",
"343 63 OFFCURVE",
"344 63 OFFCURVE",
"345 64 CURVE SMOOTH",
"346 65 OFFCURVE",
"346 66 OFFCURVE",
"346 67 CURVE SMOOTH",
"346 68 OFFCURVE",
"346 68 OFFCURVE",
"347 69 CURVE",
"346 116 LINE",
"347 117 OFFCURVE",
"347 119 OFFCURVE",
"346 120 CURVE SMOOTH",
"345 121 OFFCURVE",
"345 121 OFFCURVE",
"345 122 CURVE",
"344 123 OFFCURVE",
"343 123 OFFCURVE",
"342 124 CURVE",
"341 124 OFFCURVE",
"340 124 OFFCURVE",
"339 124 CURVE SMOOTH"
);
},
{
closed = 1;
nodes = (
"248 62 LINE SMOOTH",
"249 62 OFFCURVE",
"250 62 OFFCURVE",
"251 63 CURVE",
"252 63 OFFCURVE",
"253 63 OFFCURVE",
"254 64 CURVE",
"254 65 OFFCURVE",
"254 66 OFFCURVE",
"255 67 CURVE SMOOTH",
"256 68 OFFCURVE",
"256 68 OFFCURVE",
"255 69 CURVE",
"256 116 LINE",
"255 117 OFFCURVE",
"255 119 OFFCURVE",
"255 120 CURVE SMOOTH",
"255 121 OFFCURVE",
"255 121 OFFCURVE",
"254 122 CURVE SMOOTH",
"253 123 OFFCURVE",
"252 123 OFFCURVE",
"251 124 CURVE",
"250 124 OFFCURVE",
"249 124 OFFCURVE",
"247 124 CURVE SMOOTH",
"203 124 LINE SMOOTH",
"201 124 OFFCURVE",
"200 124 OFFCURVE",
"199 124 CURVE",
"198 123 OFFCURVE",
"198 123 OFFCURVE",
"197 122 CURVE SMOOTH",
"196 121 OFFCURVE",
"195 121 OFFCURVE",
"195 120 CURVE SMOOTH",
"195 119 OFFCURVE",
"195 117 OFFCURVE",
"194 116 CURVE",
"195 69 LINE",
"194 68 OFFCURVE",
"194 68 OFFCURVE",
"195 67 CURVE SMOOTH",
"196 66 OFFCURVE",
"196 65 OFFCURVE",
"197 64 CURVE",
"197 63 OFFCURVE",
"198 63 OFFCURVE",
"199 63 CURVE",
"200 62 OFFCURVE",
"201 62 OFFCURVE",
"202 62 CURVE SMOOTH"
);
},
{
closed = 1;
nodes = (
"156 62 LINE SMOOTH",
"158 62 OFFCURVE",
"159 62 OFFCURVE",
"160 63 CURVE",
"160 63 OFFCURVE",
"161 63 OFFCURVE",
"162 64 CURVE SMOOTH",
"163 65 OFFCURVE",
"163 66 OFFCURVE",
"164 67 CURVE",
"164 68 OFFCURVE",
"164 68 OFFCURVE",
"165 69 CURVE",
"164 116 LINE",
"165 117 OFFCURVE",
"165 119 OFFCURVE",
"164 120 CURVE SMOOTH",
"163 121 OFFCURVE",
"162 121 OFFCURVE",
"162 122 CURVE",
"161 123 OFFCURVE",
"161 123 OFFCURVE",
"160 124 CURVE",
"159 124 OFFCURVE",
"158 124 OFFCURVE",
"157 124 CURVE SMOOTH",
"111 124 LINE SMOOTH",
"110 124 OFFCURVE",
"109 124 OFFCURVE",
"108 124 CURVE",
"107 123 OFFCURVE",
"106 123 OFFCURVE",
"106 122 CURVE",
"105 121 OFFCURVE",
"105 121 OFFCURVE",
"104 120 CURVE SMOOTH",
"103 119 OFFCURVE",
"103 117 OFFCURVE",
"104 116 CURVE",
"103 69 LINE",
"104 68 OFFCURVE",
"104 68 OFFCURVE",
"104 67 CURVE SMOOTH",
"104 66 OFFCURVE",
"105 65 OFFCURVE",
"106 64 CURVE SMOOTH",
"107 63 OFFCURVE",
"107 63 OFFCURVE",
"108 63 CURVE",
"109 62 OFFCURVE",
"110 62 OFFCURVE",
"112 62 CURVE SMOOTH"
);
},
{
closed = 1;
nodes = (
"347 210 OFFCURVE",
"347 212 OFFCURVE",
"346 213 CURVE SMOOTH",
"345 214 OFFCURVE",
"345 214 OFFCURVE",
"345 215 CURVE",
"344 216 OFFCURVE",
"343 216 OFFCURVE",
"342 217 CURVE",
"341 217 OFFCURVE",
"340 217 OFFCURVE",
"339 217 CURVE SMOOTH",
"293 217 LINE SMOOTH",
"292 217 OFFCURVE",
"291 217 OFFCURVE",
"290 217 CURVE",
"289 216 OFFCURVE",
"288 216 OFFCURVE",
"288 215 CURVE",
"287 214 OFFCURVE",
"287 214 OFFCURVE",
"286 213 CURVE SMOOTH",
"285 212 OFFCURVE",
"285 210 OFFCURVE",
"286 209 CURVE",
"285 163 LINE",
"286 162 OFFCURVE",
"286 161 OFFCURVE",
"286 160 CURVE SMOOTH",
"286 159 OFFCURVE",
"287 158 OFFCURVE",
"288 157 CURVE SMOOTH",
"289 156 OFFCURVE",
"289 156 OFFCURVE",
"290 156 CURVE",
"291 155 OFFCURVE",
"292 155 OFFCURVE",
"294 155 CURVE SMOOTH",
"338 155 LINE SMOOTH",
"340 155 OFFCURVE",
"341 155 OFFCURVE",
"342 156 CURVE",
"343 156 OFFCURVE",
"344 156 OFFCURVE",
"345 157 CURVE SMOOTH",
"346 158 OFFCURVE",
"346 159 OFFCURVE",
"346 160 CURVE SMOOTH",
"346 161 OFFCURVE",
"346 162 OFFCURVE",
"347 163 CURVE",
"346 209 LINE"
);
},
{
closed = 1;
nodes = (
"247 155 LINE SMOOTH",
"249 155 OFFCURVE",
"250 155 OFFCURVE",
"251 156 CURVE",
"252 156 OFFCURVE",
"253 156 OFFCURVE",
"254 157 CURVE SMOOTH",
"255 158 OFFCURVE",
"255 159 OFFCURVE",
"255 160 CURVE SMOOTH",
"255 161 OFFCURVE",
"255 162 OFFCURVE",
"256 163 CURVE",
"255 209 LINE",
"256 210 OFFCURVE",
"256 212 OFFCURVE",
"255 213 CURVE SMOOTH",
"254 214 OFFCURVE",
"254 214 OFFCURVE",
"254 215 CURVE",
"253 216 OFFCURVE",
"252 216 OFFCURVE",
"251 217 CURVE",
"250 217 OFFCURVE",
"249 217 OFFCURVE",
"248 217 CURVE SMOOTH",
"202 217 LINE SMOOTH",
"201 217 OFFCURVE",
"200 217 OFFCURVE",
"199 217 CURVE",
"198 216 OFFCURVE",
"197 216 OFFCURVE",
"197 215 CURVE",
"196 214 OFFCURVE",
"196 214 OFFCURVE",
"195 213 CURVE SMOOTH",
"194 212 OFFCURVE",
"194 210 OFFCURVE",
"195 209 CURVE",
"194 163 LINE",
"195 162 OFFCURVE",
"195 161 OFFCURVE",
"195 160 CURVE SMOOTH",
"195 159 OFFCURVE",
"196 158 OFFCURVE",
"197 157 CURVE SMOOTH",
"198 156 OFFCURVE",
"198 156 OFFCURVE",
"199 156 CURVE",
"200 155 OFFCURVE",
"201 155 OFFCURVE",
"203 155 CURVE SMOOTH"
);
},
{
closed = 1;
nodes = (
"157 155 LINE SMOOTH",
"158 155 OFFCURVE",
"159 155 OFFCURVE",
"160 156 CURVE",
"161 156 OFFCURVE",
"161 156 OFFCURVE",
"162 157 CURVE",
"162 158 OFFCURVE",
"163 159 OFFCURVE",
"164 160 CURVE SMOOTH",
"165 161 OFFCURVE",
"165 162 OFFCURVE",
"164 163 CURVE",
"165 209 LINE",
"164 210 OFFCURVE",
"164 212 OFFCURVE",
"164 213 CURVE",
"163 214 OFFCURVE",
"163 214 OFFCURVE",
"162 215 CURVE SMOOTH",
"161 216 OFFCURVE",
"160 216 OFFCURVE",
"160 217 CURVE",
"159 217 OFFCURVE",
"158 217 OFFCURVE",
"156 217 CURVE SMOOTH",
"112 217 LINE SMOOTH",
"110 217 OFFCURVE",
"109 217 OFFCURVE",
"108 217 CURVE",
"107 216 OFFCURVE",
"107 216 OFFCURVE",
"106 215 CURVE SMOOTH",
"105 214 OFFCURVE",
"104 214 OFFCURVE",
"104 213 CURVE SMOOTH",
"104 212 OFFCURVE",
"104 210 OFFCURVE",
"103 209 CURVE",
"104 163 LINE",
"103 162 OFFCURVE",
"103 161 OFFCURVE",
"104 160 CURVE SMOOTH",
"105 159 OFFCURVE",
"105 158 OFFCURVE",
"106 157 CURVE",
"106 156 OFFCURVE",
"107 156 OFFCURVE",
"108 156 CURVE",
"109 155 OFFCURVE",
"110 155 OFFCURVE",
"111 155 CURVE SMOOTH"
);
},
{
closed = 1;
nodes = (
"285 256 LINE",
"286 255 OFFCURVE",
"286 254 OFFCURVE",
"286 253 CURVE SMOOTH",
"286 252 OFFCURVE",
"287 252 OFFCURVE",
"288 251 CURVE SMOOTH",
"289 250 OFFCURVE",
"289 249 OFFCURVE",
"290 249 CURVE",
"291 248 OFFCURVE",
"292 248 OFFCURVE",
"294 248 CURVE SMOOTH",
"338 248 LINE SMOOTH",
"340 248 OFFCURVE",
"341 248 OFFCURVE",
"342 249 CURVE",
"343 249 OFFCURVE",
"344 250 OFFCURVE",
"345 251 CURVE SMOOTH",
"346 252 OFFCURVE",
"346 252 OFFCURVE",
"346 253 CURVE SMOOTH",
"346 254 OFFCURVE",
"346 255 OFFCURVE",
"347 256 CURVE",
"346 303 LINE",
"347 304 OFFCURVE",
"347 305 OFFCURVE",
"346 306 CURVE SMOOTH",
"345 307 OFFCURVE",
"345 307 OFFCURVE",
"345 308 CURVE",
"344 309 OFFCURVE",
"343 309 OFFCURVE",
"342 310 CURVE",
"341 310 OFFCURVE",
"340 310 OFFCURVE",
"339 310 CURVE SMOOTH",
"293 310 LINE SMOOTH",
"292 310 OFFCURVE",
"291 310 OFFCURVE",
"290 310 CURVE",
"289 309 OFFCURVE",
"288 309 OFFCURVE",
"288 308 CURVE",
"287 307 OFFCURVE",
"287 307 OFFCURVE",
"286 306 CURVE SMOOTH",
"285 305 OFFCURVE",
"285 304 OFFCURVE",
"286 303 CURVE"
);
},
{
closed = 1;
nodes = (
"248 248 LINE SMOOTH",
"249 248 OFFCURVE",
"250 248 OFFCURVE",
"251 249 CURVE",
"252 249 OFFCURVE",
"253 250 OFFCURVE",
"254 251 CURVE",
"254 252 OFFCURVE",
"254 252 OFFCURVE",
"255 253 CURVE SMOOTH",
"256 254 OFFCURVE",
"256 255 OFFCURVE",
"255 256 CURVE",
"256 303 LINE",
"255 304 OFFCURVE",
"255 305 OFFCURVE",
"255 306 CURVE SMOOTH",
"255 307 OFFCURVE",
"255 307 OFFCURVE",
"254 308 CURVE SMOOTH",
"253 309 OFFCURVE",
"252 309 OFFCURVE",
"251 310 CURVE",
"250 310 OFFCURVE",
"249 310 OFFCURVE",
"247 310 CURVE SMOOTH",
"203 310 LINE SMOOTH",
"201 310 OFFCURVE",
"200 310 OFFCURVE",
"199 310 CURVE",
"198 309 OFFCURVE",
"198 309 OFFCURVE",
"197 308 CURVE SMOOTH",
"196 307 OFFCURVE",
"195 307 OFFCURVE",
"195 306 CURVE SMOOTH",
"195 305 OFFCURVE",
"195 304 OFFCURVE",
"194 303 CURVE",
"195 256 LINE",
"194 255 OFFCURVE",
"194 254 OFFCURVE",
"195 253 CURVE SMOOTH",
"196 252 OFFCURVE",
"196 252 OFFCURVE",
"197 251 CURVE",
"197 250 OFFCURVE",
"198 249 OFFCURVE",
"199 249 CURVE",
"200 248 OFFCURVE",
"201 248 OFFCURVE",
"202 248 CURVE SMOOTH"
);
},
{
closed = 1;
nodes = (
"156 248 LINE SMOOTH",
"158 248 OFFCURVE",
"159 248 OFFCURVE",
"160 249 CURVE",
"160 249 OFFCURVE",
"161 250 OFFCURVE",
"162 251 CURVE SMOOTH",
"163 252 OFFCURVE",
"163 252 OFFCURVE",
"164 253 CURVE",
"164 254 OFFCURVE",
"164 255 OFFCURVE",
"165 256 CURVE",
"164 303 LINE",
"165 304 OFFCURVE",
"165 305 OFFCURVE",
"164 306 CURVE SMOOTH",
"163 307 OFFCURVE",
"162 307 OFFCURVE",
"162 308 CURVE",
"161 309 OFFCURVE",
"161 309 OFFCURVE",
"160 310 CURVE",
"159 310 OFFCURVE",
"158 310 OFFCURVE",
"157 310 CURVE SMOOTH",
"111 310 LINE SMOOTH",
"110 310 OFFCURVE",
"109 310 OFFCURVE",
"108 310 CURVE",
"107 309 OFFCURVE",
"106 309 OFFCURVE",
"106 308 CURVE",
"105 307 OFFCURVE",
"105 307 OFFCURVE",
"104 306 CURVE SMOOTH",
"103 305 OFFCURVE",
"103 304 OFFCURVE",
"104 303 CURVE",
"103 256 LINE",
"104 255 OFFCURVE",
"104 254 OFFCURVE",
"104 253 CURVE SMOOTH",
"104 252 OFFCURVE",
"105 252 OFFCURVE",
"106 251 CURVE SMOOTH",
"107 250 OFFCURVE",
"107 249 OFFCURVE",
"108 249 CURVE",
"109 248 OFFCURVE",
"110 248 OFFCURVE",
"112 248 CURVE SMOOTH"
);
},
{
closed = 1;
nodes = (
"351 423 LINE",
"350 385 LINE",
"358 385 LINE SMOOTH",
"362 385 OFFCURVE",
"366 384 OFFCURVE",
"370 383 CURVE",
"374 381 OFFCURVE",
"377 379 OFFCURVE",
"380 376 CURVE SMOOTH",
"383 373 OFFCURVE",
"385 369 OFFCURVE",
"387 365 CURVE SMOOTH",
"389 361 OFFCURVE",
"390 357 OFFCURVE",
"389 352 CURVE",
"390 49 LINE",
"389 44 OFFCURVE",
"388 40 OFFCURVE",
"387 36 CURVE SMOOTH",
"386 32 OFFCURVE",
"383 29 OFFCURVE",
"380 26 CURVE SMOOTH",
"377 23 OFFCURVE",
"373 21 OFFCURVE",
"370 19 CURVE SMOOTH",
"367 17 OFFCURVE",
"362 16 OFFCURVE",
"357 16 CURVE SMOOTH",
"90 16 LINE SMOOTH",
"85 16 OFFCURVE",
"80 17 OFFCURVE",
"77 19 CURVE SMOOTH",
"74 21 OFFCURVE",
"70 23 OFFCURVE",
"67 26 CURVE SMOOTH",
"64 29 OFFCURVE",
"61 32 OFFCURVE",
"60 36 CURVE SMOOTH",
"59 40 OFFCURVE",
"58 44 OFFCURVE",
"57 49 CURVE",
"58 352 LINE",
"57 357 OFFCURVE",
"58 361 OFFCURVE",
"60 365 CURVE SMOOTH",
"62 369 OFFCURVE",
"64 373 OFFCURVE",
"67 376 CURVE SMOOTH",
"70 379 OFFCURVE",
"73 381 OFFCURVE",
"77 383 CURVE",
"81 384 OFFCURVE",
"85 385 OFFCURVE",
"89 385 CURVE SMOOTH",
"94 385 LINE",
"93 423 LINE",
"77 423 LINE SMOOTH",
"68 423 OFFCURVE",
"61 422 OFFCURVE",
"55 419 CURVE",
"48 416 OFFCURVE",
"42 412 OFFCURVE",
"37 407 CURVE",
"31 402 OFFCURVE",
"27 395 OFFCURVE",
"24 388 CURVE SMOOTH",
"21 381 OFFCURVE",
"20 373 OFFCURVE",
"19 365 CURVE",
"20 26 LINE",
"19 18 OFFCURVE",
"21 11 OFFCURVE",
"24 4 CURVE SMOOTH",
"27 -3 OFFCURVE",
"32 -10 OFFCURVE",
"37 -15 CURVE SMOOTH",
"42 -20 OFFCURVE",
"48 -24 OFFCURVE",
"55 -27 CURVE SMOOTH",
"62 -30 OFFCURVE",
"69 -32 OFFCURVE",
"76 -32 CURVE SMOOTH",
"371 -32 LINE SMOOTH",
"378 -32 OFFCURVE",
"386 -30 OFFCURVE",
"393 -27 CURVE SMOOTH",
"400 -24 OFFCURVE",
"406 -20 OFFCURVE",
"411 -15 CURVE SMOOTH",
"416 -10 OFFCURVE",
"420 -3 OFFCURVE",
"423 4 CURVE SMOOTH",
"426 11 OFFCURVE",
"428 18 OFFCURVE",
"427 26 CURVE",
"428 365 LINE",
"427 373 OFFCURVE",
"426 381 OFFCURVE",
"423 388 CURVE SMOOTH",
"420 395 OFFCURVE",
"416 402 OFFCURVE",
"411 407 CURVE",
"405 412 OFFCURVE",
"399 416 OFFCURVE",
"393 419 CURVE",
"386 422 OFFCURVE",
"379 423 OFFCURVE",
"370 423 CURVE SMOOTH"
);
},
{
closed = 1;
nodes = (
"198 423 LINE",
"199 385 LINE",
"245 385 LINE",
"246 423 LINE"
);
},
{
closed = 1;
nodes = (
"314 340 LINE SMOOTH",
"315 340 OFFCURVE",
"316 340 OFFCURVE",
"317 341 CURVE",
"318 341 OFFCURVE",
"319 341 OFFCURVE",
"320 342 CURVE",
"320 343 OFFCURVE",
"320 343 OFFCURVE",
"321 344 CURVE SMOOTH",
"322 345 OFFCURVE",
"322 346 OFFCURVE",
"321 347 CURVE",
"322 474 LINE",
"321 475 OFFCURVE",
"321 475 OFFCURVE",
"321 476 CURVE SMOOTH",
"321 477 OFFCURVE",
"321 477 OFFCURVE",
"320 478 CURVE SMOOTH",
"319 479 OFFCURVE",
"318 479 OFFCURVE",
"317 480 CURVE",
"316 480 OFFCURVE",
"315 480 OFFCURVE",
"313 480 CURVE SMOOTH",
"282 480 LINE SMOOTH",
"281 480 OFFCURVE",
"280 480 OFFCURVE",
"279 480 CURVE",
"278 479 OFFCURVE",
"278 479 OFFCURVE",
"277 478 CURVE SMOOTH",
"276 477 OFFCURVE",
"275 477 OFFCURVE",
"275 476 CURVE",
"274 475 OFFCURVE",
"274 475 OFFCURVE",
"273 474 CURVE",
"274 347 LINE",
"273 346 OFFCURVE",
"274 345 OFFCURVE",
"275 344 CURVE SMOOTH",
"276 343 OFFCURVE",
"276 343 OFFCURVE",
"277 342 CURVE",
"277 341 OFFCURVE",
"278 341 OFFCURVE",
"279 341 CURVE",
"280 340 OFFCURVE",
"281 340 OFFCURVE",
"281 340 CURVE"
);
},
{
closed = 1;
nodes = (
"162 340 LINE SMOOTH",
"163 340 OFFCURVE",
"164 340 OFFCURVE",
"165 341 CURVE",
"166 341 OFFCURVE",
"167 341 OFFCURVE",
"168 342 CURVE SMOOTH",
"169 343 OFFCURVE",
"169 343 OFFCURVE",
"170 344 CURVE",
"170 345 OFFCURVE",
"170 346 OFFCURVE",
"171 347 CURVE",
"170 474 LINE",
"171 475 OFFCURVE",
"171 475 OFFCURVE",
"170 476 CURVE SMOOTH",
"169 477 OFFCURVE",
"168 477 OFFCURVE",
"168 478 CURVE",
"167 479 OFFCURVE",
"166 479 OFFCURVE",
"165 480 CURVE",
"164 480 OFFCURVE",
"163 480 OFFCURVE",
"163 480 CURVE SMOOTH",
"130 480 LINE SMOOTH",
"129 480 OFFCURVE",
"128 480 OFFCURVE",
"127 480 CURVE",
"126 479 OFFCURVE",
"125 479 OFFCURVE",
"125 478 CURVE",
"124 477 OFFCURVE",
"124 477 OFFCURVE",
"123 476 CURVE SMOOTH",
"122 475 OFFCURVE",
"122 475 OFFCURVE",
"123 474 CURVE",
"122 347 LINE",
"123 346 OFFCURVE",
"123 345 OFFCURVE",
"123 344 CURVE SMOOTH",
"123 343 OFFCURVE",
"124 343 OFFCURVE",
"125 342 CURVE SMOOTH",
"126 341 OFFCURVE",
"126 341 OFFCURVE",
"127 341 CURVE",
"128 340 OFFCURVE",
"129 340 OFFCURVE",
"131 340 CURVE SMOOTH"
);
}
);
width = 448;
}
);
unicode = E60D;
},
{
glyphname = uniE60E;
layers = (
{
layerId = "19B4AD07-3ADD-4C6B-9307-3D60BE925762";
name = Regular;
paths = (
{
closed = 1;
nodes = (
"0 -32 LINE",
"320 -32 LINE",
"320 96 LINE",
"0 96 LINE"
);
},
{
closed = 1;
nodes = (
"0 160 LINE",
"576 160 LINE",
"576 288 LINE",
"0 288 LINE"
);
},
{
closed = 1;
nodes = (
"0 352 LINE",
"832 352 LINE",
"832 480 LINE",
"0 480 LINE"
);
}
);
width = 832;
}
);
unicode = E60E;
},
{
glyphname = uniE60F;
layers = (
{
layerId = "19B4AD07-3ADD-4C6B-9307-3D60BE925762";
name = Regular;
paths = (
{
closed = 1;
nodes = (
"96 475 LINE SMOOTH",
"94 477 OFFCURVE",
"92 478 OFFCURVE",
"91 479 CURVE",
"89 480 OFFCURVE",
"87 480 OFFCURVE",
"85 480 CURVE SMOOTH",
"82 480 OFFCURVE",
"80 480 OFFCURVE",
"79 479 CURVE",
"77 478 OFFCURVE",
"75 477 OFFCURVE",
"72 475 CURVE",
"6 408 LINE",
"3 406 OFFCURVE",
"2 404 OFFCURVE",
"2 402 CURVE",
"1 400 OFFCURVE",
"1 398 OFFCURVE",
"1 396 CURVE",
"0 394 OFFCURVE",
"1 392 OFFCURVE",
"2 390 CURVE SMOOTH",
"3 388 OFFCURVE",
"4 386 OFFCURVE",
"5 385 CURVE SMOOTH",
"166 224 LINE",
"5 63 LINE SMOOTH",
"4 62 OFFCURVE",
"3 60 OFFCURVE",
"2 58 CURVE SMOOTH",
"1 56 OFFCURVE",
"0 54 OFFCURVE",
"1 52 CURVE",
"1 50 OFFCURVE",
"1 48 OFFCURVE",
"2 46 CURVE",
"2 44 OFFCURVE",
"3 42 OFFCURVE",
"6 40 CURVE",
"73 -27 LINE SMOOTH",
"75 -29 OFFCURVE",
"77 -30 OFFCURVE",
"79 -31 CURVE",
"80 -32 OFFCURVE",
"82 -32 OFFCURVE",
"85 -32 CURVE SMOOTH",
"87 -32 OFFCURVE",
"89 -32 OFFCURVE",
"91 -31 CURVE",
"92 -30 OFFCURVE",
"94 -29 OFFCURVE",
"96 -27 CURVE SMOOTH",
"347 224 LINE"
);
}
);
width = 384;
}
);
unicode = E60F;
},
{
glyphname = uniE610;
layers = (
{
layerId = "19B4AD07-3ADD-4C6B-9307-3D60BE925762";
name = Regular;
paths = (
{
closed = 1;
nodes = (
"251 475 LINE SMOOTH",
"253 477 OFFCURVE",
"255 478 OFFCURVE",
"257 479 CURVE SMOOTH",
"259 480 OFFCURVE",
"261 480 OFFCURVE",
"263 480 CURVE SMOOTH",
"265 480 OFFCURVE",
"267 480 OFFCURVE",
"269 479 CURVE SMOOTH",
"271 478 OFFCURVE",
"273 477 OFFCURVE",
"274 475 CURVE",
"342 408 LINE",
"343 406 OFFCURVE",
"345 404 OFFCURVE",
"346 402 CURVE SMOOTH",
"347 400 OFFCURVE",
"347 398 OFFCURVE",
"347 396 CURVE SMOOTH",
"347 394 OFFCURVE",
"347 392 OFFCURVE",
"346 390 CURVE SMOOTH",
"345 388 OFFCURVE",
"343 386 OFFCURVE",
"342 385 CURVE SMOOTH",
"181 224 LINE",
"342 63 LINE SMOOTH",
"343 62 OFFCURVE",
"345 60 OFFCURVE",
"346 58 CURVE SMOOTH",
"347 56 OFFCURVE",
"347 54 OFFCURVE",
"347 52 CURVE SMOOTH",
"347 50 OFFCURVE",
"347 48 OFFCURVE",
"346 46 CURVE SMOOTH",
"345 44 OFFCURVE",
"343 42 OFFCURVE",
"342 40 CURVE",
"274 -27 LINE",
"273 -29 OFFCURVE",
"271 -30 OFFCURVE",
"269 -31 CURVE SMOOTH",
"267 -32 OFFCURVE",
"265 -32 OFFCURVE",
"263 -32 CURVE SMOOTH",
"261 -32 OFFCURVE",
"259 -32 OFFCURVE",
"257 -31 CURVE SMOOTH",
"255 -30 OFFCURVE",
"253 -29 OFFCURVE",
"251 -27 CURVE SMOOTH",
"0 224 LINE"
);
}
);
width = 384;
}
);
unicode = E610;
},
{
glyphname = uniE611;
layers = (
{
layerId = "19B4AD07-3ADD-4C6B-9307-3D60BE925762";
name = Regular;
paths = (
{
closed = 1;
nodes = (
"221 480 OFFCURVE",
"188 473 OFFCURVE",
"157 460 CURVE SMOOTH",
"126 447 OFFCURVE",
"98 428 OFFCURVE",
"75 405 CURVE SMOOTH",
"52 382 OFFCURVE",
"33 355 OFFCURVE",
"20 324 CURVE SMOOTH",
"7 293 OFFCURVE",
"0 259 OFFCURVE",
"0 224 CURVE SMOOTH",
"0 189 OFFCURVE",
"7 156 OFFCURVE",
"20 125 CURVE SMOOTH",
"33 94 OFFCURVE",
"52 66 OFFCURVE",
"75 43 CURVE SMOOTH",
"98 20 OFFCURVE",
"126 1 OFFCURVE",
"157 -12 CURVE SMOOTH",
"188 -25 OFFCURVE",
"221 -32 OFFCURVE",
"256 -32 CURVE SMOOTH",
"291 -32 OFFCURVE",
"325 -25 OFFCURVE",
"356 -12 CURVE SMOOTH",
"387 1 OFFCURVE",
"414 20 OFFCURVE",
"437 43 CURVE SMOOTH",
"460 66 OFFCURVE",
"479 94 OFFCURVE",
"492 125 CURVE SMOOTH",
"505 156 OFFCURVE",
"512 189 OFFCURVE",
"512 224 CURVE SMOOTH",
"512 259 OFFCURVE",
"505 293 OFFCURVE",
"492 324 CURVE SMOOTH",
"479 355 OFFCURVE",
"460 382 OFFCURVE",
"437 405 CURVE SMOOTH",
"414 428 OFFCURVE",
"387 447 OFFCURVE",
"356 460 CURVE SMOOTH",
"325 473 OFFCURVE",
"291 480 OFFCURVE",
"256 480 CURVE SMOOTH"
);
},
{
closed = 1;
nodes = (
"229 24 OFFCURVE",
"203 29 OFFCURVE",
"179 40 CURVE",
"154 50 OFFCURVE",
"133 64 OFFCURVE",
"115 83 CURVE",
"96 101 OFFCURVE",
"82 122 OFFCURVE",
"72 147 CURVE",
"61 171 OFFCURVE",
"56 197 OFFCURVE",
"56 224 CURVE SMOOTH",
"56 251 OFFCURVE",
"61 277 OFFCURVE",
"72 302 CURVE SMOOTH",
"82 326 OFFCURVE",
"96 347 OFFCURVE",
"115 366 CURVE SMOOTH",
"133 384 OFFCURVE",
"154 398 OFFCURVE",
"179 409 CURVE SMOOTH",
"203 419 OFFCURVE",
"229 424 OFFCURVE",
"256 424 CURVE SMOOTH",
"283 424 OFFCURVE",
"309 419 OFFCURVE",
"334 409 CURVE",
"358 398 OFFCURVE",
"379 384 OFFCURVE",
"398 366 CURVE",
"416 347 OFFCURVE",
"430 326 OFFCURVE",
"441 302 CURVE",
"451 277 OFFCURVE",
"456 251 OFFCURVE",
"456 224 CURVE SMOOTH",
"456 197 OFFCURVE",
"451 171 OFFCURVE",
"441 147 CURVE SMOOTH",
"430 122 OFFCURVE",
"416 101 OFFCURVE",
"398 83 CURVE SMOOTH",
"379 64 OFFCURVE",
"358 50 OFFCURVE",
"334 40 CURVE SMOOTH",
"309 29 OFFCURVE",
"283 24 OFFCURVE",
"256 24 CURVE SMOOTH"
);
},
{
closed = 1;
nodes = (
"347 199 OFFCURVE",
"351 200 OFFCURVE",
"354 201 CURVE SMOOTH",
"357 202 OFFCURVE",
"360 204 OFFCURVE",
"363 207 CURVE SMOOTH",
"365 209 OFFCURVE",
"367 212 OFFCURVE",
"368 215 CURVE SMOOTH",
"369 218 OFFCURVE",
"370 222 OFFCURVE",
"370 225 CURVE SMOOTH",
"370 228 OFFCURVE",
"369 232 OFFCURVE",
"368 235 CURVE SMOOTH",
"367 238 OFFCURVE",
"365 241 OFFCURVE",
"363 244 CURVE",
"360 246 OFFCURVE",
"357 248 OFFCURVE",
"354 249 CURVE SMOOTH",
"351 250 OFFCURVE",
"347 251 OFFCURVE",
"344 251 CURVE SMOOTH",
"282 251 LINE",
"282 313 LINE SMOOTH",
"282 316 OFFCURVE",
"281 320 OFFCURVE",
"280 323 CURVE SMOOTH",
"279 326 OFFCURVE",
"277 328 OFFCURVE",
"275 331 CURVE",
"272 333 OFFCURVE",
"269 335 OFFCURVE",
"266 336 CURVE SMOOTH",
"263 337 OFFCURVE",
"259 338 OFFCURVE",
"256 338 CURVE SMOOTH",
"253 338 OFFCURVE",
"249 337 OFFCURVE",
"246 336 CURVE SMOOTH",
"243 335 OFFCURVE",
"240 333 OFFCURVE",
"238 331 CURVE SMOOTH",
"235 328 OFFCURVE",
"233 326 OFFCURVE",
"232 323 CURVE SMOOTH",
"231 320 OFFCURVE",
"230 316 OFFCURVE",
"230 313 CURVE SMOOTH",
"230 251 LINE",
"168 251 LINE SMOOTH",
"165 251 OFFCURVE",
"161 250 OFFCURVE",
"158 249 CURVE SMOOTH",
"155 248 OFFCURVE",
"152 246 OFFCURVE",
"150 244 CURVE SMOOTH",
"147 241 OFFCURVE",
"145 238 OFFCURVE",
"144 235 CURVE SMOOTH",
"143 232 OFFCURVE",
"142 228 OFFCURVE",
"142 225 CURVE SMOOTH",
"142 222 OFFCURVE",
"143 218 OFFCURVE",
"144 215 CURVE SMOOTH",
"145 212 OFFCURVE",
"147 209 OFFCURVE",
"150 207 CURVE",
"152 204 OFFCURVE",
"155 202 OFFCURVE",
"158 201 CURVE SMOOTH",
"161 200 OFFCURVE",
"165 199 OFFCURVE",
"168 199 CURVE SMOOTH",
"230 199 LINE",
"230 137 LINE SMOOTH",
"230 134 OFFCURVE",
"231 131 OFFCURVE",
"232 128 CURVE SMOOTH",
"233 125 OFFCURVE",
"235 122 OFFCURVE",
"238 120 CURVE",
"240 117 OFFCURVE",
"243 115 OFFCURVE",
"246 114 CURVE SMOOTH",
"249 113 OFFCURVE",
"253 112 OFFCURVE",
"256 112 CURVE SMOOTH",
"259 112 OFFCURVE",
"263 113 OFFCURVE",
"266 114 CURVE SMOOTH",
"269 115 OFFCURVE",
"272 117 OFFCURVE",
"275 120 CURVE SMOOTH",
"277 122 OFFCURVE",
"279 125 OFFCURVE",
"280 128 CURVE SMOOTH",
"281 131 OFFCURVE",
"282 134 OFFCURVE",
"282 137 CURVE SMOOTH",
"282 199 LINE",
"344 199 LINE SMOOTH"
);
}
);
width = 512;
}
);
unicode = E611;
},
{
glyphname = uniE612;
layers = (
{
layerId = "19B4AD07-3ADD-4C6B-9307-3D60BE925762";
name = Regular;
paths = (
{
closed = 1;
nodes = (
"0 256 LINE",
"32 256 LINE",
"32 224 LINE",
"64 224 LINE",
"64 192 LINE",
"96 192 LINE",
"96 160 LINE",
"128 160 LINE",
"128 192 LINE",
"160 192 LINE",
"160 224 LINE",
"192 224 LINE",
"192 256 LINE",
"224 256 LINE",
"224 288 LINE",
"0 288 LINE"
);
}
);
width = 224;
}
);
unicode = E612;
},
{
glyphname = uniE613;
layers = (
{
layerId = "19B4AD07-3ADD-4C6B-9307-3D60BE925762";
name = Regular;
paths = (
{
closed = 1;
nodes = (
"112 82 LINE",
"111 119 LINE",
"337 119 LINE",
"336 82 LINE"
);
},
{
closed = 1;
nodes = (
"111 151 LINE",
"112 188 LINE",
"336 188 LINE",
"337 151 LINE"
);
},
{
closed = 1;
nodes = (
"112 220 LINE",
"111 257 LINE",
"337 257 LINE",
"336 220 LINE"
);
},
{
closed = 1;
nodes = (
"280 324 LINE",
"396 324 LINE",
"395 18 LINE",
"54 18 LINE",
"53 430 LINE",
"281 430 LINE"
);
},
{
closed = 1;
nodes = (
"313 480 LINE",
"1 480 LINE",
"0 -32 LINE",
"449 -32 LINE",
"448 355 LINE",
"314 480 LINE"
);
}
);
width = 448;
}
);
unicode = E613;
},
{
glyphname = uniE614;
layers = (
{
layerId = "19B4AD07-3ADD-4C6B-9307-3D60BE925762";
name = Regular;
paths = (
{
closed = 1;
nodes = (
"412 430 OFFCURVE",
"384 448 OFFCURVE",
"353 461 CURVE SMOOTH",
"321 474 OFFCURVE",
"289 480 OFFCURVE",
"256 480 CURVE SMOOTH",
"223 479 OFFCURVE",
"191 473 OFFCURVE",
"160 461 CURVE SMOOTH",
"128 449 OFFCURVE",
"100 430 OFFCURVE",
"75 404 CURVE",
"50 380 OFFCURVE",
"31 352 OFFCURVE",
"19 320 CURVE SMOOTH",
"6 288 OFFCURVE",
"0 256 OFFCURVE",
"0 224 CURVE SMOOTH",
"0 191 OFFCURVE",
"6 159 OFFCURVE",
"19 127 CURVE SMOOTH",
"31 95 OFFCURVE",
"50 67 OFFCURVE",
"75 43 CURVE",
"100 17 OFFCURVE",
"128 -2 OFFCURVE",
"160 -14 CURVE SMOOTH",
"191 -26 OFFCURVE",
"223 -32 OFFCURVE",
"256 -32 CURVE SMOOTH",
"289 -33 OFFCURVE",
"321 -27 OFFCURVE",
"353 -14 CURVE SMOOTH",
"384 -1 OFFCURVE",
"412 17 OFFCURVE",
"437 42 CURVE SMOOTH",
"462 67 OFFCURVE",
"481 96 OFFCURVE",
"494 127 CURVE SMOOTH",
"506 158 OFFCURVE",
"512 191 OFFCURVE",
"512 224 CURVE SMOOTH",
"512 257 OFFCURVE",
"506 289 OFFCURVE",
"494 320 CURVE SMOOTH",
"481 351 OFFCURVE",
"462 380 OFFCURVE",
"437 405 CURVE SMOOTH"
);
},
{
closed = 1;
nodes = (
"95 102 OFFCURVE",
"80 124 OFFCURVE",
"71 149 CURVE",
"61 173 OFFCURVE",
"56 198 OFFCURVE",
"56 224 CURVE SMOOTH",
"56 249 OFFCURVE",
"61 274 OFFCURVE",
"71 299 CURVE SMOOTH",
"80 323 OFFCURVE",
"95 345 OFFCURVE",
"115 365 CURVE SMOOTH",
"134 384 OFFCURVE",
"156 399 OFFCURVE",
"181 409 CURVE SMOOTH",
"206 419 OFFCURVE",
"231 424 OFFCURVE",
"256 424 CURVE",
"281 423 OFFCURVE",
"306 418 OFFCURVE",
"331 409 CURVE SMOOTH",
"356 400 OFFCURVE",
"378 385 OFFCURVE",
"397 364 CURVE",
"417 345 OFFCURVE",
"432 324 OFFCURVE",
"442 299 CURVE",
"451 274 OFFCURVE",
"456 249 OFFCURVE",
"456 224 CURVE SMOOTH",
"456 199 OFFCURVE",
"451 174 OFFCURVE",
"442 149 CURVE",
"432 124 OFFCURVE",
"417 102 OFFCURVE",
"397 83 CURVE",
"378 62 OFFCURVE",
"356 47 OFFCURVE",
"331 38 CURVE SMOOTH",
"306 29 OFFCURVE",
"281 24 OFFCURVE",
"256 24 CURVE",
"231 23 OFFCURVE",
"206 28 OFFCURVE",
"181 38 CURVE SMOOTH",
"156 48 OFFCURVE",
"134 63 OFFCURVE",
"115 82 CURVE SMOOTH"
);
},
{
closed = 1;
nodes = (
"304 141 OFFCURVE",
"307 140 OFFCURVE",
"310 139 CURVE SMOOTH",
"313 138 OFFCURVE",
"316 137 OFFCURVE",
"319 137 CURVE",
"322 136 OFFCURVE",
"326 137 OFFCURVE",
"329 139 CURVE",
"332 140 OFFCURVE",
"334 142 OFFCURVE",
"337 143 CURVE",
"340 146 OFFCURVE",
"342 149 OFFCURVE",
"343 152 CURVE SMOOTH",
"344 155 OFFCURVE",
"345 158 OFFCURVE",
"345 162 CURVE SMOOTH",
"345 165 OFFCURVE",
"344 169 OFFCURVE",
"343 172 CURVE SMOOTH",
"342 175 OFFCURVE",
"340 178 OFFCURVE",
"337 181 CURVE SMOOTH",
"293 224 LINE",
"337 269 LINE",
"340 270 OFFCURVE",
"342 273 OFFCURVE",
"343 277 CURVE",
"344 280 OFFCURVE",
"344 284 OFFCURVE",
"344 287 CURVE SMOOTH",
"344 290 OFFCURVE",
"344 293 OFFCURVE",
"343 296 CURVE SMOOTH",
"342 299 OFFCURVE",
"340 302 OFFCURVE",
"337 304 CURVE",
"334 307 OFFCURVE",
"332 309 OFFCURVE",
"329 310 CURVE SMOOTH",
"326 311 OFFCURVE",
"322 311 OFFCURVE",
"319 312 CURVE",
"316 312 OFFCURVE",
"312 311 OFFCURVE",
"309 310 CURVE SMOOTH",
"306 309 OFFCURVE",
"303 307 OFFCURVE",
"301 305 CURVE SMOOTH",
"257 260 LINE",
"213 305 LINE",
"210 307 OFFCURVE",
"207 309 OFFCURVE",
"204 311 CURVE",
"201 312 OFFCURVE",
"197 313 OFFCURVE",
"194 313 CURVE",
"191 312 OFFCURVE",
"188 312 OFFCURVE",
"185 311 CURVE SMOOTH",
"182 310 OFFCURVE",
"179 307 OFFCURVE",
"176 304 CURVE SMOOTH",
"174 302 OFFCURVE",
"172 299 OFFCURVE",
"171 296 CURVE SMOOTH",
"170 293 OFFCURVE",
"169 290 OFFCURVE",
"169 287 CURVE SMOOTH",
"169 284 OFFCURVE",
"170 280 OFFCURVE",
"171 277 CURVE SMOOTH",
"172 274 OFFCURVE",
"174 271 OFFCURVE",
"176 269 CURVE SMOOTH",
"220 224 LINE",
"177 181 LINE SMOOTH",
"174 178 OFFCURVE",
"172 175 OFFCURVE",
"171 172 CURVE SMOOTH",
"170 169 OFFCURVE",
"169 166 OFFCURVE",
"169 163 CURVE SMOOTH",
"169 159 OFFCURVE",
"170 156 OFFCURVE",
"171 153 CURVE SMOOTH",
"172 150 OFFCURVE",
"174 147 OFFCURVE",
"177 144 CURVE SMOOTH",
"179 142 OFFCURVE",
"182 140 OFFCURVE",
"185 139 CURVE",
"188 137 OFFCURVE",
"192 136 OFFCURVE",
"195 137 CURVE",
"198 137 OFFCURVE",
"202 138 OFFCURVE",
"205 139 CURVE SMOOTH",
"208 140 OFFCURVE",
"210 142 OFFCURVE",
"213 145 CURVE SMOOTH",
"257 187 LINE",
"301 144 LINE SMOOTH"
);
}
);
width = 512;
}
);
unicode = E614;
},
{
glyphname = uniE615;
layers = (
{
layerId = "19B4AD07-3ADD-4C6B-9307-3D60BE925762";
name = Regular;
paths = (
{
closed = 1;
nodes = (
"221 480 OFFCURVE",
"188 473 OFFCURVE",
"157 460 CURVE SMOOTH",
"126 447 OFFCURVE",
"98 428 OFFCURVE",
"75 405 CURVE SMOOTH",
"52 382 OFFCURVE",
"33 355 OFFCURVE",
"20 324 CURVE SMOOTH",
"7 293 OFFCURVE",
"0 259 OFFCURVE",
"0 224 CURVE SMOOTH",
"0 189 OFFCURVE",
"7 156 OFFCURVE",
"20 125 CURVE SMOOTH",
"33 94 OFFCURVE",
"52 66 OFFCURVE",
"75 43 CURVE SMOOTH",
"98 20 OFFCURVE",
"126 1 OFFCURVE",
"157 -12 CURVE SMOOTH",
"188 -25 OFFCURVE",
"221 -32 OFFCURVE",
"256 -32 CURVE SMOOTH",
"291 -32 OFFCURVE",
"325 -25 OFFCURVE",
"356 -12 CURVE SMOOTH",
"387 1 OFFCURVE",
"414 20 OFFCURVE",
"437 43 CURVE SMOOTH",
"460 66 OFFCURVE",
"479 94 OFFCURVE",
"492 125 CURVE SMOOTH",
"505 156 OFFCURVE",
"512 189 OFFCURVE",
"512 224 CURVE SMOOTH",
"512 259 OFFCURVE",
"505 293 OFFCURVE",
"492 324 CURVE SMOOTH",
"479 355 OFFCURVE",
"460 382 OFFCURVE",
"437 405 CURVE SMOOTH",
"414 428 OFFCURVE",
"387 447 OFFCURVE",
"356 460 CURVE SMOOTH",
"325 473 OFFCURVE",
"291 480 OFFCURVE",
"256 480 CURVE SMOOTH"
);
},
{
closed = 1;
nodes = (
"252 47 OFFCURVE",
"247 48 OFFCURVE",
"243 50 CURVE",
"238 52 OFFCURVE",
"234 55 OFFCURVE",
"231 58 CURVE SMOOTH",
"228 61 OFFCURVE",
"225 65 OFFCURVE",
"223 70 CURVE",
"221 74 OFFCURVE",
"220 78 OFFCURVE",
"220 83 CURVE SMOOTH",
"220 88 OFFCURVE",
"221 93 OFFCURVE",
"223 98 CURVE",
"225 102 OFFCURVE",
"228 106 OFFCURVE",
"231 109 CURVE SMOOTH",
"234 112 OFFCURVE",
"238 115 OFFCURVE",
"243 117 CURVE",
"247 119 OFFCURVE",
"252 120 OFFCURVE",
"257 120 CURVE SMOOTH",
"262 120 OFFCURVE",
"266 119 OFFCURVE",
"271 117 CURVE",
"275 115 OFFCURVE",
"279 112 OFFCURVE",
"282 109 CURVE SMOOTH",
"285 106 OFFCURVE",
"288 102 OFFCURVE",
"290 98 CURVE",
"292 93 OFFCURVE",
"293 88 OFFCURVE",
"293 83 CURVE SMOOTH",
"293 78 OFFCURVE",
"292 74 OFFCURVE",
"290 70 CURVE",
"288 65 OFFCURVE",
"285 61 OFFCURVE",
"282 58 CURVE SMOOTH",
"279 55 OFFCURVE",
"275 52 OFFCURVE",
"271 50 CURVE",
"266 48 OFFCURVE",
"262 47 OFFCURVE",
"257 47 CURVE SMOOTH"
);
},
{
closed = 1;
nodes = (
"304 339 OFFCURVE",
"303 328 OFFCURVE",
"300 312 CURVE SMOOTH",
"297 296 OFFCURVE",
"293 279 OFFCURVE",
"290 260 CURVE SMOOTH",
"287 241 OFFCURVE",
"283 222 OFFCURVE",
"280 204 CURVE",
"276 186 OFFCURVE",
"273 172 OFFCURVE",
"272 162 CURVE",
"271 160 OFFCURVE",
"271 158 OFFCURVE",
"270 157 CURVE SMOOTH",
"269 156 OFFCURVE",
"267 154 OFFCURVE",
"266 153 CURVE SMOOTH",
"265 152 OFFCURVE",
"263 151 OFFCURVE",
"262 150 CURVE",
"260 149 OFFCURVE",
"258 149 OFFCURVE",
"256 149 CURVE SMOOTH",
"256 149 LINE SMOOTH",
"254 149 OFFCURVE",
"252 149 OFFCURVE",
"251 150 CURVE",
"249 151 OFFCURVE",
"247 152 OFFCURVE",
"246 153 CURVE SMOOTH",
"245 154 OFFCURVE",
"244 156 OFFCURVE",
"243 158 CURVE",
"242 159 OFFCURVE",
"241 161 OFFCURVE",
"240 162 CURVE",
"239 172 OFFCURVE",
"236 186 OFFCURVE",
"233 205 CURVE",
"229 223 OFFCURVE",
"225 242 OFFCURVE",
"222 261 CURVE SMOOTH",
"219 280 OFFCURVE",
"216 297 OFFCURVE",
"213 313 CURVE SMOOTH",
"210 329 OFFCURVE",
"208 340 OFFCURVE",
"207 346 CURVE SMOOTH",
"206 353 OFFCURVE",
"207 360 OFFCURVE",
"209 367 CURVE SMOOTH",
"211 374 OFFCURVE",
"214 380 OFFCURVE",
"219 385 CURVE SMOOTH",
"224 390 OFFCURVE",
"229 394 OFFCURVE",
"236 397 CURVE",
"242 400 OFFCURVE",
"249 401 OFFCURVE",
"256 401 CURVE SMOOTH",
"263 401 OFFCURVE",
"270 400 OFFCURVE",
"277 397 CURVE",
"283 394 OFFCURVE",
"288 390 OFFCURVE",
"293 385 CURVE SMOOTH",
"298 380 OFFCURVE",
"301 374 OFFCURVE",
"303 367 CURVE SMOOTH",
"305 360 OFFCURVE",
"306 353 OFFCURVE",
"305 345 CURVE"
);
}
);
width = 512;
}
);
unicode = E615;
},
{
glyphname = uniE616;
layers = (
{
layerId = "19B4AD07-3ADD-4C6B-9307-3D60BE925762";
name = Regular;
paths = (
{
closed = 1;
nodes = (
"0 259 OFFCURVE",
"7 293 OFFCURVE",
"20 324 CURVE SMOOTH",
"33 355 OFFCURVE",
"52 382 OFFCURVE",
"75 405 CURVE SMOOTH",
"98 428 OFFCURVE",
"126 447 OFFCURVE",
"157 460 CURVE SMOOTH",
"188 473 OFFCURVE",
"221 480 OFFCURVE",
"256 480 CURVE SMOOTH",
"291 480 OFFCURVE",
"325 473 OFFCURVE",
"356 460 CURVE SMOOTH",
"387 447 OFFCURVE",
"414 428 OFFCURVE",
"437 405 CURVE SMOOTH",
"460 382 OFFCURVE",
"479 355 OFFCURVE",
"492 324 CURVE SMOOTH",
"505 293 OFFCURVE",
"512 259 OFFCURVE",
"512 224 CURVE SMOOTH",
"512 189 OFFCURVE",
"505 156 OFFCURVE",
"492 125 CURVE SMOOTH",
"479 94 OFFCURVE",
"460 66 OFFCURVE",
"437 43 CURVE SMOOTH",
"414 20 OFFCURVE",
"387 1 OFFCURVE",
"356 -12 CURVE SMOOTH",
"325 -25 OFFCURVE",
"291 -32 OFFCURVE",
"256 -32 CURVE SMOOTH",
"221 -32 OFFCURVE",
"188 -25 OFFCURVE",
"157 -12 CURVE SMOOTH",
"126 1 OFFCURVE",
"98 20 OFFCURVE",
"75 43 CURVE SMOOTH",
"52 66 OFFCURVE",
"33 94 OFFCURVE",
"20 125 CURVE SMOOTH",
"7 156 OFFCURVE",
"0 189 OFFCURVE",
"0 224 CURVE SMOOTH"
);
}
);
width = 512;
}
);
unicode = E616;
},
{
glyphname = uniE617;
layers = (
{
layerId = "19B4AD07-3ADD-4C6B-9307-3D60BE925762";
name = Regular;
paths = (
{
closed = 1;
nodes = (
"507 223 OFFCURVE",
"505 186 OFFCURVE",
"494 151 CURVE SMOOTH",
"483 115 OFFCURVE",
"466 84 OFFCURVE",
"443 57 CURVE SMOOTH",
"420 30 OFFCURVE",
"392 8 OFFCURVE",
"359 -8 CURVE SMOOTH",
"326 -24 OFFCURVE",
"290 -32 OFFCURVE",
"253 -32 CURVE SMOOTH",
"218 -32 OFFCURVE",
"185 -25 OFFCURVE",
"155 -12 CURVE SMOOTH",
"124 1 OFFCURVE",
"98 20 OFFCURVE",
"75 43 CURVE SMOOTH",
"52 66 OFFCURVE",
"34 94 OFFCURVE",
"21 125 CURVE SMOOTH",
"8 156 OFFCURVE",
"1 189 OFFCURVE",
"0 224 CURVE",
"1 259 OFFCURVE",
"8 293 OFFCURVE",
"21 324 CURVE SMOOTH",
"34 355 OFFCURVE",
"52 382 OFFCURVE",
"75 405 CURVE SMOOTH",
"98 428 OFFCURVE",
"124 447 OFFCURVE",
"155 460 CURVE SMOOTH",
"185 473 OFFCURVE",
"218 480 OFFCURVE",
"253 480 CURVE SMOOTH",
"268 480 OFFCURVE",
"282 479 OFFCURVE",
"297 476 CURVE SMOOTH",
"312 473 OFFCURVE",
"326 470 OFFCURVE",
"339 465 CURVE SMOOTH",
"352 460 OFFCURVE",
"365 453 OFFCURVE",
"378 446 CURVE SMOOTH",
"391 439 OFFCURVE",
"402 430 OFFCURVE",
"412 421 CURVE",
"373 380 LINE",
"364 387 OFFCURVE",
"356 393 OFFCURVE",
"347 398 CURVE SMOOTH",
"338 403 OFFCURVE",
"328 407 OFFCURVE",
"317 411 CURVE",
"306 414 OFFCURVE",
"296 417 OFFCURVE",
"286 419 CURVE SMOOTH",
"275 421 OFFCURVE",
"264 422 OFFCURVE",
"252 422 CURVE SMOOTH",
"225 422 OFFCURVE",
"200 417 OFFCURVE",
"176 407 CURVE",
"152 396 OFFCURVE",
"132 382 OFFCURVE",
"115 364 CURVE SMOOTH",
"98 346 OFFCURVE",
"84 325 OFFCURVE",
"73 301 CURVE SMOOTH",
"62 277 OFFCURVE",
"57 251 OFFCURVE",
"58 224 CURVE",
"57 197 OFFCURVE",
"62 171 OFFCURVE",
"73 147 CURVE SMOOTH",
"84 123 OFFCURVE",
"98 102 OFFCURVE",
"115 84 CURVE SMOOTH",
"132 66 OFFCURVE",
"152 52 OFFCURVE",
"176 42 CURVE",
"200 31 OFFCURVE",
"225 26 OFFCURVE",
"252 26 CURVE SMOOTH",
"278 26 OFFCURVE",
"302 31 OFFCURVE",
"325 40 CURVE SMOOTH",
"347 49 OFFCURVE",
"367 62 OFFCURVE",
"385 79 CURVE SMOOTH",
"402 95 OFFCURVE",
"416 114 OFFCURVE",
"427 136 CURVE",
"437 158 OFFCURVE",
"444 181 OFFCURVE",
"447 206 CURVE",
"501 262 LINE"
);
},
{
closed = 1;
nodes = (
"266 217 LINE",
"176 310 LINE",
"107 241 LINE",
"267 80 LINE",
"544 362 LINE",
"477 431 LINE"
);
}
);
width = 544;
}
);
unicode = E617;
},
{
glyphname = uniE618;
layers = (
{
layerId = "19B4AD07-3ADD-4C6B-9307-3D60BE925762";
name = Regular;
paths = (
{
closed = 1;
nodes = (
"254 16 LINE SMOOTH",
"241 1 OFFCURVE",
"226 -10 OFFCURVE",
"209 -18 CURVE SMOOTH",
"192 -26 OFFCURVE",
"174 -31 OFFCURVE",
"155 -32 CURVE SMOOTH",
"136 -33 OFFCURVE",
"118 -31 OFFCURVE",
"100 -25 CURVE",
"81 -20 OFFCURVE",
"65 -11 OFFCURVE",
"50 2 CURVE SMOOTH",
"35 15 OFFCURVE",
"23 29 OFFCURVE",
"15 46 CURVE",
"6 63 OFFCURVE",
"1 80 OFFCURVE",
"0 98 CURVE SMOOTH",
"-1 116 OFFCURVE",
"1 134 OFFCURVE",
"7 151 CURVE SMOOTH",
"13 168 OFFCURVE",
"23 184 OFFCURVE",
"36 199 CURVE SMOOTH",
"257 444 LINE SMOOTH",
"267 455 OFFCURVE",
"279 464 OFFCURVE",
"292 470 CURVE",
"305 475 OFFCURVE",
"318 479 OFFCURVE",
"332 480 CURVE SMOOTH",
"345 481 OFFCURVE",
"359 479 OFFCURVE",
"373 475 CURVE SMOOTH",
"386 471 OFFCURVE",
"398 464 OFFCURVE",
"409 455 CURVE",
"420 445 OFFCURVE",
"429 434 OFFCURVE",
"436 422 CURVE",
"442 409 OFFCURVE",
"445 397 OFFCURVE",
"446 384 CURVE SMOOTH",
"447 371 OFFCURVE",
"445 357 OFFCURVE",
"441 344 CURVE",
"436 331 OFFCURVE",
"429 319 OFFCURVE",
"420 308 CURVE",
"251 122 LINE SMOOTH",
"245 115 OFFCURVE",
"238 109 OFFCURVE",
"230 106 CURVE",
"221 102 OFFCURVE",
"213 100 OFFCURVE",
"204 99 CURVE SMOOTH",
"195 98 OFFCURVE",
"186 99 OFFCURVE",
"177 102 CURVE SMOOTH",
"168 105 OFFCURVE",
"159 109 OFFCURVE",
"152 115 CURVE SMOOTH",
"145 121 OFFCURVE",
"139 128 OFFCURVE",
"135 137 CURVE",
"131 145 OFFCURVE",
"129 153 OFFCURVE",
"129 162 CURVE",
"128 170 OFFCURVE",
"129 178 OFFCURVE",
"132 187 CURVE SMOOTH",
"135 196 OFFCURVE",
"139 204 OFFCURVE",
"146 211 CURVE",
"276 355 LINE",
"314 323 LINE",
"184 179 LINE",
"182 177 OFFCURVE",
"181 175 OFFCURVE",
"180 173 CURVE",
"179 170 OFFCURVE",
"179 168 OFFCURVE",
"179 165 CURVE SMOOTH",
"179 162 OFFCURVE",
"180 160 OFFCURVE",
"181 158 CURVE SMOOTH",
"182 156 OFFCURVE",
"183 154 OFFCURVE",
"186 152 CURVE",
"188 150 OFFCURVE",
"190 149 OFFCURVE",
"193 148 CURVE",
"195 147 OFFCURVE",
"197 147 OFFCURVE",
"200 148 CURVE",
"203 148 OFFCURVE",
"205 149 OFFCURVE",
"208 150 CURVE",
"210 151 OFFCURVE",
"212 152 OFFCURVE",
"213 154 CURVE",
"382 340 LINE",
"387 346 OFFCURVE",
"391 353 OFFCURVE",
"393 360 CURVE SMOOTH",
"395 367 OFFCURVE",
"396 374 OFFCURVE",
"396 381 CURVE",
"395 388 OFFCURVE",
"393 394 OFFCURVE",
"390 401 CURVE",
"387 407 OFFCURVE",
"382 413 OFFCURVE",
"376 418 CURVE SMOOTH",
"370 423 OFFCURVE",
"364 426 OFFCURVE",
"357 429 CURVE",
"350 431 OFFCURVE",
"342 432 OFFCURVE",
"335 432 CURVE",
"328 431 OFFCURVE",
"321 429 OFFCURVE",
"314 426 CURVE SMOOTH",
"307 423 OFFCURVE",
"301 418 OFFCURVE",
"296 413 CURVE",
"74 167 LINE",
"65 158 OFFCURVE",
"59 147 OFFCURVE",
"55 136 CURVE SMOOTH",
"51 125 OFFCURVE",
"50 113 OFFCURVE",
"51 102 CURVE SMOOTH",
"52 90 OFFCURVE",
"55 79 OFFCURVE",
"60 68 CURVE SMOOTH",
"65 57 OFFCURVE",
"73 47 OFFCURVE",
"83 39 CURVE SMOOTH",
"93 31 OFFCURVE",
"104 25 OFFCURVE",
"116 22 CURVE",
"127 18 OFFCURVE",
"139 16 OFFCURVE",
"151 17 CURVE SMOOTH",
"163 18 OFFCURVE",
"175 21 OFFCURVE",
"186 26 CURVE SMOOTH",
"197 31 OFFCURVE",
"207 39 OFFCURVE",
"216 48 CURVE",
"442 298 LINE",
"480 266 LINE"
);
}
);
width = 480;
}
);
unicode = E618;
},
{
glyphname = uniE619;
layers = (
{
layerId = "19B4AD07-3ADD-4C6B-9307-3D60BE925762";
name = Regular;
paths = (
{
closed = 1;
nodes = (
"273 480 LINE",
"273 322 LINE",
"208 322 LINE",
"336 191 LINE",
"464 322 LINE",
"399 322 LINE",
"399 480 LINE",
"400 480 LINE"
);
},
{
closed = 1;
nodes = (
"672 -32 LINE",
"0 -32 LINE",
"0 224 LINE",
"153 480 LINE",
"229 480 LINE",
"77 224 LINE",
"161 224 LINE",
"220 157 LINE",
"451 157 LINE",
"512 224 LINE",
"595 224 LINE",
"443 480 LINE",
"519 480 LINE",
"672 224 LINE"
);
}
);
width = 672;
}
);
unicode = E619;
},
{
glyphname = uniE61A;
layers = (
{
layerId = "19B4AD07-3ADD-4C6B-9307-3D60BE925762";
name = Regular;
paths = (
{
closed = 1;
nodes = (
"413 291 LINE",
"418 287 OFFCURVE",
"422 284 OFFCURVE",
"427 283 CURVE",
"431 281 OFFCURVE",
"436 280 OFFCURVE",
"442 280 CURVE",
"447 279 OFFCURVE",
"452 280 OFFCURVE",
"457 283 CURVE",
"461 285 OFFCURVE",
"465 287 OFFCURVE",
"470 290 CURVE",
"473 295 OFFCURVE",
"476 299 OFFCURVE",
"479 304 CURVE",
"481 309 OFFCURVE",
"482 314 OFFCURVE",
"482 319 CURVE",
"481 324 OFFCURVE",
"480 329 OFFCURVE",
"479 334 CURVE",
"477 339 OFFCURVE",
"474 343 OFFCURVE",
"469 348 CURVE SMOOTH",
"349 468 LINE SMOOTH",
"344 473 OFFCURVE",
"340 476 OFFCURVE",
"335 478 CURVE",
"330 479 OFFCURVE",
"325 480 OFFCURVE",
"320 481 CURVE",
"315 481 OFFCURVE",
"310 480 OFFCURVE",
"305 478 CURVE",
"300 475 OFFCURVE",
"296 472 OFFCURVE",
"291 469 CURVE",
"288 464 OFFCURVE",
"286 460 OFFCURVE",
"284 456 CURVE",
"281 451 OFFCURVE",
"280 446 OFFCURVE",
"281 441 CURVE",
"281 435 OFFCURVE",
"282 430 OFFCURVE",
"284 426 CURVE",
"285 421 OFFCURVE",
"288 417 OFFCURVE",
"292 412 CURVE"
);
},
{
closed = 1;
nodes = (
"162 282 LINE",
"157 286 OFFCURVE",
"153 289 OFFCURVE",
"148 291 CURVE",
"143 292 OFFCURVE",
"138 293 OFFCURVE",
"133 294 CURVE",
"128 294 OFFCURVE",
"123 293 OFFCURVE",
"118 291 CURVE",
"113 288 OFFCURVE",
"109 286 OFFCURVE",
"105 283 CURVE",
"102 278 OFFCURVE",
"99 274 OFFCURVE",
"97 269 CURVE",
"94 264 OFFCURVE",
"93 259 OFFCURVE",
"94 254 CURVE",
"94 249 OFFCURVE",
"95 244 OFFCURVE",
"97 239 CURVE",
"98 234 OFFCURVE",
"101 230 OFFCURVE",
"106 225 CURVE SMOOTH",
"226 105 LINE SMOOTH",
"231 100 OFFCURVE",
"235 97 OFFCURVE",
"240 96 CURVE",
"245 94 OFFCURVE",
"250 93 OFFCURVE",
"255 93 CURVE",
"260 92 OFFCURVE",
"265 93 OFFCURVE",
"270 96 CURVE",
"275 98 OFFCURVE",
"279 101 OFFCURVE",
"283 104 CURVE",
"286 109 OFFCURVE",
"289 113 OFFCURVE",
"292 118 CURVE",
"294 122 OFFCURVE",
"295 127 OFFCURVE",
"295 133 CURVE",
"294 138 OFFCURVE",
"293 143 OFFCURVE",
"292 148 CURVE",
"290 152 OFFCURVE",
"287 156 OFFCURVE",
"282 161 CURVE SMOOTH"
);
},
{
closed = 1;
nodes = (
"171 299 LINE",
"300 170 LINE",
"390 298 LINE",
"299 389 LINE"
);
},
{
closed = 1;
nodes = (
"141 171 LINE",
"2 28 LINE",
"0 -2 LINE",
"-1 -1 LINE",
"0 -2 LINE",
"-1 -1 LINE",
"0 -2 LINE",
"28 2 LINE",
"173 139 LINE",
"156 156 LINE"
);
}
);
width = 482;
}
);
unicode = E61A;
},
{
glyphname = uniE61B;
layers = (
{
layerId = "19B4AD07-3ADD-4C6B-9307-3D60BE925762";
name = Regular;
paths = (
{
closed = 1;
nodes = (
"224 112 LINE",
"224 144 LINE",
"256 144 LINE",
"256 176 LINE",
"288 176 LINE",
"288 208 LINE",
"320 208 LINE",
"320 240 LINE",
"288 240 LINE",
"288 272 LINE",
"256 272 LINE",
"256 304 LINE",
"224 304 LINE",
"224 336 LINE",
"192 336 LINE",
"192 112 LINE"
);
}
);
width = 512;
}
);
unicode = E61B;
},
{
glyphname = uniE61C;
layers = (
{
layerId = "19B4AD07-3ADD-4C6B-9307-3D60BE925762";
name = Regular;
paths = (
{
closed = 1;
nodes = (
"221 480 OFFCURVE",
"188 473 OFFCURVE",
"157 460 CURVE SMOOTH",
"126 447 OFFCURVE",
"98 428 OFFCURVE",
"75 405 CURVE SMOOTH",
"52 382 OFFCURVE",
"33 355 OFFCURVE",
"20 324 CURVE SMOOTH",
"7 293 OFFCURVE",
"0 259 OFFCURVE",
"0 224 CURVE SMOOTH",
"0 189 OFFCURVE",
"7 156 OFFCURVE",
"20 125 CURVE SMOOTH",
"33 94 OFFCURVE",
"52 66 OFFCURVE",
"75 43 CURVE SMOOTH",
"98 20 OFFCURVE",
"126 1 OFFCURVE",
"157 -12 CURVE SMOOTH",
"188 -25 OFFCURVE",
"221 -32 OFFCURVE",
"256 -32 CURVE SMOOTH",
"291 -32 OFFCURVE",
"325 -25 OFFCURVE",
"356 -12 CURVE SMOOTH",
"387 1 OFFCURVE",
"414 20 OFFCURVE",
"437 43 CURVE SMOOTH",
"460 66 OFFCURVE",
"479 94 OFFCURVE",
"492 125 CURVE SMOOTH",
"505 156 OFFCURVE",
"512 189 OFFCURVE",
"512 224 CURVE SMOOTH",
"512 259 OFFCURVE",
"505 293 OFFCURVE",
"492 324 CURVE SMOOTH",
"479 355 OFFCURVE",
"460 382 OFFCURVE",
"437 405 CURVE SMOOTH",
"414 428 OFFCURVE",
"387 447 OFFCURVE",
"356 460 CURVE SMOOTH",
"325 473 OFFCURVE",
"291 480 OFFCURVE",
"256 480 CURVE SMOOTH"
);
},
{
closed = 1;
nodes = (
"229 24 OFFCURVE",
"203 29 OFFCURVE",
"179 40 CURVE",
"154 50 OFFCURVE",
"133 64 OFFCURVE",
"115 83 CURVE",
"96 101 OFFCURVE",
"82 122 OFFCURVE",
"72 147 CURVE",
"61 171 OFFCURVE",
"56 197 OFFCURVE",
"56 224 CURVE SMOOTH",
"56 251 OFFCURVE",
"61 277 OFFCURVE",
"72 302 CURVE SMOOTH",
"82 326 OFFCURVE",
"96 347 OFFCURVE",
"115 366 CURVE SMOOTH",
"133 384 OFFCURVE",
"154 398 OFFCURVE",
"179 409 CURVE SMOOTH",
"203 419 OFFCURVE",
"229 424 OFFCURVE",
"256 424 CURVE SMOOTH",
"283 424 OFFCURVE",
"309 419 OFFCURVE",
"334 409 CURVE",
"358 398 OFFCURVE",
"379 384 OFFCURVE",
"398 366 CURVE",
"416 347 OFFCURVE",
"430 326 OFFCURVE",
"441 302 CURVE",
"451 277 OFFCURVE",
"456 251 OFFCURVE",
"456 224 CURVE SMOOTH",
"456 197 OFFCURVE",
"451 171 OFFCURVE",
"441 147 CURVE SMOOTH",
"430 122 OFFCURVE",
"416 101 OFFCURVE",
"398 83 CURVE SMOOTH",
"379 64 OFFCURVE",
"358 50 OFFCURVE",
"334 40 CURVE SMOOTH",
"309 29 OFFCURVE",
"283 24 OFFCURVE",
"256 24 CURVE SMOOTH"
);
},
{
closed = 1;
nodes = (
"270 126 OFFCURVE",
"274 126 OFFCURVE",
"278 127 CURVE",
"281 128 OFFCURVE",
"285 129 OFFCURVE",
"288 130 CURVE SMOOTH",
"291 131 OFFCURVE",
"295 132 OFFCURVE",
"298 133 CURVE SMOOTH",
"301 134 OFFCURVE",
"304 136 OFFCURVE",
"307 138 CURVE",
"312 141 OFFCURVE",
"316 144 OFFCURVE",
"319 148 CURVE",
"322 151 OFFCURVE",
"325 155 OFFCURVE",
"328 160 CURVE",
"330 164 OFFCURVE",
"332 169 OFFCURVE",
"333 174 CURVE SMOOTH",
"334 179 OFFCURVE",
"335 185 OFFCURVE",
"335 191 CURVE SMOOTH",
"335 196 OFFCURVE",
"335 200 OFFCURVE",
"334 205 CURVE",
"333 209 OFFCURVE",
"331 213 OFFCURVE",
"330 217 CURVE",
"328 220 OFFCURVE",
"326 224 OFFCURVE",
"323 227 CURVE SMOOTH",
"320 230 OFFCURVE",
"317 232 OFFCURVE",
"314 235 CURVE",
"312 236 OFFCURVE",
"309 238 OFFCURVE",
"306 240 CURVE SMOOTH",
"303 242 OFFCURVE",
"299 244 OFFCURVE",
"295 246 CURVE",
"291 247 OFFCURVE",
"287 249 OFFCURVE",
"282 251 CURVE",
"277 252 OFFCURVE",
"272 254 OFFCURVE",
"267 255 CURVE",
"264 256 OFFCURVE",
"262 256 OFFCURVE",
"259 257 CURVE SMOOTH",
"256 258 OFFCURVE",
"254 258 OFFCURVE",
"253 259 CURVE",
"251 260 OFFCURVE",
"249 260 OFFCURVE",
"248 261 CURVE",
"247 261 OFFCURVE",
"246 261 OFFCURVE",
"246 261 CURVE SMOOTH",
"245 261 OFFCURVE",
"243 261 OFFCURVE",
"242 262 CURVE SMOOTH",
"241 263 OFFCURVE",
"240 263 OFFCURVE",
"239 264 CURVE SMOOTH",
"238 265 OFFCURVE",
"237 265 OFFCURVE",
"236 266 CURVE SMOOTH",
"235 267 OFFCURVE",
"235 267 OFFCURVE",
"234 268 CURVE SMOOTH",
"233 269 OFFCURVE",
"232 271 OFFCURVE",
"231 272 CURVE SMOOTH",
"230 273 OFFCURVE",
"229 275 OFFCURVE",
"228 277 CURVE",
"227 278 OFFCURVE",
"227 280 OFFCURVE",
"227 282 CURVE",
"226 283 OFFCURVE",
"226 285 OFFCURVE",
"226 287 CURVE SMOOTH",
"226 289 OFFCURVE",
"226 291 OFFCURVE",
"227 293 CURVE",
"227 294 OFFCURVE",
"227 296 OFFCURVE",
"228 298 CURVE",
"228 299 OFFCURVE",
"228 301 OFFCURVE",
"229 302 CURVE SMOOTH",
"230 303 OFFCURVE",
"230 304 OFFCURVE",
"231 305 CURVE SMOOTH",
"232 306 OFFCURVE",
"233 307 OFFCURVE",
"234 308 CURVE SMOOTH",
"235 309 OFFCURVE",
"237 309 OFFCURVE",
"238 310 CURVE SMOOTH",
"239 311 OFFCURVE",
"240 311 OFFCURVE",
"242 312 CURVE",
"243 312 OFFCURVE",
"245 312 OFFCURVE",
"246 312 CURVE SMOOTH",
"266 312 LINE",
"271 312 LINE",
"276 311 LINE",
"277 310 OFFCURVE",
"279 310 OFFCURVE",
"280 309 CURVE SMOOTH",
"281 308 OFFCURVE",
"283 308 OFFCURVE",
"284 307 CURVE SMOOTH",
"285 306 OFFCURVE",
"287 306 OFFCURVE",
"288 305 CURVE SMOOTH",
"289 304 OFFCURVE",
"289 302 OFFCURVE",
"290 301 CURVE SMOOTH",
"291 300 OFFCURVE",
"291 299 OFFCURVE",
"292 298 CURVE SMOOTH",
"293 297 OFFCURVE",
"293 295 OFFCURVE",
"294 294 CURVE",
"294 292 OFFCURVE",
"294 290 OFFCURVE",
"295 289 CURVE",
"295 287 OFFCURVE",
"295 285 OFFCURVE",
"295 283 CURVE",
"335 283 LINE",
"335 288 OFFCURVE",
"334 293 OFFCURVE",
"333 298 CURVE SMOOTH",
"332 303 OFFCURVE",
"330 307 OFFCURVE",
"328 311 CURVE",
"325 315 OFFCURVE",
"322 319 OFFCURVE",
"319 322 CURVE SMOOTH",
"316 325 OFFCURVE",
"312 328 OFFCURVE",
"307 330 CURVE",
"304 332 OFFCURVE",
"302 334 OFFCURVE",
"299 335 CURVE SMOOTH",
"296 336 OFFCURVE",
"292 337 OFFCURVE",
"289 338 CURVE SMOOTH",
"286 339 OFFCURVE",
"282 339 OFFCURVE",
"278 340 CURVE SMOOTH",
"274 341 OFFCURVE",
"270 341 OFFCURVE",
"266 341 CURVE",
"266 372 LINE",
"246 372 LINE",
"246 341 LINE",
"244 341 OFFCURVE",
"242 341 OFFCURVE",
"240 341 CURVE",
"237 340 OFFCURVE",
"235 340 OFFCURVE",
"234 340 CURVE SMOOTH",
"232 340 OFFCURVE",
"230 340 OFFCURVE",
"229 340 CURVE",
"228 339 OFFCURVE",
"226 339 OFFCURVE",
"225 338 CURVE",
"223 337 OFFCURVE",
"221 337 OFFCURVE",
"219 336 CURVE SMOOTH",
"217 335 OFFCURVE",
"215 334 OFFCURVE",
"214 333 CURVE",
"212 332 OFFCURVE",
"210 330 OFFCURVE",
"209 329 CURVE SMOOTH",
"207 327 OFFCURVE",
"205 325 OFFCURVE",
"203 324 CURVE",
"202 323 OFFCURVE",
"201 321 OFFCURVE",
"200 320 CURVE",
"199 318 OFFCURVE",
"198 316 OFFCURVE",
"197 315 CURVE SMOOTH",
"196 314 OFFCURVE",
"195 312 OFFCURVE",
"194 311 CURVE",
"193 309 OFFCURVE",
"192 307 OFFCURVE",
"191 305 CURVE SMOOTH",
"190 303 OFFCURVE",
"190 301 OFFCURVE",
"190 299 CURVE",
"189 297 OFFCURVE",
"189 295 OFFCURVE",
"189 293 CURVE",
"188 291 OFFCURVE",
"188 289 OFFCURVE",
"188 287 CURVE",
"187 285 OFFCURVE",
"187 283 OFFCURVE",
"187 281 CURVE SMOOTH",
"187 277 OFFCURVE",
"187 274 OFFCURVE",
"188 271 CURVE",
"188 268 OFFCURVE",
"189 265 OFFCURVE",
"190 262 CURVE SMOOTH",
"191 259 OFFCURVE",
"192 256 OFFCURVE",
"193 253 CURVE SMOOTH",
"194 250 OFFCURVE",
"196 248 OFFCURVE",
"198 246 CURVE",
"200 243 OFFCURVE",
"202 241 OFFCURVE",
"205 239 CURVE",
"207 237 OFFCURVE",
"210 235 OFFCURVE",
"213 233 CURVE SMOOTH",
"216 231 OFFCURVE",
"219 229 OFFCURVE",
"223 228 CURVE",
"226 226 OFFCURVE",
"230 224 OFFCURVE",
"235 223 CURVE",
"246 220 LINE",
"266 215 LINE",
"268 214 OFFCURVE",
"270 214 OFFCURVE",
"272 213 CURVE SMOOTH",
"274 212 OFFCURVE",
"276 211 OFFCURVE",
"278 210 CURVE",
"279 209 OFFCURVE",
"281 209 OFFCURVE",
"282 208 CURVE SMOOTH",
"283 207 OFFCURVE",
"285 207 OFFCURVE",
"286 206 CURVE SMOOTH",
"287 205 OFFCURVE",
"289 203 OFFCURVE",
"290 202 CURVE",
"291 200 OFFCURVE",
"292 198 OFFCURVE",
"293 197 CURVE",
"294 195 OFFCURVE",
"294 193 OFFCURVE",
"295 191 CURVE",
"295 189 OFFCURVE",
"295 187 OFFCURVE",
"295 185 CURVE SMOOTH",
"295 182 OFFCURVE",
"295 179 OFFCURVE",
"295 177 CURVE",
"294 174 OFFCURVE",
"294 172 OFFCURVE",
"293 170 CURVE SMOOTH",
"292 168 OFFCURVE",
"291 166 OFFCURVE",
"290 165 CURVE",
"289 163 OFFCURVE",
"287 161 OFFCURVE",
"285 160 CURVE",
"284 159 OFFCURVE",
"283 159 OFFCURVE",
"282 159 CURVE",
"281 158 OFFCURVE",
"279 158 OFFCURVE",
"278 157 CURVE",
"276 156 OFFCURVE",
"274 156 OFFCURVE",
"272 156 CURVE",
"270 155 OFFCURVE",
"268 155 OFFCURVE",
"266 155 CURVE SMOOTH",
"246 155 LINE",
"243 156 OFFCURVE",
"241 156 OFFCURVE",
"238 157 CURVE SMOOTH",
"235 158 OFFCURVE",
"233 159 OFFCURVE",
"232 160 CURVE",
"230 161 OFFCURVE",
"228 162 OFFCURVE",
"227 164 CURVE",
"225 165 OFFCURVE",
"224 167 OFFCURVE",
"223 168 CURVE SMOOTH",
"222 169 OFFCURVE",
"222 171 OFFCURVE",
"221 173 CURVE",
"220 174 OFFCURVE",
"220 176 OFFCURVE",
"219 178 CURVE SMOOTH",
"218 180 OFFCURVE",
"218 182 OFFCURVE",
"218 185 CURVE",
"217 188 OFFCURVE",
"217 191 OFFCURVE",
"217 194 CURVE",
"177 194 LINE",
"177 187 OFFCURVE",
"178 181 OFFCURVE",
"179 176 CURVE SMOOTH",
"180 170 OFFCURVE",
"181 165 OFFCURVE",
"183 160 CURVE SMOOTH",
"185 155 OFFCURVE",
"188 151 OFFCURVE",
"191 148 CURVE",
"194 144 OFFCURVE",
"198 141 OFFCURVE",
"202 138 CURVE",
"205 137 OFFCURVE",
"208 135 OFFCURVE",
"211 134 CURVE SMOOTH",
"214 133 OFFCURVE",
"217 132 OFFCURVE",
"221 131 CURVE",
"224 130 OFFCURVE",
"228 129 OFFCURVE",
"233 128 CURVE",
"237 127 OFFCURVE",
"241 126 OFFCURVE",
"246 125 CURVE",
"246 96 LINE",
"266 96 LINE",
"266 125 LINE"
);
}
);
width = 512;
}
);
unicode = E61C;
},
{
glyphname = uniE61D;
layers = (
{
layerId = "19B4AD07-3ADD-4C6B-9307-3D60BE925762";
name = Regular;
paths = (
{
closed = 1;
nodes = (
"701 389 LINE",
"632 421 LINE",
"632 422 OFFCURVE",
"632 422 OFFCURVE",
"631 422 CURVE SMOOTH",
"630 422 OFFCURVE",
"629 422 OFFCURVE",
"629 423 CURVE",
"628 423 OFFCURVE",
"627 423 OFFCURVE",
"626 423 CURVE SMOOTH",
"625 423 OFFCURVE",
"624 423 OFFCURVE",
"624 423 CURVE SMOOTH",
"623 423 OFFCURVE",
"623 423 OFFCURVE",
"623 423 CURVE SMOOTH",
"622 423 OFFCURVE",
"622 423 OFFCURVE",
"621 423 CURVE SMOOTH",
"620 423 OFFCURVE",
"620 423 OFFCURVE",
"620 423 CURVE",
"619 422 OFFCURVE",
"619 422 OFFCURVE",
"618 422 CURVE SMOOTH",
"617 422 OFFCURVE",
"616 422 OFFCURVE",
"615 421 CURVE SMOOTH",
"614 420 OFFCURVE",
"613 420 OFFCURVE",
"612 419 CURVE SMOOTH",
"611 418 OFFCURVE",
"611 418 OFFCURVE",
"610 417 CURVE SMOOTH",
"609 416 OFFCURVE",
"608 415 OFFCURVE",
"608 414 CURVE",
"544 296 LINE",
"475 379 LINE",
"474 380 OFFCURVE",
"473 381 OFFCURVE",
"472 382 CURVE SMOOTH",
"471 383 OFFCURVE",
"469 383 OFFCURVE",
"468 384 CURVE",
"467 384 OFFCURVE",
"466 384 OFFCURVE",
"465 385 CURVE",
"464 385 OFFCURVE",
"462 385 OFFCURVE",
"460 385 CURVE SMOOTH",
"460 385 OFFCURVE",
"459 385 OFFCURVE",
"458 385 CURVE SMOOTH",
"457 385 OFFCURVE",
"456 385 OFFCURVE",
"455 385 CURVE",
"454 384 OFFCURVE",
"453 384 OFFCURVE",
"452 383 CURVE SMOOTH",
"451 382 OFFCURVE",
"450 382 OFFCURVE",
"450 382 CURVE",
"310 284 LINE",
"310 283 OFFCURVE",
"310 283 OFFCURVE",
"309 283 CURVE",
"308 282 OFFCURVE",
"307 282 OFFCURVE",
"307 282 CURVE",
"307 281 OFFCURVE",
"307 281 OFFCURVE",
"306 280 CURVE SMOOTH",
"305 279 OFFCURVE",
"305 279 OFFCURVE",
"306 278 CURVE",
"242 161 LINE",
"168 265 LINE",
"167 266 OFFCURVE",
"166 267 OFFCURVE",
"165 268 CURVE SMOOTH",
"164 269 OFFCURVE",
"163 269 OFFCURVE",
"162 270 CURVE SMOOTH",
"161 271 OFFCURVE",
"160 271 OFFCURVE",
"159 272 CURVE",
"158 272 OFFCURVE",
"156 272 OFFCURVE",
"154 272 CURVE",
"155 272 OFFCURVE",
"155 272 OFFCURVE",
"154 272 CURVE SMOOTH",
"153 272 OFFCURVE",
"153 272 OFFCURVE",
"154 272 CURVE",
"154 272 OFFCURVE",
"154 272 OFFCURVE",
"154 272 CURVE SMOOTH",
"153 272 OFFCURVE",
"153 272 OFFCURVE",
"153 272 CURVE SMOOTH",
"152 272 OFFCURVE",
"151 272 OFFCURVE",
"150 272 CURVE SMOOTH",
"149 272 OFFCURVE",
"147 272 OFFCURVE",
"146 271 CURVE SMOOTH",
"145 270 OFFCURVE",
"144 270 OFFCURVE",
"143 270 CURVE",
"142 269 OFFCURVE",
"141 268 OFFCURVE",
"140 267 CURVE SMOOTH",
"5 141 LINE",
"3 140 OFFCURVE",
"2 138 OFFCURVE",
"1 136 CURVE",
"0 133 OFFCURVE",
"0 131 OFFCURVE",
"0 129 CURVE",
"-1 127 OFFCURVE",
"0 125 OFFCURVE",
"1 123 CURVE SMOOTH",
"2 121 OFFCURVE",
"3 119 OFFCURVE",
"4 117 CURVE",
"60 67 LINE",
"60 66 OFFCURVE",
"61 65 OFFCURVE",
"62 64 CURVE SMOOTH",
"63 63 OFFCURVE",
"64 63 OFFCURVE",
"65 63 CURVE",
"66 62 OFFCURVE",
"67 62 OFFCURVE",
"69 62 CURVE SMOOTH",
"70 62 OFFCURVE",
"71 62 OFFCURVE",
"71 62 CURVE",
"73 62 OFFCURVE",
"74 62 OFFCURVE",
"75 62 CURVE SMOOTH",
"76 62 OFFCURVE",
"77 62 OFFCURVE",
"79 63 CURVE",
"80 63 OFFCURVE",
"81 63 OFFCURVE",
"82 64 CURVE SMOOTH",
"83 65 OFFCURVE",
"84 66 OFFCURVE",
"85 67 CURVE SMOOTH",
"138 117 LINE",
"239 -24 LINE",
"240 -25 OFFCURVE",
"241 -26 OFFCURVE",
"242 -27 CURVE SMOOTH",
"243 -28 OFFCURVE",
"245 -29 OFFCURVE",
"246 -30 CURVE SMOOTH",
"247 -31 OFFCURVE",
"248 -31 OFFCURVE",
"250 -31 CURVE",
"251 -32 OFFCURVE",
"252 -32 OFFCURVE",
"253 -32 CURVE SMOOTH",
"254 -32 OFFCURVE",
"255 -32 OFFCURVE",
"255 -32 CURVE SMOOTH",
"254 -32 OFFCURVE",
"254 -32 OFFCURVE",
"255 -32 CURVE",
"255 -32 OFFCURVE",
"255 -32 OFFCURVE",
"255 -32 CURVE SMOOTH",
"254 -32 OFFCURVE",
"255 -32 OFFCURVE",
"256 -32 CURVE SMOOTH",
"257 -32 OFFCURVE",
"258 -32 OFFCURVE",
"260 -31 CURVE",
"261 -30 OFFCURVE",
"263 -30 OFFCURVE",
"264 -29 CURVE SMOOTH",
"265 -28 OFFCURVE",
"266 -27 OFFCURVE",
"268 -26 CURVE",
"269 -25 OFFCURVE",
"270 -24 OFFCURVE",
"270 -23 CURVE",
"396 212 LINE",
"443 246 LINE",
"550 123 LINE",
"550 122 OFFCURVE",
"551 121 OFFCURVE",
"552 120 CURVE SMOOTH",
"553 119 OFFCURVE",
"555 119 OFFCURVE",
"556 118 CURVE SMOOTH",
"557 117 OFFCURVE",
"558 117 OFFCURVE",
"560 117 CURVE",
"561 116 OFFCURVE",
"562 116 OFFCURVE",
"563 116 CURVE SMOOTH",
"564 116 OFFCURVE",
"564 116 OFFCURVE",
"564 116 CURVE SMOOTH",
"564 116 OFFCURVE",
"564 116 OFFCURVE",
"565 116 CURVE",
"565 116 OFFCURVE",
"565 116 OFFCURVE",
"565 116 CURVE SMOOTH",
"565 116 OFFCURVE",
"565 116 OFFCURVE",
"566 116 CURVE",
"567 117 OFFCURVE",
"568 117 OFFCURVE",
"570 118 CURVE",
"571 118 OFFCURVE",
"573 119 OFFCURVE",
"574 120 CURVE SMOOTH",
"575 121 OFFCURVE",
"576 122 OFFCURVE",
"577 123 CURVE SMOOTH",
"578 124 OFFCURVE",
"579 125 OFFCURVE",
"579 126 CURVE",
"709 367 LINE SMOOTH",
"710 369 OFFCURVE",
"710 371 OFFCURVE",
"711 373 CURVE",
"711 375 OFFCURVE",
"711 377 OFFCURVE",
"710 380 CURVE",
"709 382 OFFCURVE",
"707 384 OFFCURVE",
"706 386 CURVE",
"705 387 OFFCURVE",
"703 388 OFFCURVE",
"700 389 CURVE"
);
}
);
width = 711;
}
);
unicode = E61D;
},
{
glyphname = uniE61E;
layers = (
{
layerId = "19B4AD07-3ADD-4C6B-9307-3D60BE925762";
name = Regular;
paths = (
{
closed = 1;
nodes = (
"169 24 OFFCURVE",
"176 25 OFFCURVE",
"183 26 CURVE SMOOTH",
"190 27 OFFCURVE",
"196 28 OFFCURVE",
"202 30 CURVE SMOOTH",
"208 32 OFFCURVE",
"214 34 OFFCURVE",
"220 37 CURVE",
"226 39 OFFCURVE",
"232 42 OFFCURVE",
"237 45 CURVE SMOOTH",
"245 50 OFFCURVE",
"252 56 OFFCURVE",
"259 63 CURVE SMOOTH",
"266 70 OFFCURVE",
"271 77 OFFCURVE",
"276 86 CURVE",
"280 94 OFFCURVE",
"283 103 OFFCURVE",
"285 113 CURVE SMOOTH",
"287 123 OFFCURVE",
"288 134 OFFCURVE",
"288 145 CURVE SMOOTH",
"288 154 OFFCURVE",
"287 162 OFFCURVE",
"286 170 CURVE",
"284 177 OFFCURVE",
"282 185 OFFCURVE",
"279 192 CURVE SMOOTH",
"276 199 OFFCURVE",
"272 205 OFFCURVE",
"267 211 CURVE",
"262 216 OFFCURVE",
"257 221 OFFCURVE",
"251 226 CURVE",
"247 229 OFFCURVE",
"242 233 OFFCURVE",
"236 236 CURVE SMOOTH",
"230 239 OFFCURVE",
"223 243 OFFCURVE",
"216 246 CURVE",
"208 249 OFFCURVE",
"200 252 OFFCURVE",
"191 255 CURVE SMOOTH",
"182 258 OFFCURVE",
"174 260 OFFCURVE",
"165 263 CURVE",
"160 264 OFFCURVE",
"155 266 OFFCURVE",
"150 267 CURVE SMOOTH",
"145 268 OFFCURVE",
"141 270 OFFCURVE",
"138 271 CURVE",
"134 272 OFFCURVE",
"131 272 OFFCURVE",
"129 273 CURVE SMOOTH",
"127 274 OFFCURVE",
"126 274 OFFCURVE",
"126 274 CURVE",
"123 275 OFFCURVE",
"121 276 OFFCURVE",
"119 277 CURVE",
"116 278 OFFCURVE",
"114 279 OFFCURVE",
"113 280 CURVE",
"111 281 OFFCURVE",
"109 283 OFFCURVE",
"108 284 CURVE",
"106 285 OFFCURVE",
"104 286 OFFCURVE",
"103 287 CURVE",
"101 290 OFFCURVE",
"99 292 OFFCURVE",
"98 295 CURVE",
"96 297 OFFCURVE",
"95 300 OFFCURVE",
"94 303 CURVE SMOOTH",
"93 306 OFFCURVE",
"92 309 OFFCURVE",
"91 313 CURVE",
"90 316 OFFCURVE",
"90 320 OFFCURVE",
"90 324 CURVE SMOOTH",
"90 327 OFFCURVE",
"90 331 OFFCURVE",
"91 334 CURVE",
"91 337 OFFCURVE",
"91 339 OFFCURVE",
"92 342 CURVE SMOOTH",
"93 345 OFFCURVE",
"94 347 OFFCURVE",
"95 350 CURVE",
"96 352 OFFCURVE",
"98 354 OFFCURVE",
"99 356 CURVE SMOOTH",
"100 358 OFFCURVE",
"102 360 OFFCURVE",
"104 362 CURVE",
"106 363 OFFCURVE",
"108 365 OFFCURVE",
"110 366 CURVE SMOOTH",
"112 367 OFFCURVE",
"114 367 OFFCURVE",
"117 368 CURVE SMOOTH",
"120 369 OFFCURVE",
"123 369 OFFCURVE",
"126 369 CURVE SMOOTH",
"162 369 LINE",
"172 368 LINE",
"180 366 LINE",
"183 365 OFFCURVE",
"185 365 OFFCURVE",
"188 364 CURVE SMOOTH",
"191 363 OFFCURVE",
"193 361 OFFCURVE",
"196 360 CURVE",
"198 358 OFFCURVE",
"200 356 OFFCURVE",
"202 355 CURVE",
"203 353 OFFCURVE",
"205 351 OFFCURVE",
"206 349 CURVE SMOOTH",
"207 347 OFFCURVE",
"209 345 OFFCURVE",
"210 343 CURVE",
"211 340 OFFCURVE",
"211 338 OFFCURVE",
"212 335 CURVE SMOOTH",
"213 332 OFFCURVE",
"213 328 OFFCURVE",
"214 325 CURVE SMOOTH",
"215 322 OFFCURVE",
"215 318 OFFCURVE",
"216 314 CURVE",
"288 314 LINE",
"288 325 OFFCURVE",
"287 334 OFFCURVE",
"285 343 CURVE",
"282 352 OFFCURVE",
"279 360 OFFCURVE",
"275 368 CURVE",
"270 375 OFFCURVE",
"265 382 OFFCURVE",
"259 388 CURVE",
"252 394 OFFCURVE",
"245 399 OFFCURVE",
"237 403 CURVE",
"232 406 OFFCURVE",
"227 409 OFFCURVE",
"222 411 CURVE SMOOTH",
"217 413 OFFCURVE",
"211 415 OFFCURVE",
"205 417 CURVE",
"198 419 OFFCURVE",
"192 421 OFFCURVE",
"185 422 CURVE SMOOTH",
"178 423 OFFCURVE",
"170 423 OFFCURVE",
"162 424 CURVE",
"162 480 LINE",
"126 480 LINE",
"126 424 LINE",
"122 423 OFFCURVE",
"118 423 OFFCURVE",
"114 423 CURVE",
"110 422 OFFCURVE",
"107 422 OFFCURVE",
"104 421 CURVE SMOOTH",
"101 420 OFFCURVE",
"98 420 OFFCURVE",
"95 419 CURVE SMOOTH",
"92 418 OFFCURVE",
"89 418 OFFCURVE",
"87 417 CURVE",
"83 416 OFFCURVE",
"79 414 OFFCURVE",
"76 413 CURVE",
"73 411 OFFCURVE",
"69 409 OFFCURVE",
"66 407 CURVE SMOOTH",
"63 405 OFFCURVE",
"60 403 OFFCURVE",
"57 400 CURVE SMOOTH",
"54 397 OFFCURVE",
"50 394 OFFCURVE",
"47 391 CURVE",
"45 388 OFFCURVE",
"43 386 OFFCURVE",
"41 383 CURVE SMOOTH",
"39 380 OFFCURVE",
"37 378 OFFCURVE",
"35 375 CURVE SMOOTH",
"33 372 OFFCURVE",
"31 369 OFFCURVE",
"30 366 CURVE SMOOTH",
"29 363 OFFCURVE",
"27 359 OFFCURVE",
"26 356 CURVE SMOOTH",
"25 353 OFFCURVE",
"24 349 OFFCURVE",
"23 346 CURVE",
"22 342 OFFCURVE",
"21 338 OFFCURVE",
"20 335 CURVE",
"19 331 OFFCURVE",
"19 327 OFFCURVE",
"19 323 CURVE",
"18 319 OFFCURVE",
"18 315 OFFCURVE",
"18 311 CURVE SMOOTH",
"18 304 OFFCURVE",
"18 298 OFFCURVE",
"19 293 CURVE SMOOTH",
"20 287 OFFCURVE",
"21 281 OFFCURVE",
"23 276 CURVE",
"24 271 OFFCURVE",
"26 266 OFFCURVE",
"29 261 CURVE SMOOTH",
"32 256 OFFCURVE",
"35 251 OFFCURVE",
"38 246 CURVE",
"41 242 OFFCURVE",
"45 238 OFFCURVE",
"50 234 CURVE",
"54 230 OFFCURVE",
"59 226 OFFCURVE",
"65 223 CURVE",
"70 219 OFFCURVE",
"76 216 OFFCURVE",
"83 213 CURVE SMOOTH",
"90 210 OFFCURVE",
"97 207 OFFCURVE",
"105 205 CURVE",
"126 198 LINE",
"162 189 LINE SMOOTH",
"166 188 OFFCURVE",
"170 186 OFFCURVE",
"174 185 CURVE",
"177 183 OFFCURVE",
"181 181 OFFCURVE",
"184 180 CURVE SMOOTH",
"187 179 OFFCURVE",
"189 177 OFFCURVE",
"192 176 CURVE",
"194 175 OFFCURVE",
"196 173 OFFCURVE",
"198 172 CURVE",
"201 169 OFFCURVE",
"203 167 OFFCURVE",
"206 164 CURVE",
"208 161 OFFCURVE",
"210 158 OFFCURVE",
"212 155 CURVE",
"213 152 OFFCURVE",
"214 148 OFFCURVE",
"215 145 CURVE",
"216 141 OFFCURVE",
"216 137 OFFCURVE",
"216 133 CURVE SMOOTH",
"216 128 OFFCURVE",
"216 123 OFFCURVE",
"215 118 CURVE SMOOTH",
"214 113 OFFCURVE",
"213 109 OFFCURVE",
"212 106 CURVE",
"210 102 OFFCURVE",
"208 99 OFFCURVE",
"206 96 CURVE",
"203 93 OFFCURVE",
"200 90 OFFCURVE",
"197 88 CURVE",
"195 87 OFFCURVE",
"193 86 OFFCURVE",
"191 85 CURVE",
"188 84 OFFCURVE",
"186 83 OFFCURVE",
"183 82 CURVE SMOOTH",
"180 81 OFFCURVE",
"176 80 OFFCURVE",
"173 79 CURVE SMOOTH",
"170 78 OFFCURVE",
"166 78 OFFCURVE",
"162 77 CURVE",
"126 77 LINE",
"121 78 OFFCURVE",
"116 80 OFFCURVE",
"112 81 CURVE",
"107 82 OFFCURVE",
"103 84 OFFCURVE",
"100 86 CURVE",
"96 88 OFFCURVE",
"93 90 OFFCURVE",
"90 93 CURVE SMOOTH",
"87 96 OFFCURVE",
"85 99 OFFCURVE",
"83 102 CURVE",
"82 104 OFFCURVE",
"81 107 OFFCURVE",
"80 110 CURVE SMOOTH",
"79 113 OFFCURVE",
"78 116 OFFCURVE",
"77 120 CURVE SMOOTH",
"76 124 OFFCURVE",
"75 129 OFFCURVE",
"74 134 CURVE SMOOTH",
"73 139 OFFCURVE",
"73 144 OFFCURVE",
"72 150 CURVE",
"0 150 LINE",
"0 138 OFFCURVE",
"1 127 OFFCURVE",
"3 116 CURVE",
"4 105 OFFCURVE",
"7 96 OFFCURVE",
"11 87 CURVE SMOOTH",
"15 78 OFFCURVE",
"20 71 OFFCURVE",
"26 64 CURVE",
"31 57 OFFCURVE",
"38 51 OFFCURVE",
"46 46 CURVE",
"50 43 OFFCURVE",
"55 41 OFFCURVE",
"61 38 CURVE",
"66 35 OFFCURVE",
"72 33 OFFCURVE",
"79 32 CURVE",
"86 30 OFFCURVE",
"93 28 OFFCURVE",
"101 27 CURVE",
"109 25 OFFCURVE",
"117 24 OFFCURVE",
"126 23 CURVE",
"126 -32 LINE",
"162 -32 LINE",
"162 23 LINE"
);
}
);
width = 288;
}
);
unicode = E61E;
},
{
glyphname = uniE61F;
layers = (
{
layerId = "19B4AD07-3ADD-4C6B-9307-3D60BE925762";
name = Regular;
paths = (
{
closed = 1;
nodes = (
"430 480 LINE",
"378 480 LINE",
"359 287 LINE",
"324 287 LINE",
"324 371 LINE",
"243 287 LINE",
"219 287 LINE",
"219 371 LINE",
"138 287 LINE",
"114 287 LINE",
"114 371 LINE",
"33 287 LINE",
"0 287 LINE",
"0 -32 LINE",
"480 -32 LINE",
"480 287 LINE",
"448 287 LINE"
);
},
{
closed = 1;
nodes = (
"68 16 LINE",
"68 105 LINE",
"154 105 LINE",
"154 16 LINE"
);
},
{
closed = 1;
nodes = (
"68 141 LINE",
"68 229 LINE",
"154 229 LINE",
"154 141 LINE"
);
},
{
closed = 1;
nodes = (
"196 16 LINE",
"196 105 LINE",
"282 105 LINE",
"282 16 LINE"
);
},
{
closed = 1;
nodes = (
"196 141 LINE",
"196 229 LINE",
"282 229 LINE",
"282 141 LINE"
);
},
{
closed = 1;
nodes = (
"324 16 LINE",
"324 105 LINE",
"409 105 LINE",
"409 16 LINE"
);
},
{
closed = 1;
nodes = (
"324 141 LINE",
"324 229 LINE",
"409 229 LINE",
"409 141 LINE"
);
}
);
width = 480;
}
);
unicode = E61F;
},
{
glyphname = uniE620;
layers = (
{
layerId = "19B4AD07-3ADD-4C6B-9307-3D60BE925762";
name = Regular;
paths = (
{
closed = 1;
nodes = (
"221 -32 OFFCURVE",
"188 -25 OFFCURVE",
"157 -12 CURVE SMOOTH",
"126 1 OFFCURVE",
"98 20 OFFCURVE",
"75 43 CURVE SMOOTH",
"52 66 OFFCURVE",
"33 94 OFFCURVE",
"20 125 CURVE SMOOTH",
"7 156 OFFCURVE",
"0 189 OFFCURVE",
"0 224 CURVE SMOOTH",
"0 259 OFFCURVE",
"7 293 OFFCURVE",
"20 324 CURVE SMOOTH",
"33 355 OFFCURVE",
"52 382 OFFCURVE",
"75 405 CURVE SMOOTH",
"98 428 OFFCURVE",
"126 447 OFFCURVE",
"157 460 CURVE SMOOTH",
"188 473 OFFCURVE",
"221 480 OFFCURVE",
"256 480 CURVE SMOOTH",
"291 480 OFFCURVE",
"325 473 OFFCURVE",
"356 460 CURVE SMOOTH",
"387 447 OFFCURVE",
"414 428 OFFCURVE",
"437 405 CURVE SMOOTH",
"460 382 OFFCURVE",
"479 355 OFFCURVE",
"492 324 CURVE SMOOTH",
"505 293 OFFCURVE",
"512 259 OFFCURVE",
"512 224 CURVE SMOOTH",
"512 189 OFFCURVE",
"505 156 OFFCURVE",
"492 125 CURVE SMOOTH",
"479 94 OFFCURVE",
"460 66 OFFCURVE",
"437 43 CURVE SMOOTH",
"414 20 OFFCURVE",
"387 1 OFFCURVE",
"356 -12 CURVE SMOOTH",
"325 -25 OFFCURVE",
"291 -32 OFFCURVE",
"256 -32 CURVE SMOOTH"
);
},
{
closed = 1;
nodes = (
"227 430 OFFCURVE",
"201 425 OFFCURVE",
"176 414 CURVE SMOOTH",
"151 403 OFFCURVE",
"129 389 OFFCURVE",
"110 370 CURVE SMOOTH",
"91 351 OFFCURVE",
"77 330 OFFCURVE",
"66 305 CURVE SMOOTH",
"55 280 OFFCURVE",
"50 253 OFFCURVE",
"50 224 CURVE SMOOTH",
"50 195 OFFCURVE",
"55 169 OFFCURVE",
"66 144 CURVE SMOOTH",
"77 119 OFFCURVE",
"91 97 OFFCURVE",
"110 78 CURVE SMOOTH",
"129 59 OFFCURVE",
"151 45 OFFCURVE",
"176 34 CURVE SMOOTH",
"201 23 OFFCURVE",
"227 18 OFFCURVE",
"256 18 CURVE SMOOTH",
"285 18 OFFCURVE",
"312 23 OFFCURVE",
"337 34 CURVE SMOOTH",
"362 45 OFFCURVE",
"383 59 OFFCURVE",
"402 78 CURVE SMOOTH",
"421 97 OFFCURVE",
"435 119 OFFCURVE",
"446 144 CURVE SMOOTH",
"457 169 OFFCURVE",
"462 195 OFFCURVE",
"462 224 CURVE SMOOTH",
"462 253 OFFCURVE",
"457 280 OFFCURVE",
"446 305 CURVE SMOOTH",
"435 330 OFFCURVE",
"421 351 OFFCURVE",
"402 370 CURVE SMOOTH",
"383 389 OFFCURVE",
"362 403 OFFCURVE",
"337 414 CURVE SMOOTH",
"312 425 OFFCURVE",
"285 430 OFFCURVE",
"256 430 CURVE SMOOTH"
);
},
{
closed = 1;
nodes = (
"426 278 OFFCURVE",
"426 280 OFFCURVE",
"425 283 CURVE",
"424 285 OFFCURVE",
"423 287 OFFCURVE",
"422 289 CURVE SMOOTH",
"421 291 OFFCURVE",
"421 293 OFFCURVE",
"420 296 CURVE",
"419 298 OFFCURVE",
"417 300 OFFCURVE",
"416 302 CURVE",
"364 278 LINE",
"365 276 OFFCURVE",
"366 274 OFFCURVE",
"367 272 CURVE SMOOTH",
"368 270 OFFCURVE",
"369 268 OFFCURVE",
"370 266 CURVE",
"371 263 OFFCURVE",
"372 261 OFFCURVE",
"373 259 CURVE",
"374 256 OFFCURVE",
"374 254 OFFCURVE",
"375 252 CURVE",
"427 275 LINE"
);
},
{
closed = 1;
nodes = (
"160 296 OFFCURVE",
"162 298 OFFCURVE",
"164 300 CURVE",
"165 302 OFFCURVE",
"167 304 OFFCURVE",
"169 306 CURVE SMOOTH",
"170 307 OFFCURVE",
"172 309 OFFCURVE",
"174 311 CURVE SMOOTH",
"175 312 OFFCURVE",
"177 314 OFFCURVE",
"178 315 CURVE",
"138 357 LINE",
"137 356 OFFCURVE",
"135 354 OFFCURVE",
"133 353 CURVE",
"131 351 OFFCURVE",
"129 349 OFFCURVE",
"128 348 CURVE",
"127 346 OFFCURVE",
"125 344 OFFCURVE",
"124 342 CURVE",
"122 340 OFFCURVE",
"120 338 OFFCURVE",
"119 337 CURVE",
"159 295 LINE"
);
},
{
closed = 1;
nodes = (
"198 328 OFFCURVE",
"200 330 OFFCURVE",
"202 331 CURVE SMOOTH",
"204 332 OFFCURVE",
"206 333 OFFCURVE",
"208 334 CURVE SMOOTH",
"210 335 OFFCURVE",
"212 335 OFFCURVE",
"215 336 CURVE",
"217 337 OFFCURVE",
"219 337 OFFCURVE",
"221 338 CURVE",
"199 393 LINE",
"197 392 OFFCURVE",
"195 392 OFFCURVE",
"193 391 CURVE",
"190 390 OFFCURVE",
"188 389 OFFCURVE",
"186 388 CURVE SMOOTH",
"184 387 OFFCURVE",
"182 386 OFFCURVE",
"180 385 CURVE SMOOTH",
"178 384 OFFCURVE",
"176 383 OFFCURVE",
"173 382 CURVE",
"195 327 LINE"
);
},
{
closed = 1;
nodes = (
"138 252 OFFCURVE",
"138 254 OFFCURVE",
"139 257 CURVE",
"140 259 OFFCURVE",
"141 261 OFFCURVE",
"142 264 CURVE",
"143 266 OFFCURVE",
"144 268 OFFCURVE",
"145 270 CURVE SMOOTH",
"146 272 OFFCURVE",
"146 274 OFFCURVE",
"147 276 CURVE",
"95 299 LINE",
"94 297 OFFCURVE",
"93 295 OFFCURVE",
"92 293 CURVE",
"91 290 OFFCURVE",
"90 288 OFFCURVE",
"89 286 CURVE SMOOTH",
"88 284 OFFCURVE",
"87 282 OFFCURVE",
"86 280 CURVE",
"85 277 OFFCURVE",
"85 275 OFFCURVE",
"84 273 CURVE",
"137 250 LINE"
);
},
{
closed = 1;
nodes = (
"336 383 OFFCURVE",
"334 385 OFFCURVE",
"332 386 CURVE",
"329 387 OFFCURVE",
"327 387 OFFCURVE",
"325 388 CURVE SMOOTH",
"323 389 OFFCURVE",
"321 390 OFFCURVE",
"319 391 CURVE SMOOTH",
"317 392 OFFCURVE",
"315 392 OFFCURVE",
"312 393 CURVE",
"290 338 LINE",
"293 337 OFFCURVE",
"295 337 OFFCURVE",
"297 336 CURVE SMOOTH",
"299 335 OFFCURVE",
"301 335 OFFCURVE",
"304 334 CURVE",
"306 333 OFFCURVE",
"308 332 OFFCURVE",
"310 331 CURVE SMOOTH",
"312 330 OFFCURVE",
"314 328 OFFCURVE",
"316 327 CURVE",
"338 382 LINE"
);
},
{
closed = 1;
nodes = (
"392 338 OFFCURVE",
"390 340 OFFCURVE",
"389 342 CURVE",
"387 344 OFFCURVE",
"385 346 OFFCURVE",
"384 348 CURVE",
"382 349 OFFCURVE",
"380 351 OFFCURVE",
"379 353 CURVE",
"377 354 OFFCURVE",
"375 356 OFFCURVE",
"374 357 CURVE",
"333 315 LINE",
"335 314 OFFCURVE",
"337 312 OFFCURVE",
"339 311 CURVE",
"340 309 OFFCURVE",
"342 307 OFFCURVE",
"344 306 CURVE",
"345 304 OFFCURVE",
"347 302 OFFCURVE",
"349 300 CURVE",
"350 298 OFFCURVE",
"352 296 OFFCURVE",
"353 295 CURVE",
"393 337 LINE"
);
},
{
closed = 1;
nodes = (
"269 402 OFFCURVE",
"268 402 OFFCURVE",
"267 402 CURVE SMOOTH",
"266 402 OFFCURVE",
"264 402 OFFCURVE",
"263 402 CURVE SMOOTH",
"262 402 OFFCURVE",
"261 402 OFFCURVE",
"260 402 CURVE SMOOTH",
"259 402 OFFCURVE",
"257 402 OFFCURVE",
"256 402 CURVE SMOOTH",
"255 402 OFFCURVE",
"254 402 OFFCURVE",
"253 402 CURVE SMOOTH",
"252 402 OFFCURVE",
"250 402 OFFCURVE",
"249 402 CURVE SMOOTH",
"248 402 OFFCURVE",
"247 402 OFFCURVE",
"246 402 CURVE SMOOTH",
"245 402 OFFCURVE",
"243 402 OFFCURVE",
"242 402 CURVE",
"242 342 LINE",
"243 343 OFFCURVE",
"245 343 OFFCURVE",
"246 343 CURVE SMOOTH",
"247 343 OFFCURVE",
"248 343 OFFCURVE",
"249 343 CURVE SMOOTH",
"250 343 OFFCURVE",
"252 343 OFFCURVE",
"253 343 CURVE SMOOTH",
"254 343 OFFCURVE",
"255 343 OFFCURVE",
"256 343 CURVE SMOOTH",
"257 343 OFFCURVE",
"259 343 OFFCURVE",
"260 343 CURVE SMOOTH",
"261 343 OFFCURVE",
"262 343 OFFCURVE",
"263 343 CURVE SMOOTH",
"264 343 OFFCURVE",
"266 343 OFFCURVE",
"267 343 CURVE SMOOTH",
"268 343 OFFCURVE",
"269 343 OFFCURVE",
"270 342 CURVE",
"270 402 LINE"
);
},
{
closed = 1;
nodes = (
"249 108 OFFCURVE",
"243 109 OFFCURVE",
"237 112 CURVE",
"230 115 OFFCURVE",
"225 118 OFFCURVE",
"221 123 CURVE",
"216 127 OFFCURVE",
"213 132 OFFCURVE",
"210 139 CURVE",
"207 145 OFFCURVE",
"206 151 OFFCURVE",
"206 158 CURVE SMOOTH",
"206 163 OFFCURVE",
"207 167 OFFCURVE",
"208 172 CURVE",
"209 176 OFFCURVE",
"211 180 OFFCURVE",
"214 184 CURVE",
"216 187 OFFCURVE",
"219 191 OFFCURVE",
"222 194 CURVE SMOOTH",
"225 197 OFFCURVE",
"228 199 OFFCURVE",
"232 202 CURVE",
"256 315 LINE",
"280 202 LINE",
"284 199 OFFCURVE",
"288 197 OFFCURVE",
"291 194 CURVE SMOOTH",
"294 191 OFFCURVE",
"296 187 OFFCURVE",
"299 184 CURVE",
"301 180 OFFCURVE",
"303 176 OFFCURVE",
"304 172 CURVE",
"305 167 OFFCURVE",
"306 163 OFFCURVE",
"306 158 CURVE SMOOTH",
"306 151 OFFCURVE",
"305 145 OFFCURVE",
"302 139 CURVE",
"299 132 OFFCURVE",
"296 127 OFFCURVE",
"292 123 CURVE SMOOTH",
"287 118 OFFCURVE",
"282 115 OFFCURVE",
"276 112 CURVE",
"269 109 OFFCURVE",
"263 108 OFFCURVE",
"256 108 CURVE SMOOTH"
);
}
);
width = 512;
}
);
unicode = E620;
},
{
glyphname = uniE621;
layers = (
{
layerId = "19B4AD07-3ADD-4C6B-9307-3D60BE925762";
name = Regular;
paths = (
{
closed = 1;
nodes = (
"561 81 LINE",
"704 224 LINE",
"561 367 LINE",
"561 296 LINE",
"305 296 LINE",
"305 152 LINE",
"561 152 LINE"
);
},
{
closed = 1;
nodes = (
"485 -32 LINE",
"0 -32 LINE",
"0 480 LINE",
"485 480 LINE",
"485 347 LINE",
"417 347 LINE",
"417 412 LINE",
"68 412 LINE",
"68 36 LINE",
"417 36 LINE",
"417 101 LINE",
"485 101 LINE"
);
}
);
width = 704;
}
);
unicode = E621;
},
{
glyphname = uniE622;
layers = (
{
layerId = "19B4AD07-3ADD-4C6B-9307-3D60BE925762";
name = Regular;
paths = (
{
closed = 1;
nodes = (
"466 345 LINE",
"458 353 OFFCURVE",
"449 360 OFFCURVE",
"440 367 CURVE",
"430 373 OFFCURVE",
"420 378 OFFCURVE",
"409 383 CURVE",
"398 387 OFFCURVE",
"386 390 OFFCURVE",
"374 393 CURVE SMOOTH",
"362 396 OFFCURVE",
"350 397 OFFCURVE",
"338 397 CURVE SMOOTH",
"313 397 OFFCURVE",
"289 392 OFFCURVE",
"267 383 CURVE SMOOTH",
"244 374 OFFCURVE",
"225 361 OFFCURVE",
"209 345 CURVE SMOOTH",
"192 329 OFFCURVE",
"179 310 OFFCURVE",
"170 289 CURVE SMOOTH",
"160 267 OFFCURVE",
"155 244 OFFCURVE",
"155 219 CURVE",
"155 219 OFFCURVE",
"155 219 OFFCURVE",
"155 219 CURVE SMOOTH",
"155 219 OFFCURVE",
"155 219 OFFCURVE",
"155 219 CURVE SMOOTH",
"155 219 OFFCURVE",
"155 219 OFFCURVE",
"155 219 CURVE SMOOTH",
"155 219 OFFCURVE",
"155 219 OFFCURVE",
"155 219 CURVE",
"226 219 LINE",
"113 110 LINE",
"0 219 LINE",
"69 219 LINE",
"69 219 OFFCURVE",
"69 219 OFFCURVE",
"69 219 CURVE SMOOTH",
"69 219 OFFCURVE",
"69 219 OFFCURVE",
"69 219 CURVE SMOOTH",
"69 219 OFFCURVE",
"69 219 OFFCURVE",
"69 219 CURVE SMOOTH",
"69 219 OFFCURVE",
"69 219 OFFCURVE",
"69 219 CURVE",
"69 255 OFFCURVE",
"76 289 OFFCURVE",
"90 321 CURVE SMOOTH",
"104 352 OFFCURVE",
"123 380 OFFCURVE",
"148 404 CURVE SMOOTH",
"172 427 OFFCURVE",
"200 446 OFFCURVE",
"233 460 CURVE SMOOTH",
"266 473 OFFCURVE",
"301 480 OFFCURVE",
"338 480 CURVE SMOOTH",
"356 480 OFFCURVE",
"374 478 OFFCURVE",
"392 475 CURVE",
"409 471 OFFCURVE",
"426 466 OFFCURVE",
"442 460 CURVE",
"458 453 OFFCURVE",
"473 445 OFFCURVE",
"488 436 CURVE",
"502 426 OFFCURVE",
"515 415 OFFCURVE",
"527 404 CURVE"
);
},
{
closed = 1;
nodes = (
"559 338 LINE",
"446 229 LINE",
"517 229 LINE",
"517 229 OFFCURVE",
"517 229 OFFCURVE",
"517 229 CURVE SMOOTH",
"517 229 OFFCURVE",
"517 229 OFFCURVE",
"517 229 CURVE SMOOTH",
"517 229 OFFCURVE",
"517 229 OFFCURVE",
"517 229 CURVE SMOOTH",
"517 229 OFFCURVE",
"517 229 OFFCURVE",
"517 229 CURVE",
"517 204 OFFCURVE",
"512 181 OFFCURVE",
"503 160 CURVE SMOOTH",
"493 138 OFFCURVE",
"480 119 OFFCURVE",
"464 103 CURVE SMOOTH",
"447 87 OFFCURVE",
"428 74 OFFCURVE",
"406 65 CURVE SMOOTH",
"383 56 OFFCURVE",
"359 51 OFFCURVE",
"334 51 CURVE SMOOTH",
"322 51 OFFCURVE",
"310 52 OFFCURVE",
"298 55 CURVE SMOOTH",
"286 58 OFFCURVE",
"275 61 OFFCURVE",
"264 66 CURVE",
"253 70 OFFCURVE",
"242 75 OFFCURVE",
"233 82 CURVE",
"223 88 OFFCURVE",
"214 95 OFFCURVE",
"206 103 CURVE",
"145 44 LINE",
"157 33 OFFCURVE",
"170 22 OFFCURVE",
"185 13 CURVE",
"199 3 OFFCURVE",
"214 -5 OFFCURVE",
"230 -11 CURVE",
"246 -18 OFFCURVE",
"263 -23 OFFCURVE",
"281 -26 CURVE",
"298 -30 OFFCURVE",
"316 -32 OFFCURVE",
"334 -32 CURVE SMOOTH",
"371 -32 OFFCURVE",
"406 -25 OFFCURVE",
"439 -11 CURVE SMOOTH",
"472 2 OFFCURVE",
"500 21 OFFCURVE",
"525 45 CURVE SMOOTH",
"549 68 OFFCURVE",
"568 96 OFFCURVE",
"582 128 CURVE SMOOTH",
"596 159 OFFCURVE",
"603 193 OFFCURVE",
"603 229 CURVE",
"603 229 OFFCURVE",
"603 229 OFFCURVE",
"603 229 CURVE SMOOTH",
"603 229 OFFCURVE",
"603 229 OFFCURVE",
"603 229 CURVE SMOOTH",
"603 229 OFFCURVE",
"603 229 OFFCURVE",
"603 229 CURVE SMOOTH",
"603 229 OFFCURVE",
"603 229 OFFCURVE",
"603 229 CURVE",
"672 229 LINE"
);
}
);
width = 672;
}
);
unicode = E622;
},
{
glyphname = uniE623;
layers = (
{
layerId = "19B4AD07-3ADD-4C6B-9307-3D60BE925762";
name = Regular;
paths = (
{
closed = 1;
nodes = (
"251 146 LINE",
"251 146 OFFCURVE",
"249 145 OFFCURVE",
"245 143 CURVE SMOOTH",
"241 141 OFFCURVE",
"237 139 OFFCURVE",
"232 136 CURVE SMOOTH",
"227 133 OFFCURVE",
"222 131 OFFCURVE",
"218 129 CURVE",
"213 126 OFFCURVE",
"211 125 OFFCURVE",
"211 125 CURVE",
"200 119 OFFCURVE",
"187 124 OFFCURVE",
"172 141 CURVE SMOOTH",
"157 158 OFFCURVE",
"144 178 OFFCURVE",
"133 202 CURVE SMOOTH",
"122 225 OFFCURVE",
"114 248 OFFCURVE",
"110 271 CURVE SMOOTH",
"106 294 OFFCURVE",
"109 308 OFFCURVE",
"120 315 CURVE",
"161 336 LINE",
"93 480 LINE",
"93 480 OFFCURVE",
"91 479 OFFCURVE",
"87 477 CURVE",
"82 474 OFFCURVE",
"77 472 OFFCURVE",
"72 469 CURVE SMOOTH",
"67 466 OFFCURVE",
"62 464 OFFCURVE",
"58 462 CURVE",
"54 459 OFFCURVE",
"52 458 OFFCURVE",
"51 458 CURVE",
"44 454 OFFCURVE",
"36 448 OFFCURVE",
"25 440 CURVE",
"14 431 OFFCURVE",
"7 417 OFFCURVE",
"3 396 CURVE",
"-2 375 OFFCURVE",
"0 346 OFFCURVE",
"7 310 CURVE SMOOTH",
"14 273 OFFCURVE",
"32 225 OFFCURVE",
"61 164 CURVE SMOOTH",
"90 103 OFFCURVE",
"116 59 OFFCURVE",
"139 31 CURVE SMOOTH",
"162 3 OFFCURVE",
"183 -15 OFFCURVE",
"202 -24 CURVE SMOOTH",
"220 -33 OFFCURVE",
"235 -35 OFFCURVE",
"248 -31 CURVE SMOOTH",
"261 -27 OFFCURVE",
"271 -23 OFFCURVE",
"279 -19 CURVE",
"280 -18 OFFCURVE",
"282 -17 OFFCURVE",
"287 -15 CURVE",
"291 -13 OFFCURVE",
"296 -11 OFFCURVE",
"301 -8 CURVE SMOOTH",
"306 -5 OFFCURVE",
"310 -3 OFFCURVE",
"314 0 CURVE",
"318 2 OFFCURVE",
"320 3 OFFCURVE",
"320 3 CURVE"
);
}
);
width = 320;
}
);
unicode = E623;
},
{
glyphname = uniE624;
layers = (
{
layerId = "19B4AD07-3ADD-4C6B-9307-3D60BE925762";
name = Regular;
paths = (
{
closed = 1;
nodes = (
"138 480 OFFCURVE",
"117 476 OFFCURVE",
"98 468 CURVE",
"79 459 OFFCURVE",
"62 448 OFFCURVE",
"47 433 CURVE SMOOTH",
"32 418 OFFCURVE",
"21 400 OFFCURVE",
"13 381 CURVE SMOOTH",
"4 361 OFFCURVE",
"0 340 OFFCURVE",
"0 318 CURVE SMOOTH",
"0 295 OFFCURVE",
"4 272 OFFCURVE",
"13 247 CURVE",
"21 222 OFFCURVE",
"32 196 OFFCURVE",
"47 168 CURVE",
"61 139 OFFCURVE",
"78 109 OFFCURVE",
"97 76 CURVE SMOOTH",
"116 43 OFFCURVE",
"137 7 OFFCURVE",
"160 -32 CURVE",
"183 7 OFFCURVE",
"204 43 OFFCURVE",
"223 76 CURVE SMOOTH",
"242 109 OFFCURVE",
"259 139 OFFCURVE",
"274 168 CURVE SMOOTH",
"288 196 OFFCURVE",
"299 222 OFFCURVE",
"308 247 CURVE",
"316 272 OFFCURVE",
"320 295 OFFCURVE",
"320 318 CURVE SMOOTH",
"320 340 OFFCURVE",
"316 361 OFFCURVE",
"308 381 CURVE",
"299 400 OFFCURVE",
"288 418 OFFCURVE",
"273 433 CURVE SMOOTH",
"258 448 OFFCURVE",
"241 459 OFFCURVE",
"222 468 CURVE",
"203 476 OFFCURVE",
"182 480 OFFCURVE",
"160 480 CURVE SMOOTH"
);
},
{
closed = 1;
nodes = (
"145 206 OFFCURVE",
"130 209 OFFCURVE",
"117 215 CURVE",
"104 220 OFFCURVE",
"92 228 OFFCURVE",
"82 239 CURVE",
"72 249 OFFCURVE",
"64 261 OFFCURVE",
"59 274 CURVE",
"53 287 OFFCURVE",
"50 302 OFFCURVE",
"50 317 CURVE SMOOTH",
"50 333 OFFCURVE",
"53 348 OFFCURVE",
"59 361 CURVE",
"64 374 OFFCURVE",
"72 386 OFFCURVE",
"82 397 CURVE",
"92 407 OFFCURVE",
"104 415 OFFCURVE",
"117 421 CURVE",
"130 426 OFFCURVE",
"145 429 OFFCURVE",
"160 429 CURVE SMOOTH",
"175 429 OFFCURVE",
"190 426 OFFCURVE",
"203 421 CURVE",
"216 415 OFFCURVE",
"228 407 OFFCURVE",
"238 397 CURVE",
"248 386 OFFCURVE",
"256 374 OFFCURVE",
"262 361 CURVE",
"267 348 OFFCURVE",
"270 333 OFFCURVE",
"270 317 CURVE SMOOTH",
"270 302 OFFCURVE",
"267 287 OFFCURVE",
"262 274 CURVE",
"256 261 OFFCURVE",
"248 249 OFFCURVE",
"238 239 CURVE",
"228 228 OFFCURVE",
"216 220 OFFCURVE",
"203 215 CURVE",
"190 209 OFFCURVE",
"175 206 OFFCURVE",
"160 206 CURVE SMOOTH"
);
}
);
width = 320;
}
);
unicode = E624;
},
{
glyphname = uniE625;
layers = (
{
layerId = "19B4AD07-3ADD-4C6B-9307-3D60BE925762";
name = Regular;
paths = (
{
closed = 1;
nodes = (
"234 423 OFFCURVE",
"237 419 OFFCURVE",
"240 416 CURVE",
"242 412 OFFCURVE",
"244 408 OFFCURVE",
"246 404 CURVE",
"247 400 OFFCURVE",
"249 396 OFFCURVE",
"250 392 CURVE",
"251 387 OFFCURVE",
"251 383 OFFCURVE",
"251 378 CURVE SMOOTH",
"251 375 OFFCURVE",
"251 372 OFFCURVE",
"250 369 CURVE SMOOTH",
"249 366 OFFCURVE",
"249 363 OFFCURVE",
"248 360 CURVE SMOOTH",
"247 357 OFFCURVE",
"247 354 OFFCURVE",
"246 351 CURVE SMOOTH",
"245 348 OFFCURVE",
"243 346 OFFCURVE",
"241 343 CURVE",
"240 340 OFFCURVE",
"238 338 OFFCURVE",
"236 336 CURVE SMOOTH",
"234 334 OFFCURVE",
"232 332 OFFCURVE",
"230 330 CURVE",
"228 327 OFFCURVE",
"226 325 OFFCURVE",
"224 324 CURVE",
"221 322 OFFCURVE",
"219 320 OFFCURVE",
"216 319 CURVE",
"216 95 LINE",
"219 94 OFFCURVE",
"221 92 OFFCURVE",
"224 91 CURVE",
"226 89 OFFCURVE",
"228 87 OFFCURVE",
"230 85 CURVE SMOOTH",
"232 83 OFFCURVE",
"234 81 OFFCURVE",
"236 79 CURVE",
"238 76 OFFCURVE",
"240 74 OFFCURVE",
"241 71 CURVE",
"243 68 OFFCURVE",
"245 66 OFFCURVE",
"246 63 CURVE SMOOTH",
"247 60 OFFCURVE",
"247 58 OFFCURVE",
"248 55 CURVE SMOOTH",
"249 52 OFFCURVE",
"249 50 OFFCURVE",
"250 47 CURVE SMOOTH",
"251 44 OFFCURVE",
"251 40 OFFCURVE",
"251 37 CURVE SMOOTH",
"251 32 OFFCURVE",
"251 27 OFFCURVE",
"250 23 CURVE",
"249 18 OFFCURVE",
"247 14 OFFCURVE",
"246 10 CURVE",
"244 6 OFFCURVE",
"242 2 OFFCURVE",
"240 -1 CURVE",
"237 -5 OFFCURVE",
"234 -9 OFFCURVE",
"231 -12 CURVE SMOOTH",
"228 -15 OFFCURVE",
"224 -18 OFFCURVE",
"221 -20 CURVE",
"217 -23 OFFCURVE",
"213 -25 OFFCURVE",
"209 -26 CURVE",
"204 -28 OFFCURVE",
"200 -29 OFFCURVE",
"196 -30 CURVE",
"191 -31 OFFCURVE",
"186 -31 OFFCURVE",
"181 -31 CURVE SMOOTH",
"176 -31 OFFCURVE",
"172 -31 OFFCURVE",
"167 -30 CURVE SMOOTH",
"162 -29 OFFCURVE",
"158 -28 OFFCURVE",
"154 -26 CURVE",
"150 -25 OFFCURVE",
"146 -23 OFFCURVE",
"143 -20 CURVE",
"139 -18 OFFCURVE",
"135 -15 OFFCURVE",
"132 -12 CURVE SMOOTH",
"129 -9 OFFCURVE",
"126 -5 OFFCURVE",
"124 -1 CURVE",
"121 2 OFFCURVE",
"119 6 OFFCURVE",
"118 10 CURVE",
"116 14 OFFCURVE",
"115 18 OFFCURVE",
"114 23 CURVE",
"113 27 OFFCURVE",
"112 32 OFFCURVE",
"112 37 CURVE SMOOTH",
"112 40 OFFCURVE",
"112 44 OFFCURVE",
"113 47 CURVE",
"113 50 OFFCURVE",
"114 52 OFFCURVE",
"115 55 CURVE SMOOTH",
"116 58 OFFCURVE",
"117 60 OFFCURVE",
"118 63 CURVE SMOOTH",
"119 66 OFFCURVE",
"120 68 OFFCURVE",
"121 71 CURVE",
"123 74 OFFCURVE",
"125 76 OFFCURVE",
"127 79 CURVE",
"128 81 OFFCURVE",
"130 83 OFFCURVE",
"133 85 CURVE",
"135 87 OFFCURVE",
"137 89 OFFCURVE",
"140 91 CURVE",
"142 92 OFFCURVE",
"144 94 OFFCURVE",
"147 95 CURVE",
"147 319 LINE",
"144 320 OFFCURVE",
"142 322 OFFCURVE",
"140 324 CURVE",
"137 325 OFFCURVE",
"135 327 OFFCURVE",
"133 330 CURVE",
"130 332 OFFCURVE",
"128 334 OFFCURVE",
"127 336 CURVE",
"125 338 OFFCURVE",
"123 340 OFFCURVE",
"121 343 CURVE",
"120 346 OFFCURVE",
"119 348 OFFCURVE",
"118 351 CURVE SMOOTH",
"117 354 OFFCURVE",
"116 357 OFFCURVE",
"115 360 CURVE SMOOTH",
"114 363 OFFCURVE",
"113 366 OFFCURVE",
"113 369 CURVE",
"112 372 OFFCURVE",
"112 375 OFFCURVE",
"112 378 CURVE SMOOTH",
"112 383 OFFCURVE",
"113 387 OFFCURVE",
"114 392 CURVE",
"115 396 OFFCURVE",
"116 400 OFFCURVE",
"118 404 CURVE",
"119 408 OFFCURVE",
"121 412 OFFCURVE",
"124 416 CURVE",
"126 419 OFFCURVE",
"129 423 OFFCURVE",
"132 426 CURVE SMOOTH",
"135 429 OFFCURVE",
"139 432 OFFCURVE",
"143 435 CURVE",
"146 437 OFFCURVE",
"150 439 OFFCURVE",
"154 441 CURVE",
"158 442 OFFCURVE",
"162 444 OFFCURVE",
"167 445 CURVE SMOOTH",
"172 446 OFFCURVE",
"176 446 OFFCURVE",
"181 446 CURVE SMOOTH",
"186 446 OFFCURVE",
"191 446 OFFCURVE",
"196 445 CURVE",
"200 444 OFFCURVE",
"204 442 OFFCURVE",
"209 441 CURVE",
"213 439 OFFCURVE",
"217 437 OFFCURVE",
"221 435 CURVE",
"224 432 OFFCURVE",
"228 429 OFFCURVE",
"231 426 CURVE SMOOTH"
);
},
{
closed = 1;
nodes = (
"207 355 OFFCURVE",
"209 357 OFFCURVE",
"210 359 CURVE",
"211 360 OFFCURVE",
"212 362 OFFCURVE",
"213 364 CURVE SMOOTH",
"214 366 OFFCURVE",
"214 368 OFFCURVE",
"215 371 CURVE",
"215 373 OFFCURVE",
"215 375 OFFCURVE",
"215 378 CURVE SMOOTH",
"215 380 OFFCURVE",
"215 382 OFFCURVE",
"215 385 CURVE",
"214 387 OFFCURVE",
"214 389 OFFCURVE",
"213 391 CURVE SMOOTH",
"212 393 OFFCURVE",
"211 395 OFFCURVE",
"210 397 CURVE",
"209 398 OFFCURVE",
"207 400 OFFCURVE",
"206 402 CURVE",
"204 403 OFFCURVE",
"202 405 OFFCURVE",
"201 406 CURVE",
"199 407 OFFCURVE",
"197 408 OFFCURVE",
"195 409 CURVE SMOOTH",
"193 410 OFFCURVE",
"191 410 OFFCURVE",
"189 411 CURVE",
"186 411 OFFCURVE",
"184 411 OFFCURVE",
"181 411 CURVE SMOOTH",
"179 411 OFFCURVE",
"177 411 OFFCURVE",
"175 411 CURVE",
"172 410 OFFCURVE",
"170 410 OFFCURVE",
"168 409 CURVE SMOOTH",
"166 408 OFFCURVE",
"164 407 OFFCURVE",
"162 406 CURVE SMOOTH",
"160 405 OFFCURVE",
"158 403 OFFCURVE",
"157 402 CURVE",
"156 400 OFFCURVE",
"154 398 OFFCURVE",
"153 397 CURVE",
"152 395 OFFCURVE",
"151 393 OFFCURVE",
"150 391 CURVE SMOOTH",
"149 389 OFFCURVE",
"148 387 OFFCURVE",
"148 385 CURVE",
"147 382 OFFCURVE",
"147 380 OFFCURVE",
"147 378 CURVE SMOOTH",
"147 375 OFFCURVE",
"147 373 OFFCURVE",
"148 371 CURVE",
"148 368 OFFCURVE",
"149 366 OFFCURVE",
"150 364 CURVE SMOOTH",
"151 362 OFFCURVE",
"152 360 OFFCURVE",
"153 359 CURVE",
"154 357 OFFCURVE",
"156 355 OFFCURVE",
"157 354 CURVE",
"158 352 OFFCURVE",
"160 351 OFFCURVE",
"162 350 CURVE SMOOTH",
"164 349 OFFCURVE",
"166 348 OFFCURVE",
"168 347 CURVE SMOOTH",
"170 346 OFFCURVE",
"172 345 OFFCURVE",
"175 345 CURVE",
"177 344 OFFCURVE",
"179 344 OFFCURVE",
"181 343 CURVE",
"184 344 OFFCURVE",
"186 344 OFFCURVE",
"189 345 CURVE",
"191 345 OFFCURVE",
"193 346 OFFCURVE",
"195 347 CURVE SMOOTH",
"197 348 OFFCURVE",
"199 349 OFFCURVE",
"201 350 CURVE",
"202 351 OFFCURVE",
"204 352 OFFCURVE",
"206 354 CURVE SMOOTH"
);
},
{
closed = 1;
nodes = (
"207 14 OFFCURVE",
"209 16 OFFCURVE",
"210 18 CURVE",
"211 19 OFFCURVE",
"212 21 OFFCURVE",
"213 23 CURVE SMOOTH",
"214 25 OFFCURVE",
"214 27 OFFCURVE",
"215 30 CURVE",
"215 32 OFFCURVE",
"215 34 OFFCURVE",
"215 36 CURVE SMOOTH",
"215 39 OFFCURVE",
"215 41 OFFCURVE",
"215 43 CURVE",
"214 45 OFFCURVE",
"214 47 OFFCURVE",
"213 49 CURVE SMOOTH",
"212 51 OFFCURVE",
"211 53 OFFCURVE",
"210 55 CURVE SMOOTH",
"209 57 OFFCURVE",
"207 59 OFFCURVE",
"206 60 CURVE SMOOTH",
"204 62 OFFCURVE",
"202 64 OFFCURVE",
"201 65 CURVE",
"199 66 OFFCURVE",
"197 67 OFFCURVE",
"195 68 CURVE SMOOTH",
"193 69 OFFCURVE",
"191 69 OFFCURVE",
"189 70 CURVE",
"186 70 OFFCURVE",
"184 70 OFFCURVE",
"181 70 CURVE SMOOTH",
"179 70 OFFCURVE",
"177 70 OFFCURVE",
"175 70 CURVE",
"172 69 OFFCURVE",
"170 69 OFFCURVE",
"168 68 CURVE SMOOTH",
"166 67 OFFCURVE",
"164 66 OFFCURVE",
"162 65 CURVE SMOOTH",
"160 64 OFFCURVE",
"158 62 OFFCURVE",
"157 60 CURVE",
"156 59 OFFCURVE",
"154 57 OFFCURVE",
"153 55 CURVE SMOOTH",
"152 53 OFFCURVE",
"151 51 OFFCURVE",
"150 49 CURVE SMOOTH",
"149 47 OFFCURVE",
"148 45 OFFCURVE",
"148 43 CURVE",
"147 41 OFFCURVE",
"147 39 OFFCURVE",
"147 36 CURVE SMOOTH",
"147 34 OFFCURVE",
"147 32 OFFCURVE",
"148 30 CURVE",
"148 27 OFFCURVE",
"149 25 OFFCURVE",
"150 23 CURVE SMOOTH",
"151 21 OFFCURVE",
"152 19 OFFCURVE",
"153 18 CURVE",
"154 16 OFFCURVE",
"156 14 OFFCURVE",
"157 12 CURVE",
"158 11 OFFCURVE",
"160 9 OFFCURVE",
"162 8 CURVE SMOOTH",
"164 7 OFFCURVE",
"166 6 OFFCURVE",
"168 5 CURVE SMOOTH",
"170 4 OFFCURVE",
"172 4 OFFCURVE",
"175 3 CURVE",
"177 2 OFFCURVE",
"179 2 OFFCURVE",
"181 2 CURVE SMOOTH",
"184 2 OFFCURVE",
"186 2 OFFCURVE",
"189 3 CURVE",
"191 4 OFFCURVE",
"193 4 OFFCURVE",
"195 5 CURVE SMOOTH",
"197 6 OFFCURVE",
"199 7 OFFCURVE",
"201 8 CURVE",
"202 9 OFFCURVE",
"204 11 OFFCURVE",
"206 12 CURVE"
);
},
{
closed = 1;
nodes = (
"520 68 OFFCURVE",
"522 66 OFFCURVE",
"523 63 CURVE SMOOTH",
"524 60 OFFCURVE",
"525 58 OFFCURVE",
"526 55 CURVE SMOOTH",
"527 52 OFFCURVE",
"527 49 OFFCURVE",
"528 46 CURVE",
"528 43 OFFCURVE",
"528 39 OFFCURVE",
"528 36 CURVE SMOOTH",
"528 31 OFFCURVE",
"528 27 OFFCURVE",
"527 23 CURVE",
"526 18 OFFCURVE",
"524 14 OFFCURVE",
"523 10 CURVE",
"521 5 OFFCURVE",
"519 1 OFFCURVE",
"517 -2 CURVE",
"514 -5 OFFCURVE",
"511 -9 OFFCURVE",
"508 -12 CURVE SMOOTH",
"505 -15 OFFCURVE",
"501 -18 OFFCURVE",
"498 -20 CURVE",
"494 -23 OFFCURVE",
"490 -25 OFFCURVE",
"486 -26 CURVE",
"482 -28 OFFCURVE",
"478 -29 OFFCURVE",
"473 -30 CURVE SMOOTH",
"468 -31 OFFCURVE",
"464 -32 OFFCURVE",
"459 -32 CURVE SMOOTH",
"454 -32 OFFCURVE",
"449 -31 OFFCURVE",
"445 -30 CURVE",
"440 -29 OFFCURVE",
"436 -28 OFFCURVE",
"432 -26 CURVE",
"427 -25 OFFCURVE",
"423 -23 OFFCURVE",
"420 -20 CURVE",
"416 -18 OFFCURVE",
"412 -15 OFFCURVE",
"409 -12 CURVE SMOOTH",
"406 -9 OFFCURVE",
"403 -5 OFFCURVE",
"401 -2 CURVE",
"398 1 OFFCURVE",
"396 5 OFFCURVE",
"395 10 CURVE",
"393 14 OFFCURVE",
"392 18 OFFCURVE",
"391 23 CURVE",
"390 27 OFFCURVE",
"389 31 OFFCURVE",
"389 36 CURVE SMOOTH",
"389 39 OFFCURVE",
"389 43 OFFCURVE",
"390 46 CURVE SMOOTH",
"391 49 OFFCURVE",
"391 52 OFFCURVE",
"392 55 CURVE SMOOTH",
"393 58 OFFCURVE",
"394 60 OFFCURVE",
"395 63 CURVE SMOOTH",
"396 66 OFFCURVE",
"397 68 OFFCURVE",
"399 71 CURVE",
"400 73 OFFCURVE",
"402 75 OFFCURVE",
"404 78 CURVE",
"406 80 OFFCURVE",
"408 82 OFFCURVE",
"410 84 CURVE SMOOTH",
"412 86 OFFCURVE",
"414 88 OFFCURVE",
"417 90 CURVE",
"419 92 OFFCURVE",
"421 94 OFFCURVE",
"424 95 CURVE",
"424 309 LINE SMOOTH",
"424 310 OFFCURVE",
"424 311 OFFCURVE",
"424 312 CURVE SMOOTH",
"424 313 OFFCURVE",
"424 314 OFFCURVE",
"423 315 CURVE SMOOTH",
"422 316 OFFCURVE",
"422 318 OFFCURVE",
"421 320 CURVE SMOOTH",
"420 322 OFFCURVE",
"419 324 OFFCURVE",
"418 326 CURVE",
"417 329 OFFCURVE",
"415 331 OFFCURVE",
"414 333 CURVE",
"412 335 OFFCURVE",
"410 337 OFFCURVE",
"408 338 CURVE",
"405 339 OFFCURVE",
"403 341 OFFCURVE",
"400 342 CURVE SMOOTH",
"397 343 OFFCURVE",
"393 343 OFFCURVE",
"389 343 CURVE SMOOTH",
"355 343 LINE",
"355 275 LINE",
"251 378 LINE",
"355 480 LINE",
"355 412 LINE",
"389 412 LINE",
"390 413 OFFCURVE",
"392 413 OFFCURVE",
"395 413 CURVE",
"398 412 OFFCURVE",
"401 412 OFFCURVE",
"406 411 CURVE",
"410 410 OFFCURVE",
"415 408 OFFCURVE",
"421 406 CURVE SMOOTH",
"427 404 OFFCURVE",
"434 402 OFFCURVE",
"441 399 CURVE",
"449 396 OFFCURVE",
"456 393 OFFCURVE",
"462 388 CURVE SMOOTH",
"468 383 OFFCURVE",
"473 376 OFFCURVE",
"478 369 CURVE",
"482 362 OFFCURVE",
"485 353 OFFCURVE",
"488 343 CURVE SMOOTH",
"491 333 OFFCURVE",
"492 322 OFFCURVE",
"493 309 CURVE",
"493 95 LINE",
"496 94 OFFCURVE",
"498 92 OFFCURVE",
"501 90 CURVE",
"503 88 OFFCURVE",
"505 86 OFFCURVE",
"508 84 CURVE",
"510 82 OFFCURVE",
"512 80 OFFCURVE",
"514 78 CURVE",
"515 75 OFFCURVE",
"517 73 OFFCURVE",
"519 71 CURVE"
);
},
{
closed = 1;
nodes = (
"484 14 OFFCURVE",
"486 16 OFFCURVE",
"487 18 CURVE",
"488 19 OFFCURVE",
"490 21 OFFCURVE",
"491 23 CURVE SMOOTH",
"492 25 OFFCURVE",
"492 27 OFFCURVE",
"493 30 CURVE",
"493 32 OFFCURVE",
"493 34 OFFCURVE",
"493 36 CURVE SMOOTH",
"493 39 OFFCURVE",
"493 41 OFFCURVE",
"493 43 CURVE",
"492 45 OFFCURVE",
"492 47 OFFCURVE",
"491 49 CURVE SMOOTH",
"490 51 OFFCURVE",
"488 53 OFFCURVE",
"487 55 CURVE SMOOTH",
"486 57 OFFCURVE",
"484 59 OFFCURVE",
"483 60 CURVE",
"482 62 OFFCURVE",
"480 64 OFFCURVE",
"478 65 CURVE SMOOTH",
"476 66 OFFCURVE",
"474 67 OFFCURVE",
"472 68 CURVE SMOOTH",
"470 69 OFFCURVE",
"468 69 OFFCURVE",
"466 70 CURVE",
"463 70 OFFCURVE",
"461 70 OFFCURVE",
"459 70 CURVE SMOOTH",
"456 70 OFFCURVE",
"454 70 OFFCURVE",
"452 70 CURVE",
"449 69 OFFCURVE",
"447 69 OFFCURVE",
"445 68 CURVE SMOOTH",
"443 67 OFFCURVE",
"441 66 OFFCURVE",
"440 65 CURVE",
"438 64 OFFCURVE",
"436 62 OFFCURVE",
"434 60 CURVE SMOOTH",
"433 59 OFFCURVE",
"431 57 OFFCURVE",
"430 55 CURVE SMOOTH",
"429 53 OFFCURVE",
"428 51 OFFCURVE",
"427 49 CURVE SMOOTH",
"426 47 OFFCURVE",
"426 45 OFFCURVE",
"426 43 CURVE",
"425 41 OFFCURVE",
"425 39 OFFCURVE",
"425 36 CURVE SMOOTH",
"425 34 OFFCURVE",
"425 32 OFFCURVE",
"426 30 CURVE",
"426 27 OFFCURVE",
"426 25 OFFCURVE",
"427 23 CURVE SMOOTH",
"428 21 OFFCURVE",
"429 19 OFFCURVE",
"430 18 CURVE",
"431 16 OFFCURVE",
"433 14 OFFCURVE",
"434 12 CURVE",
"436 11 OFFCURVE",
"438 9 OFFCURVE",
"440 8 CURVE",
"441 7 OFFCURVE",
"443 6 OFFCURVE",
"445 5 CURVE SMOOTH",
"447 4 OFFCURVE",
"449 4 OFFCURVE",
"452 3 CURVE",
"454 2 OFFCURVE",
"456 2 OFFCURVE",
"459 2 CURVE SMOOTH",
"461 2 OFFCURVE",
"463 2 OFFCURVE",
"466 3 CURVE",
"468 4 OFFCURVE",
"470 4 OFFCURVE",
"472 5 CURVE SMOOTH",
"474 6 OFFCURVE",
"476 7 OFFCURVE",
"478 8 CURVE SMOOTH",
"480 9 OFFCURVE",
"482 11 OFFCURVE",
"483 12 CURVE"
);
}
);
width = 640;
}
);
unicode = E625;
},
{
glyphname = uniE626;
layers = (
{
layerId = "19B4AD07-3ADD-4C6B-9307-3D60BE925762";
name = Regular;
paths = (
{
closed = 1;
nodes = (
"640 180 LINE",
"496 180 LINE",
"493 171 OFFCURVE",
"490 162 OFFCURVE",
"486 153 CURVE SMOOTH",
"482 144 OFFCURVE",
"477 135 OFFCURVE",
"472 128 CURVE",
"467 120 OFFCURVE",
"461 113 OFFCURVE",
"454 106 CURVE SMOOTH",
"447 99 OFFCURVE",
"440 92 OFFCURVE",
"432 86 CURVE",
"425 80 OFFCURVE",
"417 75 OFFCURVE",
"408 70 CURVE SMOOTH",
"399 65 OFFCURVE",
"390 61 OFFCURVE",
"381 58 CURVE SMOOTH",
"372 55 OFFCURVE",
"362 52 OFFCURVE",
"352 51 CURVE",
"341 49 OFFCURVE",
"331 48 OFFCURVE",
"320 48 CURVE SMOOTH",
"309 48 OFFCURVE",
"299 49 OFFCURVE",
"289 51 CURVE",
"278 52 OFFCURVE",
"268 55 OFFCURVE",
"259 58 CURVE SMOOTH",
"250 61 OFFCURVE",
"241 65 OFFCURVE",
"232 70 CURVE SMOOTH",
"223 75 OFFCURVE",
"215 80 OFFCURVE",
"208 86 CURVE",
"200 92 OFFCURVE",
"193 99 OFFCURVE",
"186 106 CURVE SMOOTH",
"179 113 OFFCURVE",
"173 120 OFFCURVE",
"168 128 CURVE",
"163 135 OFFCURVE",
"158 144 OFFCURVE",
"154 153 CURVE SMOOTH",
"150 162 OFFCURVE",
"147 171 OFFCURVE",
"144 180 CURVE",
"0 180 LINE",
"0 268 LINE",
"144 268 LINE",
"147 277 OFFCURVE",
"150 287 OFFCURVE",
"154 296 CURVE SMOOTH",
"158 305 OFFCURVE",
"163 313 OFFCURVE",
"168 321 CURVE",
"173 328 OFFCURVE",
"179 336 OFFCURVE",
"186 343 CURVE SMOOTH",
"193 350 OFFCURVE",
"200 356 OFFCURVE",
"208 362 CURVE",
"215 368 OFFCURVE",
"223 373 OFFCURVE",
"232 378 CURVE SMOOTH",
"241 383 OFFCURVE",
"250 387 OFFCURVE",
"259 390 CURVE SMOOTH",
"268 393 OFFCURVE",
"278 396 OFFCURVE",
"289 398 CURVE",
"299 399 OFFCURVE",
"309 400 OFFCURVE",
"320 400 CURVE SMOOTH",
"331 400 OFFCURVE",
"341 399 OFFCURVE",
"352 398 CURVE",
"362 396 OFFCURVE",
"372 393 OFFCURVE",
"381 390 CURVE SMOOTH",
"390 387 OFFCURVE",
"399 383 OFFCURVE",
"408 378 CURVE SMOOTH",
"417 373 OFFCURVE",
"425 368 OFFCURVE",
"432 362 CURVE",
"440 356 OFFCURVE",
"447 350 OFFCURVE",
"454 343 CURVE SMOOTH",
"461 336 OFFCURVE",
"467 328 OFFCURVE",
"472 321 CURVE",
"477 313 OFFCURVE",
"482 305 OFFCURVE",
"486 296 CURVE SMOOTH",
"490 287 OFFCURVE",
"493 277 OFFCURVE",
"496 268 CURVE",
"640 268 LINE"
);
},
{
closed = 1;
nodes = (
"389 166 OFFCURVE",
"393 170 OFFCURVE",
"396 175 CURVE SMOOTH",
"399 180 OFFCURVE",
"402 185 OFFCURVE",
"405 190 CURVE",
"407 195 OFFCURVE",
"409 200 OFFCURVE",
"410 206 CURVE SMOOTH",
"411 212 OFFCURVE",
"411 218 OFFCURVE",
"411 224 CURVE SMOOTH",
"411 230 OFFCURVE",
"411 236 OFFCURVE",
"410 242 CURVE SMOOTH",
"409 248 OFFCURVE",
"407 254 OFFCURVE",
"405 259 CURVE",
"402 264 OFFCURVE",
"399 268 OFFCURVE",
"396 273 CURVE SMOOTH",
"393 278 OFFCURVE",
"389 282 OFFCURVE",
"385 287 CURVE",
"381 291 OFFCURVE",
"377 295 OFFCURVE",
"372 298 CURVE SMOOTH",
"367 301 OFFCURVE",
"361 303 OFFCURVE",
"356 305 CURVE SMOOTH",
"351 307 OFFCURVE",
"345 309 OFFCURVE",
"339 310 CURVE SMOOTH",
"333 311 OFFCURVE",
"327 312 OFFCURVE",
"320 312 CURVE SMOOTH",
"313 312 OFFCURVE",
"307 311 OFFCURVE",
"301 310 CURVE SMOOTH",
"295 309 OFFCURVE",
"289 307 OFFCURVE",
"284 305 CURVE SMOOTH",
"279 303 OFFCURVE",
"274 301 OFFCURVE",
"269 298 CURVE SMOOTH",
"264 295 OFFCURVE",
"259 291 OFFCURVE",
"255 287 CURVE",
"251 282 OFFCURVE",
"247 278 OFFCURVE",
"244 273 CURVE SMOOTH",
"241 268 OFFCURVE",
"238 264 OFFCURVE",
"236 259 CURVE",
"233 254 OFFCURVE",
"232 248 OFFCURVE",
"231 242 CURVE SMOOTH",
"230 236 OFFCURVE",
"229 230 OFFCURVE",
"229 224 CURVE SMOOTH",
"229 218 OFFCURVE",
"230 212 OFFCURVE",
"231 206 CURVE SMOOTH",
"232 200 OFFCURVE",
"233 195 OFFCURVE",
"236 190 CURVE",
"238 185 OFFCURVE",
"241 180 OFFCURVE",
"244 175 CURVE SMOOTH",
"247 170 OFFCURVE",
"251 166 OFFCURVE",
"255 161 CURVE",
"259 157 OFFCURVE",
"264 154 OFFCURVE",
"269 151 CURVE SMOOTH",
"274 148 OFFCURVE",
"279 145 OFFCURVE",
"284 143 CURVE SMOOTH",
"289 141 OFFCURVE",
"295 139 OFFCURVE",
"301 138 CURVE SMOOTH",
"307 137 OFFCURVE",
"313 136 OFFCURVE",
"320 136 CURVE SMOOTH",
"327 136 OFFCURVE",
"333 137 OFFCURVE",
"339 138 CURVE SMOOTH",
"345 139 OFFCURVE",
"351 141 OFFCURVE",
"356 143 CURVE SMOOTH",
"361 145 OFFCURVE",
"367 148 OFFCURVE",
"372 151 CURVE SMOOTH",
"377 154 OFFCURVE",
"381 157 OFFCURVE",
"385 161 CURVE"
);
}
);
width = 640;
}
);
unicode = E626;
},
{
glyphname = uniE627;
layers = (
{
layerId = "19B4AD07-3ADD-4C6B-9307-3D60BE925762";
name = Regular;
paths = (
{
closed = 1;
nodes = (
"192 352 LINE",
"64 352 LINE",
"64 -32 LINE",
"448 -32 LINE",
"448 96 LINE",
"576 96 LINE",
"576 480 LINE",
"192 480 LINE"
);
},
{
closed = 1;
nodes = (
"128 32 LINE",
"128 288 LINE",
"192 288 LINE",
"192 96 LINE",
"384 96 LINE",
"384 32 LINE"
);
},
{
closed = 1;
nodes = (
"256 160 LINE",
"256 416 LINE",
"512 416 LINE",
"512 160 LINE"
);
}
);
width = 640;
}
);
unicode = E627;
},
{
glyphname = uniE628;
layers = (
{
layerId = "19B4AD07-3ADD-4C6B-9307-3D60BE925762";
name = Regular;
paths = (
{
closed = 1;
nodes = (
"208 -23 OFFCURVE",
"198 -22 OFFCURVE",
"187 -20 CURVE SMOOTH",
"176 -18 OFFCURVE",
"165 -15 OFFCURVE",
"155 -10 CURVE",
"144 -6 OFFCURVE",
"134 -1 OFFCURVE",
"125 6 CURVE",
"116 12 OFFCURVE",
"107 19 OFFCURVE",
"98 27 CURVE",
"90 35 OFFCURVE",
"83 44 OFFCURVE",
"77 53 CURVE",
"70 62 OFFCURVE",
"65 72 OFFCURVE",
"61 83 CURVE SMOOTH",
"57 93 OFFCURVE",
"54 104 OFFCURVE",
"52 115 CURVE",
"49 126 OFFCURVE",
"48 137 OFFCURVE",
"48 148 CURVE SMOOTH",
"48 159 OFFCURVE",
"49 171 OFFCURVE",
"52 182 CURVE",
"54 193 OFFCURVE",
"57 203 OFFCURVE",
"61 214 CURVE SMOOTH",
"65 224 OFFCURVE",
"70 234 OFFCURVE",
"77 243 CURVE",
"83 252 OFFCURVE",
"90 261 OFFCURVE",
"98 269 CURVE SMOOTH",
"268 439 LINE SMOOTH",
"280 451 OFFCURVE",
"294 460 OFFCURVE",
"309 466 CURVE SMOOTH",
"324 472 OFFCURVE",
"339 475 OFFCURVE",
"355 475 CURVE SMOOTH",
"371 475 OFFCURVE",
"387 472 OFFCURVE",
"402 466 CURVE SMOOTH",
"417 460 OFFCURVE",
"430 451 OFFCURVE",
"442 439 CURVE SMOOTH",
"454 427 OFFCURVE",
"463 413 OFFCURVE",
"469 398 CURVE SMOOTH",
"475 383 OFFCURVE",
"478 367 OFFCURVE",
"478 352 CURVE SMOOTH",
"478 336 OFFCURVE",
"475 321 OFFCURVE",
"469 306 CURVE SMOOTH",
"463 291 OFFCURVE",
"454 277 OFFCURVE",
"442 265 CURVE SMOOTH",
"272 95 LINE SMOOTH",
"265 88 OFFCURVE",
"257 82 OFFCURVE",
"248 79 CURVE",
"239 75 OFFCURVE",
"229 73 OFFCURVE",
"220 73 CURVE SMOOTH",
"210 73 OFFCURVE",
"200 75 OFFCURVE",
"191 79 CURVE",
"182 82 OFFCURVE",
"173 88 OFFCURVE",
"166 95 CURVE SMOOTH",
"159 102 OFFCURVE",
"153 111 OFFCURVE",
"150 120 CURVE",
"146 129 OFFCURVE",
"144 139 OFFCURVE",
"144 149 CURVE SMOOTH",
"144 158 OFFCURVE",
"146 168 OFFCURVE",
"150 177 CURVE",
"153 186 OFFCURVE",
"159 194 OFFCURVE",
"166 201 CURVE SMOOTH",
"336 371 LINE SMOOTH",
"339 374 OFFCURVE",
"342 376 OFFCURVE",
"345 377 CURVE SMOOTH",
"348 378 OFFCURVE",
"352 379 OFFCURVE",
"355 379 CURVE SMOOTH",
"358 379 OFFCURVE",
"362 378 OFFCURVE",
"365 377 CURVE SMOOTH",
"368 376 OFFCURVE",
"371 374 OFFCURVE",
"374 371 CURVE SMOOTH",
"377 368 OFFCURVE",
"379 365 OFFCURVE",
"380 362 CURVE SMOOTH",
"381 359 OFFCURVE",
"382 355 OFFCURVE",
"382 352 CURVE SMOOTH",
"382 349 OFFCURVE",
"381 345 OFFCURVE",
"380 342 CURVE SMOOTH",
"379 339 OFFCURVE",
"377 336 OFFCURVE",
"374 333 CURVE SMOOTH",
"204 163 LINE SMOOTH",
"202 161 OFFCURVE",
"201 159 OFFCURVE",
"200 156 CURVE SMOOTH",
"199 153 OFFCURVE",
"198 151 OFFCURVE",
"198 148 CURVE SMOOTH",
"198 145 OFFCURVE",
"199 143 OFFCURVE",
"200 140 CURVE SMOOTH",
"201 137 OFFCURVE",
"202 135 OFFCURVE",
"204 133 CURVE",
"207 131 OFFCURVE",
"209 130 OFFCURVE",
"212 129 CURVE",
"214 128 OFFCURVE",
"216 127 OFFCURVE",
"219 127 CURVE SMOOTH",
"222 127 OFFCURVE",
"224 128 OFFCURVE",
"227 129 CURVE SMOOTH",
"230 130 OFFCURVE",
"232 131 OFFCURVE",
"234 133 CURVE SMOOTH",
"404 303 LINE SMOOTH",
"411 310 OFFCURVE",
"416 317 OFFCURVE",
"419 326 CURVE SMOOTH",
"422 335 OFFCURVE",
"424 343 OFFCURVE",
"424 352 CURVE SMOOTH",
"424 361 OFFCURVE",
"422 369 OFFCURVE",
"419 378 CURVE",
"416 386 OFFCURVE",
"411 393 OFFCURVE",
"404 400 CURVE SMOOTH",
"397 407 OFFCURVE",
"390 412 OFFCURVE",
"381 416 CURVE",
"372 419 OFFCURVE",
"364 421 OFFCURVE",
"355 421 CURVE SMOOTH",
"346 421 OFFCURVE",
"338 419 OFFCURVE",
"329 416 CURVE SMOOTH",
"320 413 OFFCURVE",
"313 407 OFFCURVE",
"306 400 CURVE SMOOTH",
"137 231 LINE SMOOTH",
"131 225 OFFCURVE",
"126 219 OFFCURVE",
"122 213 CURVE",
"118 206 OFFCURVE",
"115 200 OFFCURVE",
"112 193 CURVE SMOOTH",
"109 186 OFFCURVE",
"106 178 OFFCURVE",
"105 171 CURVE",
"103 164 OFFCURVE",
"102 156 OFFCURVE",
"102 148 CURVE SMOOTH",
"102 140 OFFCURVE",
"103 132 OFFCURVE",
"105 125 CURVE",
"106 118 OFFCURVE",
"109 111 OFFCURVE",
"112 104 CURVE SMOOTH",
"115 97 OFFCURVE",
"118 90 OFFCURVE",
"122 84 CURVE",
"126 77 OFFCURVE",
"131 71 OFFCURVE",
"137 66 CURVE",
"148 54 OFFCURVE",
"161 45 OFFCURVE",
"176 40 CURVE",
"190 34 OFFCURVE",
"205 31 OFFCURVE",
"220 31 CURVE SMOOTH",
"235 31 OFFCURVE",
"249 34 OFFCURVE",
"264 40 CURVE",
"278 45 OFFCURVE",
"291 54 OFFCURVE",
"302 65 CURVE",
"302 66 LINE",
"302 66 OFFCURVE",
"302 66 OFFCURVE",
"302 66 CURVE SMOOTH",
"302 66 OFFCURVE",
"302 66 OFFCURVE",
"302 66 CURVE SMOOTH",
"302 66 OFFCURVE",
"302 66 OFFCURVE",
"302 66 CURVE SMOOTH",
"302 66 OFFCURVE",
"302 66 OFFCURVE",
"302 66 CURVE",
"539 303 LINE SMOOTH",
"542 306 OFFCURVE",
"545 308 OFFCURVE",
"548 309 CURVE SMOOTH",
"551 310 OFFCURVE",
"555 311 OFFCURVE",
"559 311 CURVE SMOOTH",
"562 311 OFFCURVE",
"566 310 OFFCURVE",
"569 309 CURVE SMOOTH",
"572 308 OFFCURVE",
"575 306 OFFCURVE",
"578 303 CURVE SMOOTH",
"581 300 OFFCURVE",
"583 297 OFFCURVE",
"584 294 CURVE SMOOTH",
"585 291 OFFCURVE",
"586 287 OFFCURVE",
"586 284 CURVE SMOOTH",
"586 281 OFFCURVE",
"585 277 OFFCURVE",
"584 274 CURVE SMOOTH",
"583 271 OFFCURVE",
"581 268 OFFCURVE",
"578 265 CURVE SMOOTH",
"329 16 LINE",
"328 16 LINE",
"321 9 OFFCURVE",
"313 4 OFFCURVE",
"304 -1 CURVE SMOOTH",
"295 -6 OFFCURVE",
"286 -10 OFFCURVE",
"277 -13 CURVE SMOOTH",
"268 -16 OFFCURVE",
"258 -19 OFFCURVE",
"249 -20 CURVE",
"239 -22 OFFCURVE",
"229 -23 OFFCURVE",
"219 -23 CURVE SMOOTH"
);
}
);
width = 640;
}
);
unicode = E628;
},
{
glyphname = uniE629;
layers = (
{
layerId = "19B4AD07-3ADD-4C6B-9307-3D60BE925762";
name = Regular;
paths = (
{
closed = 1;
nodes = (
"219 480 OFFCURVE",
"215 479 OFFCURVE",
"212 478 CURVE",
"208 476 OFFCURVE",
"205 474 OFFCURVE",
"202 471 CURVE SMOOTH",
"199 468 OFFCURVE",
"196 464 OFFCURVE",
"195 461 CURVE",
"193 457 OFFCURVE",
"192 453 OFFCURVE",
"192 448 CURVE SMOOTH",
"192 384 LINE",
"256 384 LINE",
"256 416 LINE",
"496 416 LINE SMOOTH",
"498 416 OFFCURVE",
"500 416 OFFCURVE",
"502 415 CURVE SMOOTH",
"504 414 OFFCURVE",
"506 412 OFFCURVE",
"507 411 CURVE SMOOTH",
"508 410 OFFCURVE",
"510 408 OFFCURVE",
"511 406 CURVE SMOOTH",
"512 404 OFFCURVE",
"512 402 OFFCURVE",
"512 400 CURVE SMOOTH",
"512 224 LINE",
"480 224 LINE",
"480 160 LINE",
"544 160 LINE SMOOTH",
"549 160 OFFCURVE",
"553 161 OFFCURVE",
"557 163 CURVE",
"560 164 OFFCURVE",
"564 167 OFFCURVE",
"567 170 CURVE SMOOTH",
"570 173 OFFCURVE",
"572 176 OFFCURVE",
"574 180 CURVE",
"575 183 OFFCURVE",
"576 187 OFFCURVE",
"576 192 CURVE SMOOTH",
"576 448 LINE SMOOTH",
"576 453 OFFCURVE",
"575 457 OFFCURVE",
"574 461 CURVE",
"572 464 OFFCURVE",
"570 468 OFFCURVE",
"567 471 CURVE SMOOTH",
"564 474 OFFCURVE",
"560 476 OFFCURVE",
"557 478 CURVE",
"553 479 OFFCURVE",
"549 480 OFFCURVE",
"544 480 CURVE SMOOTH",
"224 480 LINE SMOOTH"
);
},
{
closed = 1;
nodes = (
"91 352 OFFCURVE",
"87 351 OFFCURVE",
"84 350 CURVE",
"80 348 OFFCURVE",
"77 346 OFFCURVE",
"74 343 CURVE SMOOTH",
"71 340 OFFCURVE",
"68 336 OFFCURVE",
"67 333 CURVE",
"65 329 OFFCURVE",
"64 325 OFFCURVE",
"64 320 CURVE SMOOTH",
"64 64 LINE SMOOTH",
"64 59 OFFCURVE",
"65 55 OFFCURVE",
"67 52 CURVE",
"68 48 OFFCURVE",
"71 45 OFFCURVE",
"74 42 CURVE SMOOTH",
"77 39 OFFCURVE",
"80 36 OFFCURVE",
"84 35 CURVE",
"87 33 OFFCURVE",
"91 32 OFFCURVE",
"96 32 CURVE SMOOTH",
"192 32 LINE",
"276 -23 LINE",
"278 -24 OFFCURVE",
"280 -25 OFFCURVE",
"283 -26 CURVE",
"285 -27 OFFCURVE",
"287 -28 OFFCURVE",
"290 -29 CURVE SMOOTH",
"293 -30 OFFCURVE",
"295 -31 OFFCURVE",
"298 -31 CURVE",
"301 -32 OFFCURVE",
"303 -32 OFFCURVE",
"305 -32 CURVE SMOOTH",
"368 -32 LINE SMOOTH",
"370 -32 OFFCURVE",
"372 -31 OFFCURVE",
"374 -30 CURVE SMOOTH",
"376 -29 OFFCURVE",
"378 -28 OFFCURVE",
"379 -27 CURVE SMOOTH",
"380 -26 OFFCURVE",
"382 -24 OFFCURVE",
"383 -22 CURVE SMOOTH",
"384 -20 OFFCURVE",
"384 -18 OFFCURVE",
"384 -16 CURVE SMOOTH",
"384 32 LINE",
"416 32 LINE SMOOTH",
"421 32 OFFCURVE",
"425 33 OFFCURVE",
"429 35 CURVE",
"432 36 OFFCURVE",
"436 39 OFFCURVE",
"439 42 CURVE SMOOTH",
"442 45 OFFCURVE",
"444 48 OFFCURVE",
"446 52 CURVE",
"447 55 OFFCURVE",
"448 59 OFFCURVE",
"448 64 CURVE SMOOTH",
"448 320 LINE SMOOTH",
"448 325 OFFCURVE",
"447 329 OFFCURVE",
"446 333 CURVE",
"444 336 OFFCURVE",
"442 340 OFFCURVE",
"439 343 CURVE SMOOTH",
"436 346 OFFCURVE",
"432 348 OFFCURVE",
"429 350 CURVE",
"425 351 OFFCURVE",
"421 352 OFFCURVE",
"416 352 CURVE SMOOTH",
"96 352 LINE SMOOTH"
);
},
{
closed = 1;
nodes = (
"320 96 LINE",
"320 32 LINE",
"224 96 LINE",
"128 96 LINE",
"128 288 LINE",
"384 288 LINE",
"384 96 LINE"
);
}
);
width = 640;
}
);
unicode = E629;
},
{
glyphname = uniE62A;
layers = (
{
layerId = "19B4AD07-3ADD-4C6B-9307-3D60BE925762";
name = Regular;
paths = (
{
closed = 1;
nodes = (
"432 288 LINE SMOOTH",
"434 288 OFFCURVE",
"436 289 OFFCURVE",
"438 290 CURVE SMOOTH",
"440 291 OFFCURVE",
"442 292 OFFCURVE",
"443 293 CURVE SMOOTH",
"444 294 OFFCURVE",
"446 296 OFFCURVE",
"447 298 CURVE SMOOTH",
"448 300 OFFCURVE",
"448 302 OFFCURVE",
"448 304 CURVE SMOOTH",
"448 336 LINE SMOOTH",
"448 338 OFFCURVE",
"448 340 OFFCURVE",
"447 342 CURVE SMOOTH",
"446 344 OFFCURVE",
"444 346 OFFCURVE",
"443 347 CURVE SMOOTH",
"442 348 OFFCURVE",
"440 350 OFFCURVE",
"438 351 CURVE SMOOTH",
"436 352 OFFCURVE",
"434 352 OFFCURVE",
"432 352 CURVE SMOOTH",
"208 352 LINE SMOOTH",
"206 352 OFFCURVE",
"204 352 OFFCURVE",
"202 351 CURVE SMOOTH",
"200 350 OFFCURVE",
"198 348 OFFCURVE",
"197 347 CURVE SMOOTH",
"196 346 OFFCURVE",
"195 344 OFFCURVE",
"194 342 CURVE SMOOTH",
"193 340 OFFCURVE",
"192 338 OFFCURVE",
"192 336 CURVE SMOOTH",
"192 304 LINE SMOOTH",
"192 302 OFFCURVE",
"193 300 OFFCURVE",
"194 298 CURVE SMOOTH",
"195 296 OFFCURVE",
"196 294 OFFCURVE",
"197 293 CURVE SMOOTH",
"198 292 OFFCURVE",
"200 291 OFFCURVE",
"202 290 CURVE SMOOTH",
"204 289 OFFCURVE",
"206 288 OFFCURVE",
"208 288 CURVE SMOOTH"
);
},
{
closed = 1;
nodes = (
"432 192 LINE SMOOTH",
"434 192 OFFCURVE",
"436 193 OFFCURVE",
"438 194 CURVE SMOOTH",
"440 195 OFFCURVE",
"442 196 OFFCURVE",
"443 197 CURVE SMOOTH",
"444 198 OFFCURVE",
"446 200 OFFCURVE",
"447 202 CURVE SMOOTH",
"448 204 OFFCURVE",
"448 206 OFFCURVE",
"448 208 CURVE SMOOTH",
"448 240 LINE SMOOTH",
"448 242 OFFCURVE",
"448 244 OFFCURVE",
"447 246 CURVE SMOOTH",
"446 248 OFFCURVE",
"444 250 OFFCURVE",
"443 251 CURVE SMOOTH",
"442 252 OFFCURVE",
"440 254 OFFCURVE",
"438 255 CURVE SMOOTH",
"436 256 OFFCURVE",
"434 256 OFFCURVE",
"432 256 CURVE SMOOTH",
"208 256 LINE SMOOTH",
"206 256 OFFCURVE",
"204 256 OFFCURVE",
"202 255 CURVE SMOOTH",
"200 254 OFFCURVE",
"198 252 OFFCURVE",
"197 251 CURVE SMOOTH",
"196 250 OFFCURVE",
"195 248 OFFCURVE",
"194 246 CURVE SMOOTH",
"193 244 OFFCURVE",
"192 242 OFFCURVE",
"192 240 CURVE SMOOTH",
"192 208 LINE SMOOTH",
"192 206 OFFCURVE",
"193 204 OFFCURVE",
"194 202 CURVE SMOOTH",
"195 200 OFFCURVE",
"196 198 OFFCURVE",
"197 197 CURVE SMOOTH",
"198 196 OFFCURVE",
"200 195 OFFCURVE",
"202 194 CURVE SMOOTH",
"204 193 OFFCURVE",
"206 192 OFFCURVE",
"208 192 CURVE SMOOTH"
);
},
{
closed = 1;
nodes = (
"64 64 LINE",
"128 64 LINE",
"128 0 LINE SMOOTH",
"128 -5 OFFCURVE",
"129 -9 OFFCURVE",
"131 -12 CURVE",
"132 -16 OFFCURVE",
"135 -19 OFFCURVE",
"138 -22 CURVE SMOOTH",
"141 -25 OFFCURVE",
"144 -28 OFFCURVE",
"148 -29 CURVE",
"151 -31 OFFCURVE",
"155 -32 OFFCURVE",
"160 -32 CURVE SMOOTH",
"192 -32 LINE SMOOTH",
"193 -32 OFFCURVE",
"195 -32 OFFCURVE",
"196 -31 CURVE",
"197 -31 OFFCURVE",
"199 -31 OFFCURVE",
"201 -30 CURVE",
"202 -30 OFFCURVE",
"204 -30 OFFCURVE",
"205 -29 CURVE",
"206 -29 OFFCURVE",
"207 -28 OFFCURVE",
"208 -27 CURVE",
"361 64 LINE",
"576 64 LINE",
"576 480 LINE",
"64 480 LINE"
);
},
{
closed = 1;
nodes = (
"352 128 LINE SMOOTH",
"351 128 OFFCURVE",
"349 128 OFFCURVE",
"348 128 CURVE",
"347 127 OFFCURVE",
"345 127 OFFCURVE",
"344 127 CURVE",
"342 126 OFFCURVE",
"340 126 OFFCURVE",
"339 126 CURVE",
"338 125 OFFCURVE",
"337 124 OFFCURVE",
"336 123 CURVE",
"192 37 LINE",
"192 96 LINE SMOOTH",
"192 101 OFFCURVE",
"191 105 OFFCURVE",
"190 109 CURVE",
"188 112 OFFCURVE",
"186 116 OFFCURVE",
"183 119 CURVE SMOOTH",
"180 122 OFFCURVE",
"176 124 OFFCURVE",
"173 126 CURVE",
"169 127 OFFCURVE",
"165 128 OFFCURVE",
"160 128 CURVE SMOOTH",
"128 128 LINE",
"128 416 LINE",
"512 416 LINE",
"512 128 LINE"
);
}
);
width = 640;
}
);
unicode = E62A;
},
{
glyphname = uniE62B;
layers = (
{
layerId = "19B4AD07-3ADD-4C6B-9307-3D60BE925762";
name = Regular;
paths = (
{
closed = 1;
nodes = (
"64 -32 LINE",
"576 -32 LINE",
"576 480 LINE",
"64 480 LINE"
);
},
{
closed = 1;
nodes = (
"128 32 LINE",
"128 416 LINE",
"512 416 LINE",
"512 32 LINE"
);
},
{
closed = 1;
nodes = (
"278 125 OFFCURVE",
"280 124 OFFCURVE",
"282 123 CURVE SMOOTH",
"284 122 OFFCURVE",
"286 121 OFFCURVE",
"288 121 CURVE SMOOTH",
"290 121 OFFCURVE",
"292 122 OFFCURVE",
"294 123 CURVE SMOOTH",
"296 124 OFFCURVE",
"298 125 OFFCURVE",
"299 126 CURVE SMOOTH",
"443 270 LINE",
"445 271 OFFCURVE",
"446 273 OFFCURVE",
"447 275 CURVE SMOOTH",
"448 277 OFFCURVE",
"448 279 OFFCURVE",
"448 281 CURVE SMOOTH",
"448 283 OFFCURVE",
"448 285 OFFCURVE",
"447 287 CURVE SMOOTH",
"446 289 OFFCURVE",
"445 291 OFFCURVE",
"443 293 CURVE SMOOTH",
"421 315 LINE SMOOTH",
"419 317 OFFCURVE",
"417 318 OFFCURVE",
"415 319 CURVE SMOOTH",
"413 320 OFFCURVE",
"411 320 OFFCURVE",
"409 320 CURVE SMOOTH",
"407 320 OFFCURVE",
"405 320 OFFCURVE",
"403 319 CURVE SMOOTH",
"401 318 OFFCURVE",
"399 317 OFFCURVE",
"398 315 CURVE",
"288 205 LINE",
"242 251 LINE",
"241 253 OFFCURVE",
"239 254 OFFCURVE",
"237 255 CURVE SMOOTH",
"235 256 OFFCURVE",
"233 256 OFFCURVE",
"231 256 CURVE SMOOTH",
"229 256 OFFCURVE",
"227 256 OFFCURVE",
"225 255 CURVE SMOOTH",
"223 254 OFFCURVE",
"221 253 OFFCURVE",
"219 251 CURVE SMOOTH",
"197 229 LINE SMOOTH",
"195 227 OFFCURVE",
"194 225 OFFCURVE",
"193 223 CURVE SMOOTH",
"192 221 OFFCURVE",
"192 219 OFFCURVE",
"192 217 CURVE SMOOTH",
"192 215 OFFCURVE",
"192 213 OFFCURVE",
"193 211 CURVE SMOOTH",
"194 209 OFFCURVE",
"195 207 OFFCURVE",
"197 206 CURVE",
"277 126 LINE SMOOTH"
);
}
);
width = 640;
}
);
unicode = E62B;
},
{
glyphname = uniE62C;
layers = (
{
layerId = "19B4AD07-3ADD-4C6B-9307-3D60BE925762";
name = Regular;
paths = (
{
closed = 1;
nodes = (
"525 236 OFFCURVE",
"529 232 OFFCURVE",
"532 228 CURVE SMOOTH",
"535 224 OFFCURVE",
"537 220 OFFCURVE",
"538 216 CURVE",
"539 211 OFFCURVE",
"541 207 OFFCURVE",
"542 202 CURVE SMOOTH",
"543 197 OFFCURVE",
"544 192 OFFCURVE",
"543 187 CURVE",
"544 182 OFFCURVE",
"543 177 OFFCURVE",
"542 172 CURVE SMOOTH",
"541 167 OFFCURVE",
"539 163 OFFCURVE",
"538 159 CURVE",
"537 154 OFFCURVE",
"535 150 OFFCURVE",
"532 146 CURVE SMOOTH",
"529 142 OFFCURVE",
"525 138 OFFCURVE",
"522 135 CURVE",
"518 132 OFFCURVE",
"514 129 OFFCURVE",
"511 126 CURVE",
"507 123 OFFCURVE",
"503 121 OFFCURVE",
"498 120 CURVE",
"493 118 OFFCURVE",
"489 117 OFFCURVE",
"484 116 CURVE SMOOTH",
"479 115 OFFCURVE",
"474 114 OFFCURVE",
"468 114 CURVE SMOOTH",
"465 114 OFFCURVE",
"462 114 OFFCURVE",
"459 115 CURVE",
"455 115 OFFCURVE",
"452 116 OFFCURVE",
"449 117 CURVE SMOOTH",
"446 118 OFFCURVE",
"443 119 OFFCURVE",
"440 120 CURVE SMOOTH",
"437 121 OFFCURVE",
"434 123 OFFCURVE",
"431 124 CURVE",
"428 126 OFFCURVE",
"425 128 OFFCURVE",
"423 130 CURVE SMOOTH",
"421 132 OFFCURVE",
"419 134 OFFCURVE",
"416 136 CURVE SMOOTH",
"413 138 OFFCURVE",
"411 140 OFFCURVE",
"410 143 CURVE",
"408 146 OFFCURVE",
"406 148 OFFCURVE",
"404 151 CURVE",
"403 151 OFFCURVE",
"403 151 OFFCURVE",
"402 151 CURVE SMOOTH",
"401 151 OFFCURVE",
"400 151 OFFCURVE",
"400 151 CURVE SMOOTH",
"399 151 OFFCURVE",
"398 151 OFFCURVE",
"397 151 CURVE",
"396 150 OFFCURVE",
"395 150 OFFCURVE",
"395 150 CURVE",
"385 151 OFFCURVE",
"376 152 OFFCURVE",
"368 153 CURVE SMOOTH",
"359 154 OFFCURVE",
"351 155 OFFCURVE",
"342 157 CURVE SMOOTH",
"333 159 OFFCURVE",
"325 161 OFFCURVE",
"317 164 CURVE SMOOTH",
"309 167 OFFCURVE",
"301 170 OFFCURVE",
"292 174 CURVE",
"285 178 OFFCURVE",
"277 182 OFFCURVE",
"270 187 CURVE",
"262 191 OFFCURVE",
"255 196 OFFCURVE",
"248 201 CURVE SMOOTH",
"241 206 OFFCURVE",
"234 212 OFFCURVE",
"227 218 CURVE",
"220 223 OFFCURVE",
"213 229 OFFCURVE",
"208 236 CURVE",
"207 104 LINE",
"210 103 OFFCURVE",
"213 101 OFFCURVE",
"216 99 CURVE",
"218 97 OFFCURVE",
"220 95 OFFCURVE",
"223 93 CURVE SMOOTH",
"226 91 OFFCURVE",
"228 89 OFFCURVE",
"230 86 CURVE",
"231 83 OFFCURVE",
"233 81 OFFCURVE",
"235 78 CURVE",
"236 75 OFFCURVE",
"238 73 OFFCURVE",
"240 70 CURVE",
"241 67 OFFCURVE",
"242 64 OFFCURVE",
"243 61 CURVE",
"243 58 OFFCURVE",
"243 54 OFFCURVE",
"244 51 CURVE SMOOTH",
"245 48 OFFCURVE",
"245 44 OFFCURVE",
"244 41 CURVE",
"245 36 OFFCURVE",
"244 31 OFFCURVE",
"243 26 CURVE SMOOTH",
"242 21 OFFCURVE",
"240 17 OFFCURVE",
"239 13 CURVE",
"238 8 OFFCURVE",
"236 4 OFFCURVE",
"233 0 CURVE SMOOTH",
"230 -4 OFFCURVE",
"227 -8 OFFCURVE",
"224 -11 CURVE",
"219 -14 OFFCURVE",
"215 -17 OFFCURVE",
"212 -20 CURVE SMOOTH",
"209 -23 OFFCURVE",
"205 -25 OFFCURVE",
"200 -26 CURVE",
"195 -28 OFFCURVE",
"190 -29 OFFCURVE",
"186 -30 CURVE",
"181 -31 OFFCURVE",
"176 -32 OFFCURVE",
"170 -32 CURVE SMOOTH",
"165 -32 OFFCURVE",
"160 -31 OFFCURVE",
"155 -30 CURVE SMOOTH",
"150 -29 OFFCURVE",
"145 -28 OFFCURVE",
"141 -26 CURVE",
"137 -25 OFFCURVE",
"133 -23 OFFCURVE",
"129 -20 CURVE",
"124 -17 OFFCURVE",
"121 -14 OFFCURVE",
"118 -11 CURVE",
"113 -8 OFFCURVE",
"110 -4 OFFCURVE",
"108 0 CURVE",
"105 4 OFFCURVE",
"103 8 OFFCURVE",
"101 13 CURVE",
"99 17 OFFCURVE",
"98 21 OFFCURVE",
"97 26 CURVE SMOOTH",
"96 31 OFFCURVE",
"96 36 OFFCURVE",
"95 41 CURVE",
"96 44 OFFCURVE",
"96 48 OFFCURVE",
"96 51 CURVE SMOOTH",
"96 54 OFFCURVE",
"97 58 OFFCURVE",
"98 61 CURVE SMOOTH",
"99 64 OFFCURVE",
"101 67 OFFCURVE",
"102 70 CURVE SMOOTH",
"103 73 OFFCURVE",
"104 75 OFFCURVE",
"106 78 CURVE",
"107 81 OFFCURVE",
"109 83 OFFCURVE",
"112 86 CURVE",
"114 89 OFFCURVE",
"116 91 OFFCURVE",
"118 93 CURVE",
"119 95 OFFCURVE",
"122 97 OFFCURVE",
"125 99 CURVE SMOOTH",
"128 101 OFFCURVE",
"130 103 OFFCURVE",
"132 104 CURVE",
"133 344 LINE",
"130 345 OFFCURVE",
"127 347 OFFCURVE",
"125 349 CURVE",
"122 351 OFFCURVE",
"120 353 OFFCURVE",
"118 355 CURVE",
"115 357 OFFCURVE",
"113 359 OFFCURVE",
"112 362 CURVE",
"110 365 OFFCURVE",
"108 367 OFFCURVE",
"105 370 CURVE",
"104 373 OFFCURVE",
"103 376 OFFCURVE",
"102 379 CURVE",
"100 382 OFFCURVE",
"99 385 OFFCURVE",
"98 388 CURVE SMOOTH",
"97 391 OFFCURVE",
"97 394 OFFCURVE",
"96 397 CURVE SMOOTH",
"95 400 OFFCURVE",
"95 404 OFFCURVE",
"96 407 CURVE",
"95 412 OFFCURVE",
"96 417 OFFCURVE",
"97 422 CURVE SMOOTH",
"98 427 OFFCURVE",
"100 431 OFFCURVE",
"101 436 CURVE",
"102 440 OFFCURVE",
"105 444 OFFCURVE",
"108 448 CURVE SMOOTH",
"111 452 OFFCURVE",
"114 456 OFFCURVE",
"117 459 CURVE",
"121 462 OFFCURVE",
"125 465 OFFCURVE",
"129 468 CURVE",
"132 471 OFFCURVE",
"136 473 OFFCURVE",
"141 475 CURVE",
"146 476 OFFCURVE",
"150 478 OFFCURVE",
"155 479 CURVE SMOOTH",
"160 480 OFFCURVE",
"165 480 OFFCURVE",
"171 480 CURVE SMOOTH",
"176 480 OFFCURVE",
"181 480 OFFCURVE",
"186 479 CURVE SMOOTH",
"191 478 OFFCURVE",
"195 476 OFFCURVE",
"200 475 CURVE",
"204 473 OFFCURVE",
"208 471 OFFCURVE",
"212 468 CURVE SMOOTH",
"216 465 OFFCURVE",
"220 462 OFFCURVE",
"223 459 CURVE",
"227 456 OFFCURVE",
"230 452 OFFCURVE",
"233 448 CURVE",
"235 444 OFFCURVE",
"237 440 OFFCURVE",
"239 436 CURVE",
"241 431 OFFCURVE",
"242 427 OFFCURVE",
"243 422 CURVE SMOOTH",
"244 417 OFFCURVE",
"244 412 OFFCURVE",
"245 407 CURVE",
"244 404 OFFCURVE",
"244 402 OFFCURVE",
"244 399 CURVE SMOOTH",
"244 396 OFFCURVE",
"244 394 OFFCURVE",
"243 391 CURVE SMOOTH",
"242 388 OFFCURVE",
"242 386 OFFCURVE",
"241 383 CURVE SMOOTH",
"240 380 OFFCURVE",
"239 378 OFFCURVE",
"237 376 CURVE",
"237 373 OFFCURVE",
"236 371 OFFCURVE",
"234 369 CURVE SMOOTH",
"232 367 OFFCURVE",
"231 365 OFFCURVE",
"230 363 CURVE SMOOTH",
"229 361 OFFCURVE",
"227 359 OFFCURVE",
"225 357 CURVE",
"222 355 OFFCURVE",
"220 353 OFFCURVE",
"219 351 CURVE",
"222 342 OFFCURVE",
"226 334 OFFCURVE",
"231 326 CURVE",
"236 317 OFFCURVE",
"242 309 OFFCURVE",
"247 302 CURVE",
"252 294 OFFCURVE",
"259 287 OFFCURVE",
"266 280 CURVE SMOOTH",
"273 273 OFFCURVE",
"280 267 OFFCURVE",
"287 261 CURVE",
"296 255 OFFCURVE",
"304 250 OFFCURVE",
"313 245 CURVE",
"321 240 OFFCURVE",
"330 237 OFFCURVE",
"339 234 CURVE SMOOTH",
"348 231 OFFCURVE",
"357 228 OFFCURVE",
"366 227 CURVE",
"375 225 OFFCURVE",
"384 224 OFFCURVE",
"395 224 CURVE",
"404 223 LINE",
"406 226 OFFCURVE",
"408 228 OFFCURVE",
"410 231 CURVE",
"411 234 OFFCURVE",
"413 236 OFFCURVE",
"416 239 CURVE",
"419 241 OFFCURVE",
"421 243 OFFCURVE",
"423 245 CURVE SMOOTH",
"425 247 OFFCURVE",
"428 249 OFFCURVE",
"431 250 CURVE",
"434 252 OFFCURVE",
"437 254 OFFCURVE",
"440 255 CURVE SMOOTH",
"443 256 OFFCURVE",
"446 257 OFFCURVE",
"449 258 CURVE SMOOTH",
"452 259 OFFCURVE",
"455 259 OFFCURVE",
"459 260 CURVE",
"462 260 OFFCURVE",
"465 260 OFFCURVE",
"468 260 CURVE SMOOTH",
"474 260 OFFCURVE",
"479 260 OFFCURVE",
"484 259 CURVE SMOOTH",
"489 258 OFFCURVE",
"493 256 OFFCURVE",
"498 255 CURVE",
"503 253 OFFCURVE",
"507 251 OFFCURVE",
"511 248 CURVE",
"514 245 OFFCURVE",
"518 242 OFFCURVE",
"522 239 CURVE"
);
},
{
closed = 1;
nodes = (
"199 383 OFFCURVE",
"200 385 OFFCURVE",
"201 387 CURVE",
"202 388 OFFCURVE",
"203 390 OFFCURVE",
"204 393 CURVE",
"205 395 OFFCURVE",
"206 397 OFFCURVE",
"206 400 CURVE SMOOTH",
"206 402 OFFCURVE",
"206 404 OFFCURVE",
"207 407 CURVE",
"206 410 OFFCURVE",
"206 412 OFFCURVE",
"206 415 CURVE SMOOTH",
"206 417 OFFCURVE",
"205 419 OFFCURVE",
"204 421 CURVE SMOOTH",
"203 423 OFFCURVE",
"202 425 OFFCURVE",
"201 427 CURVE SMOOTH",
"200 429 OFFCURVE",
"199 431 OFFCURVE",
"196 433 CURVE",
"195 434 OFFCURVE",
"193 436 OFFCURVE",
"191 437 CURVE",
"188 438 OFFCURVE",
"186 440 OFFCURVE",
"185 441 CURVE",
"183 442 OFFCURVE",
"181 442 OFFCURVE",
"178 443 CURVE",
"175 443 OFFCURVE",
"173 443 OFFCURVE",
"171 443 CURVE SMOOTH",
"168 443 OFFCURVE",
"165 443 OFFCURVE",
"163 443 CURVE",
"161 442 OFFCURVE",
"159 442 OFFCURVE",
"156 441 CURVE SMOOTH",
"153 440 OFFCURVE",
"151 438 OFFCURVE",
"150 437 CURVE",
"148 436 OFFCURVE",
"146 434 OFFCURVE",
"143 433 CURVE",
"142 431 OFFCURVE",
"141 429 OFFCURVE",
"140 427 CURVE",
"138 425 OFFCURVE",
"137 423 OFFCURVE",
"136 421 CURVE SMOOTH",
"135 419 OFFCURVE",
"135 417 OFFCURVE",
"134 415 CURVE",
"133 412 OFFCURVE",
"133 410 OFFCURVE",
"134 407 CURVE",
"133 404 OFFCURVE",
"133 402 OFFCURVE",
"134 400 CURVE",
"135 397 OFFCURVE",
"135 395 OFFCURVE",
"136 393 CURVE",
"137 390 OFFCURVE",
"138 388 OFFCURVE",
"140 387 CURVE",
"141 385 OFFCURVE",
"142 383 OFFCURVE",
"143 381 CURVE",
"146 379 OFFCURVE",
"148 378 OFFCURVE",
"150 377 CURVE",
"151 376 OFFCURVE",
"153 375 OFFCURVE",
"156 374 CURVE SMOOTH",
"159 373 OFFCURVE",
"161 372 OFFCURVE",
"163 371 CURVE SMOOTH",
"165 370 OFFCURVE",
"168 370 OFFCURVE",
"171 370 CURVE SMOOTH",
"173 370 OFFCURVE",
"175 370 OFFCURVE",
"178 371 CURVE SMOOTH",
"181 372 OFFCURVE",
"183 373 OFFCURVE",
"185 374 CURVE",
"186 375 OFFCURVE",
"188 376 OFFCURVE",
"191 377 CURVE",
"193 378 OFFCURVE",
"195 379 OFFCURVE",
"196 381 CURVE"
);
},
{
closed = 1;
nodes = (
"198 16 OFFCURVE",
"200 18 OFFCURVE",
"201 20 CURVE SMOOTH",
"202 22 OFFCURVE",
"203 24 OFFCURVE",
"204 27 CURVE",
"205 29 OFFCURVE",
"205 31 OFFCURVE",
"206 34 CURVE",
"207 36 OFFCURVE",
"207 38 OFFCURVE",
"206 41 CURVE",
"207 44 OFFCURVE",
"207 46 OFFCURVE",
"206 49 CURVE",
"205 51 OFFCURVE",
"205 53 OFFCURVE",
"204 55 CURVE SMOOTH",
"203 57 OFFCURVE",
"202 59 OFFCURVE",
"201 61 CURVE SMOOTH",
"200 63 OFFCURVE",
"198 65 OFFCURVE",
"197 66 CURVE",
"194 68 OFFCURVE",
"192 70 OFFCURVE",
"191 71 CURVE",
"189 72 OFFCURVE",
"187 73 OFFCURVE",
"185 74 CURVE",
"182 75 OFFCURVE",
"180 75 OFFCURVE",
"178 76 CURVE SMOOTH",
"176 77 OFFCURVE",
"173 77 OFFCURVE",
"170 77 CURVE SMOOTH",
"168 77 OFFCURVE",
"166 77 OFFCURVE",
"163 76 CURVE SMOOTH",
"160 75 OFFCURVE",
"158 75 OFFCURVE",
"156 74 CURVE SMOOTH",
"154 73 OFFCURVE",
"152 72 OFFCURVE",
"150 71 CURVE",
"147 70 OFFCURVE",
"145 68 OFFCURVE",
"144 66 CURVE",
"142 65 OFFCURVE",
"141 63 OFFCURVE",
"140 61 CURVE SMOOTH",
"139 59 OFFCURVE",
"137 57 OFFCURVE",
"136 55 CURVE SMOOTH",
"135 53 OFFCURVE",
"134 51 OFFCURVE",
"134 49 CURVE SMOOTH",
"134 46 OFFCURVE",
"134 44 OFFCURVE",
"133 41 CURVE",
"134 38 OFFCURVE",
"134 36 OFFCURVE",
"134 34 CURVE SMOOTH",
"134 31 OFFCURVE",
"135 29 OFFCURVE",
"136 27 CURVE",
"137 24 OFFCURVE",
"139 22 OFFCURVE",
"140 20 CURVE SMOOTH",
"141 18 OFFCURVE",
"142 16 OFFCURVE",
"144 15 CURVE",
"145 13 OFFCURVE",
"147 11 OFFCURVE",
"150 10 CURVE",
"152 9 OFFCURVE",
"154 8 OFFCURVE",
"156 7 CURVE SMOOTH",
"158 6 OFFCURVE",
"160 6 OFFCURVE",
"163 5 CURVE SMOOTH",
"166 4 OFFCURVE",
"168 4 OFFCURVE",
"170 4 CURVE SMOOTH",
"173 4 OFFCURVE",
"176 4 OFFCURVE",
"178 5 CURVE SMOOTH",
"180 6 OFFCURVE",
"182 6 OFFCURVE",
"185 7 CURVE",
"187 8 OFFCURVE",
"189 9 OFFCURVE",
"191 10 CURVE",
"192 11 OFFCURVE",
"194 13 OFFCURVE",
"197 15 CURVE"
);
},
{
closed = 1;
nodes = (
"497 163 OFFCURVE",
"499 165 OFFCURVE",
"500 167 CURVE SMOOTH",
"501 169 OFFCURVE",
"502 171 OFFCURVE",
"503 173 CURVE SMOOTH",
"504 175 OFFCURVE",
"505 177 OFFCURVE",
"505 180 CURVE SMOOTH",
"505 182 OFFCURVE",
"505 184 OFFCURVE",
"506 187 CURVE",
"505 190 OFFCURVE",
"505 192 OFFCURVE",
"505 195 CURVE SMOOTH",
"505 197 OFFCURVE",
"504 199 OFFCURVE",
"503 201 CURVE SMOOTH",
"502 203 OFFCURVE",
"501 205 OFFCURVE",
"500 207 CURVE SMOOTH",
"499 209 OFFCURVE",
"497 211 OFFCURVE",
"495 213 CURVE SMOOTH",
"494 214 OFFCURVE",
"492 216 OFFCURVE",
"490 217 CURVE",
"487 218 OFFCURVE",
"485 220 OFFCURVE",
"483 221 CURVE SMOOTH",
"481 222 OFFCURVE",
"479 222 OFFCURVE",
"476 223 CURVE",
"473 223 OFFCURVE",
"471 223 OFFCURVE",
"469 223 CURVE SMOOTH",
"466 223 OFFCURVE",
"463 223 OFFCURVE",
"461 223 CURVE",
"459 222 OFFCURVE",
"457 222 OFFCURVE",
"455 221 CURVE",
"452 220 OFFCURVE",
"450 218 OFFCURVE",
"449 217 CURVE",
"447 216 OFFCURVE",
"445 214 OFFCURVE",
"442 213 CURVE",
"441 211 OFFCURVE",
"439 209 OFFCURVE",
"438 207 CURVE SMOOTH",
"437 205 OFFCURVE",
"436 203 OFFCURVE",
"435 201 CURVE SMOOTH",
"434 199 OFFCURVE",
"434 197 OFFCURVE",
"433 195 CURVE",
"432 192 OFFCURVE",
"432 190 OFFCURVE",
"433 187 CURVE",
"432 184 OFFCURVE",
"432 182 OFFCURVE",
"433 180 CURVE",
"434 177 OFFCURVE",
"434 175 OFFCURVE",
"435 173 CURVE SMOOTH",
"436 171 OFFCURVE",
"437 169 OFFCURVE",
"438 167 CURVE SMOOTH",
"439 165 OFFCURVE",
"441 163 OFFCURVE",
"442 161 CURVE",
"445 160 OFFCURVE",
"447 158 OFFCURVE",
"449 157 CURVE",
"450 156 OFFCURVE",
"452 155 OFFCURVE",
"455 154 CURVE",
"457 153 OFFCURVE",
"459 152 OFFCURVE",
"461 152 CURVE",
"463 151 OFFCURVE",
"466 151 OFFCURVE",
"469 150 CURVE",
"471 151 OFFCURVE",
"473 151 OFFCURVE",
"476 152 CURVE",
"479 152 OFFCURVE",
"481 153 OFFCURVE",
"483 154 CURVE SMOOTH",
"485 155 OFFCURVE",
"487 156 OFFCURVE",
"490 157 CURVE",
"492 158 OFFCURVE",
"494 160 OFFCURVE",
"495 161 CURVE SMOOTH"
);
}
);
width = 640;
}
);
unicode = E62C;
},
{
glyphname = uniE62D;
layers = (
{
layerId = "19B4AD07-3ADD-4C6B-9307-3D60BE925762";
name = Regular;
paths = (
{
closed = 1;
nodes = (
"221 480 OFFCURVE",
"188 473 OFFCURVE",
"157 460 CURVE SMOOTH",
"126 447 OFFCURVE",
"98 428 OFFCURVE",
"75 405 CURVE SMOOTH",
"52 382 OFFCURVE",
"33 355 OFFCURVE",
"20 324 CURVE SMOOTH",
"7 293 OFFCURVE",
"0 259 OFFCURVE",
"0 224 CURVE SMOOTH",
"0 189 OFFCURVE",
"7 156 OFFCURVE",
"20 125 CURVE SMOOTH",
"33 94 OFFCURVE",
"52 66 OFFCURVE",
"75 43 CURVE SMOOTH",
"98 20 OFFCURVE",
"126 1 OFFCURVE",
"157 -12 CURVE SMOOTH",
"188 -25 OFFCURVE",
"221 -32 OFFCURVE",
"256 -32 CURVE SMOOTH",
"291 -32 OFFCURVE",
"325 -25 OFFCURVE",
"356 -12 CURVE SMOOTH",
"387 1 OFFCURVE",
"414 20 OFFCURVE",
"437 43 CURVE SMOOTH",
"460 66 OFFCURVE",
"479 94 OFFCURVE",
"492 125 CURVE SMOOTH",
"505 156 OFFCURVE",
"512 189 OFFCURVE",
"512 224 CURVE SMOOTH",
"512 259 OFFCURVE",
"505 293 OFFCURVE",
"492 324 CURVE SMOOTH",
"479 355 OFFCURVE",
"460 382 OFFCURVE",
"437 405 CURVE SMOOTH",
"414 428 OFFCURVE",
"387 447 OFFCURVE",
"356 460 CURVE SMOOTH",
"325 473 OFFCURVE",
"291 480 OFFCURVE",
"256 480 CURVE SMOOTH"
);
},
{
closed = 1;
nodes = (
"229 24 OFFCURVE",
"203 29 OFFCURVE",
"179 40 CURVE",
"154 50 OFFCURVE",
"133 64 OFFCURVE",
"115 83 CURVE",
"96 101 OFFCURVE",
"82 122 OFFCURVE",
"72 147 CURVE",
"61 171 OFFCURVE",
"56 197 OFFCURVE",
"56 224 CURVE SMOOTH",
"56 251 OFFCURVE",
"61 277 OFFCURVE",
"72 302 CURVE SMOOTH",
"82 326 OFFCURVE",
"96 347 OFFCURVE",
"115 366 CURVE SMOOTH",
"133 384 OFFCURVE",
"154 398 OFFCURVE",
"179 409 CURVE SMOOTH",
"203 419 OFFCURVE",
"229 424 OFFCURVE",
"256 424 CURVE SMOOTH",
"283 424 OFFCURVE",
"309 419 OFFCURVE",
"334 409 CURVE",
"358 398 OFFCURVE",
"379 384 OFFCURVE",
"398 366 CURVE",
"416 347 OFFCURVE",
"430 326 OFFCURVE",
"441 302 CURVE",
"451 277 OFFCURVE",
"456 251 OFFCURVE",
"456 224 CURVE SMOOTH",
"456 197 OFFCURVE",
"451 171 OFFCURVE",
"441 147 CURVE SMOOTH",
"430 122 OFFCURVE",
"416 101 OFFCURVE",
"398 83 CURVE SMOOTH",
"379 64 OFFCURVE",
"358 50 OFFCURVE",
"334 40 CURVE SMOOTH",
"309 29 OFFCURVE",
"283 24 OFFCURVE",
"256 24 CURVE SMOOTH"
);
},
{
closed = 1;
nodes = (
"347 199 OFFCURVE",
"351 200 OFFCURVE",
"354 201 CURVE SMOOTH",
"357 202 OFFCURVE",
"360 204 OFFCURVE",
"363 207 CURVE SMOOTH",
"365 209 OFFCURVE",
"367 212 OFFCURVE",
"368 215 CURVE SMOOTH",
"369 218 OFFCURVE",
"370 222 OFFCURVE",
"370 225 CURVE SMOOTH",
"370 228 OFFCURVE",
"369 232 OFFCURVE",
"368 235 CURVE SMOOTH",
"367 238 OFFCURVE",
"365 241 OFFCURVE",
"363 244 CURVE",
"360 246 OFFCURVE",
"357 248 OFFCURVE",
"354 249 CURVE SMOOTH",
"351 250 OFFCURVE",
"347 251 OFFCURVE",
"344 251 CURVE SMOOTH",
"282 251 LINE",
"282 313 LINE SMOOTH",
"282 316 OFFCURVE",
"281 320 OFFCURVE",
"280 323 CURVE SMOOTH",
"279 326 OFFCURVE",
"277 328 OFFCURVE",
"275 331 CURVE",
"272 333 OFFCURVE",
"269 335 OFFCURVE",
"266 336 CURVE SMOOTH",
"263 337 OFFCURVE",
"259 338 OFFCURVE",
"256 338 CURVE SMOOTH",
"253 338 OFFCURVE",
"249 337 OFFCURVE",
"246 336 CURVE SMOOTH",
"243 335 OFFCURVE",
"240 333 OFFCURVE",
"238 331 CURVE SMOOTH",
"235 328 OFFCURVE",
"233 326 OFFCURVE",
"232 323 CURVE SMOOTH",
"231 320 OFFCURVE",
"230 316 OFFCURVE",
"230 313 CURVE SMOOTH",
"230 251 LINE",
"168 251 LINE SMOOTH",
"165 251 OFFCURVE",
"161 250 OFFCURVE",
"158 249 CURVE SMOOTH",
"155 248 OFFCURVE",
"152 246 OFFCURVE",
"150 244 CURVE SMOOTH",
"147 241 OFFCURVE",
"145 238 OFFCURVE",
"144 235 CURVE SMOOTH",
"143 232 OFFCURVE",
"142 228 OFFCURVE",
"142 225 CURVE SMOOTH",
"142 222 OFFCURVE",
"143 218 OFFCURVE",
"144 215 CURVE SMOOTH",
"145 212 OFFCURVE",
"147 209 OFFCURVE",
"150 207 CURVE",
"152 204 OFFCURVE",
"155 202 OFFCURVE",
"158 201 CURVE SMOOTH",
"161 200 OFFCURVE",
"165 199 OFFCURVE",
"168 199 CURVE SMOOTH",
"230 199 LINE",
"230 137 LINE SMOOTH",
"230 134 OFFCURVE",
"231 131 OFFCURVE",
"232 128 CURVE SMOOTH",
"233 125 OFFCURVE",
"235 122 OFFCURVE",
"238 120 CURVE",
"240 117 OFFCURVE",
"243 115 OFFCURVE",
"246 114 CURVE SMOOTH",
"249 113 OFFCURVE",
"253 112 OFFCURVE",
"256 112 CURVE SMOOTH",
"259 112 OFFCURVE",
"263 113 OFFCURVE",
"266 114 CURVE SMOOTH",
"269 115 OFFCURVE",
"272 117 OFFCURVE",
"275 120 CURVE SMOOTH",
"277 122 OFFCURVE",
"279 125 OFFCURVE",
"280 128 CURVE SMOOTH",
"281 131 OFFCURVE",
"282 134 OFFCURVE",
"282 137 CURVE SMOOTH",
"282 199 LINE",
"344 199 LINE SMOOTH"
);
}
);
width = 512;
}
);
unicode = E62D;
},
{
glyphname = uniE62E;
layers = (
{
layerId = "19B4AD07-3ADD-4C6B-9307-3D60BE925762";
name = Regular;
paths = (
{
closed = 1;
nodes = (
"221 480 OFFCURVE",
"188 473 OFFCURVE",
"157 460 CURVE SMOOTH",
"126 447 OFFCURVE",
"98 428 OFFCURVE",
"75 405 CURVE SMOOTH",
"52 382 OFFCURVE",
"33 355 OFFCURVE",
"20 324 CURVE SMOOTH",
"7 293 OFFCURVE",
"0 259 OFFCURVE",
"0 224 CURVE SMOOTH",
"0 189 OFFCURVE",
"7 156 OFFCURVE",
"20 125 CURVE SMOOTH",
"33 94 OFFCURVE",
"52 66 OFFCURVE",
"75 43 CURVE SMOOTH",
"98 20 OFFCURVE",
"126 1 OFFCURVE",
"157 -12 CURVE SMOOTH",
"188 -25 OFFCURVE",
"221 -32 OFFCURVE",
"256 -32 CURVE SMOOTH",
"291 -32 OFFCURVE",
"325 -25 OFFCURVE",
"356 -12 CURVE SMOOTH",
"387 1 OFFCURVE",
"414 20 OFFCURVE",
"437 43 CURVE SMOOTH",
"460 66 OFFCURVE",
"479 94 OFFCURVE",
"492 125 CURVE SMOOTH",
"505 156 OFFCURVE",
"512 189 OFFCURVE",
"512 224 CURVE SMOOTH",
"512 259 OFFCURVE",
"505 293 OFFCURVE",
"492 324 CURVE SMOOTH",
"479 355 OFFCURVE",
"460 382 OFFCURVE",
"437 405 CURVE SMOOTH",
"414 428 OFFCURVE",
"387 447 OFFCURVE",
"356 460 CURVE SMOOTH",
"325 473 OFFCURVE",
"291 480 OFFCURVE",
"256 480 CURVE SMOOTH"
);
},
{
closed = 1;
nodes = (
"229 32 OFFCURVE",
"204 37 OFFCURVE",
"181 47 CURVE SMOOTH",
"158 57 OFFCURVE",
"137 71 OFFCURVE",
"120 88 CURVE SMOOTH",
"103 105 OFFCURVE",
"89 126 OFFCURVE",
"79 149 CURVE SMOOTH",
"69 172 OFFCURVE",
"64 197 OFFCURVE",
"64 224 CURVE SMOOTH",
"64 251 OFFCURVE",
"69 276 OFFCURVE",
"79 299 CURVE SMOOTH",
"89 322 OFFCURVE",
"103 343 OFFCURVE",
"120 360 CURVE SMOOTH",
"137 377 OFFCURVE",
"158 391 OFFCURVE",
"181 401 CURVE SMOOTH",
"204 411 OFFCURVE",
"229 416 OFFCURVE",
"256 416 CURVE SMOOTH",
"283 416 OFFCURVE",
"308 411 OFFCURVE",
"331 401 CURVE SMOOTH",
"354 391 OFFCURVE",
"375 377 OFFCURVE",
"392 360 CURVE SMOOTH",
"409 343 OFFCURVE",
"423 322 OFFCURVE",
"433 299 CURVE SMOOTH",
"443 276 OFFCURVE",
"448 251 OFFCURVE",
"448 224 CURVE SMOOTH",
"448 197 OFFCURVE",
"443 172 OFFCURVE",
"433 149 CURVE SMOOTH",
"423 126 OFFCURVE",
"409 105 OFFCURVE",
"392 88 CURVE SMOOTH",
"375 71 OFFCURVE",
"354 57 OFFCURVE",
"331 47 CURVE SMOOTH",
"308 37 OFFCURVE",
"283 32 OFFCURVE",
"256 32 CURVE SMOOTH"
);
},
{
closed = 1;
nodes = (
"164 256 LINE SMOOTH",
"159 256 OFFCURVE",
"155 255 OFFCURVE",
"152 254 CURVE",
"148 252 OFFCURVE",
"145 250 OFFCURVE",
"142 247 CURVE SMOOTH",
"139 244 OFFCURVE",
"137 240 OFFCURVE",
"136 236 CURVE",
"134 232 OFFCURVE",
"133 228 OFFCURVE",
"133 224 CURVE SMOOTH",
"133 220 OFFCURVE",
"134 216 OFFCURVE",
"136 212 CURVE",
"137 208 OFFCURVE",
"139 205 OFFCURVE",
"142 202 CURVE SMOOTH",
"145 199 OFFCURVE",
"148 196 OFFCURVE",
"152 195 CURVE",
"155 193 OFFCURVE",
"159 192 OFFCURVE",
"164 192 CURVE SMOOTH",
"348 192 LINE SMOOTH",
"353 192 OFFCURVE",
"357 193 OFFCURVE",
"361 195 CURVE",
"364 196 OFFCURVE",
"367 199 OFFCURVE",
"370 202 CURVE SMOOTH",
"373 205 OFFCURVE",
"375 208 OFFCURVE",
"377 212 CURVE",
"378 216 OFFCURVE",
"379 220 OFFCURVE",
"379 224 CURVE SMOOTH",
"379 228 OFFCURVE",
"378 232 OFFCURVE",
"377 236 CURVE",
"375 240 OFFCURVE",
"373 244 OFFCURVE",
"370 247 CURVE SMOOTH",
"367 250 OFFCURVE",
"364 252 OFFCURVE",
"361 254 CURVE",
"357 255 OFFCURVE",
"353 256 OFFCURVE",
"348 256 CURVE SMOOTH"
);
}
);
width = 512;
}
);
unicode = E62E;
},
{
glyphname = uniE62F;
layers = (
{
layerId = "19B4AD07-3ADD-4C6B-9307-3D60BE925762";
name = Regular;
paths = (
{
closed = 1;
nodes = (
"529 262 OFFCURVE",
"511 285 OFFCURVE",
"491 304 CURVE SMOOTH",
"471 323 OFFCURVE",
"450 340 OFFCURVE",
"429 354 CURVE SMOOTH",
"408 367 OFFCURVE",
"385 378 OFFCURVE",
"361 385 CURVE SMOOTH",
"336 392 OFFCURVE",
"312 395 OFFCURVE",
"289 395 CURVE SMOOTH",
"262 395 OFFCURVE",
"237 391 OFFCURVE",
"213 384 CURVE SMOOTH",
"188 377 OFFCURVE",
"165 366 OFFCURVE",
"142 353 CURVE SMOOTH",
"119 339 OFFCURVE",
"99 322 OFFCURVE",
"80 303 CURVE SMOOTH",
"61 284 OFFCURVE",
"45 262 OFFCURVE",
"30 238 CURVE",
"22 223 LINE",
"30 209 LINE",
"46 186 OFFCURVE",
"64 164 OFFCURVE",
"83 145 CURVE SMOOTH",
"102 126 OFFCURVE",
"123 109 OFFCURVE",
"146 96 CURVE SMOOTH",
"169 82 OFFCURVE",
"192 71 OFFCURVE",
"216 64 CURVE SMOOTH",
"239 57 OFFCURVE",
"264 53 OFFCURVE",
"289 53 CURVE SMOOTH",
"312 53 OFFCURVE",
"336 57 OFFCURVE",
"360 64 CURVE SMOOTH",
"384 71 OFFCURVE",
"407 81 OFFCURVE",
"429 94 CURVE SMOOTH",
"450 107 OFFCURVE",
"471 123 OFFCURVE",
"491 142 CURVE SMOOTH",
"511 161 OFFCURVE",
"529 182 OFFCURVE",
"544 206 CURVE",
"556 221 LINE",
"545 237 LINE SMOOTH"
);
},
{
closed = 1;
nodes = (
"270 110 OFFCURVE",
"252 113 OFFCURVE",
"234 118 CURVE SMOOTH",
"216 123 OFFCURVE",
"198 131 OFFCURVE",
"181 141 CURVE SMOOTH",
"163 151 OFFCURVE",
"147 163 OFFCURVE",
"132 177 CURVE SMOOTH",
"117 191 OFFCURVE",
"102 207 OFFCURVE",
"89 225 CURVE",
"102 242 OFFCURVE",
"115 258 OFFCURVE",
"130 272 CURVE SMOOTH",
"145 286 OFFCURVE",
"161 298 OFFCURVE",
"178 308 CURVE",
"195 317 OFFCURVE",
"213 325 OFFCURVE",
"232 330 CURVE SMOOTH",
"250 335 OFFCURVE",
"269 338 OFFCURVE",
"289 338 CURVE SMOOTH",
"306 338 OFFCURVE",
"323 335 OFFCURVE",
"342 330 CURVE SMOOTH",
"360 325 OFFCURVE",
"377 317 OFFCURVE",
"394 307 CURVE SMOOTH",
"411 297 OFFCURVE",
"427 285 OFFCURVE",
"443 271 CURVE",
"458 256 OFFCURVE",
"472 240 OFFCURVE",
"485 222 CURVE",
"472 205 OFFCURVE",
"458 189 OFFCURVE",
"442 175 CURVE SMOOTH",
"426 161 OFFCURVE",
"410 149 OFFCURVE",
"394 140 CURVE SMOOTH",
"377 130 OFFCURVE",
"360 123 OFFCURVE",
"342 118 CURVE SMOOTH",
"323 113 OFFCURVE",
"306 110 OFFCURVE",
"289 110 CURVE SMOOTH"
);
},
{
closed = 1;
nodes = (
"277 309 OFFCURVE",
"265 307 OFFCURVE",
"254 303 CURVE",
"243 298 OFFCURVE",
"233 292 OFFCURVE",
"226 285 CURVE SMOOTH",
"218 277 OFFCURVE",
"212 268 OFFCURVE",
"207 258 CURVE",
"202 247 OFFCURVE",
"199 236 OFFCURVE",
"200 224 CURVE",
"199 212 OFFCURVE",
"202 201 OFFCURVE",
"207 191 CURVE",
"212 180 OFFCURVE",
"218 171 OFFCURVE",
"226 164 CURVE",
"233 156 OFFCURVE",
"243 150 OFFCURVE",
"254 146 CURVE",
"265 141 OFFCURVE",
"277 139 OFFCURVE",
"288 139 CURVE SMOOTH",
"301 139 OFFCURVE",
"312 141 OFFCURVE",
"323 146 CURVE",
"334 150 OFFCURVE",
"343 156 OFFCURVE",
"352 164 CURVE SMOOTH",
"360 171 OFFCURVE",
"366 180 OFFCURVE",
"371 191 CURVE",
"375 201 OFFCURVE",
"377 212 OFFCURVE",
"378 224 CURVE",
"377 236 OFFCURVE",
"375 247 OFFCURVE",
"371 258 CURVE",
"366 268 OFFCURVE",
"360 277 OFFCURVE",
"352 285 CURVE",
"343 292 OFFCURVE",
"334 298 OFFCURVE",
"323 303 CURVE",
"312 307 OFFCURVE",
"301 309 OFFCURVE",
"288 309 CURVE SMOOTH"
);
},
{
closed = 1;
nodes = (
"318 220 OFFCURVE",
"317 216 OFFCURVE",
"316 213 CURVE SMOOTH",
"315 210 OFFCURVE",
"313 207 OFFCURVE",
"310 204 CURVE SMOOTH",
"307 201 OFFCURVE",
"303 199 OFFCURVE",
"300 198 CURVE SMOOTH",
"297 197 OFFCURVE",
"293 196 OFFCURVE",
"288 196 CURVE SMOOTH",
"285 196 OFFCURVE",
"281 197 OFFCURVE",
"277 198 CURVE SMOOTH",
"273 199 OFFCURVE",
"270 201 OFFCURVE",
"268 204 CURVE",
"265 207 OFFCURVE",
"263 210 OFFCURVE",
"261 213 CURVE SMOOTH",
"259 216 OFFCURVE",
"258 220 OFFCURVE",
"259 224 CURVE",
"258 228 OFFCURVE",
"259 232 OFFCURVE",
"261 235 CURVE SMOOTH",
"263 238 OFFCURVE",
"265 241 OFFCURVE",
"268 244 CURVE",
"270 247 OFFCURVE",
"273 249 OFFCURVE",
"277 250 CURVE SMOOTH",
"281 251 OFFCURVE",
"285 252 OFFCURVE",
"288 252 CURVE SMOOTH",
"293 252 OFFCURVE",
"297 251 OFFCURVE",
"300 250 CURVE SMOOTH",
"303 249 OFFCURVE",
"307 247 OFFCURVE",
"310 244 CURVE SMOOTH",
"313 241 OFFCURVE",
"315 238 OFFCURVE",
"316 235 CURVE SMOOTH",
"317 232 OFFCURVE",
"318 228 OFFCURVE",
"319 224 CURVE"
);
}
);
width = 576;
}
);
unicode = E62F;
},
{
glyphname = uniE630;
layers = (
{
layerId = "19B4AD07-3ADD-4C6B-9307-3D60BE925762";
name = Regular;
paths = (
{
closed = 1;
nodes = (
"187 288 LINE",
"187 320 LINE SMOOTH",
"187 333 OFFCURVE",
"190 346 OFFCURVE",
"195 358 CURVE SMOOTH",
"200 369 OFFCURVE",
"208 379 OFFCURVE",
"217 388 CURVE SMOOTH",
"226 397 OFFCURVE",
"236 404 OFFCURVE",
"249 409 CURVE SMOOTH",
"261 414 OFFCURVE",
"274 416 OFFCURVE",
"288 416 CURVE SMOOTH",
"299 416 OFFCURVE",
"310 414 OFFCURVE",
"320 411 CURVE SMOOTH",
"330 408 OFFCURVE",
"339 403 OFFCURVE",
"348 398 CURVE",
"356 392 OFFCURVE",
"363 385 OFFCURVE",
"370 377 CURVE",
"376 369 OFFCURVE",
"381 360 OFFCURVE",
"384 351 CURVE",
"385 347 OFFCURVE",
"387 343 OFFCURVE",
"390 340 CURVE",
"393 336 OFFCURVE",
"396 333 OFFCURVE",
"399 330 CURVE SMOOTH",
"402 327 OFFCURVE",
"406 324 OFFCURVE",
"410 323 CURVE",
"414 321 OFFCURVE",
"418 320 OFFCURVE",
"423 320 CURVE",
"423 320 LINE",
"428 320 OFFCURVE",
"432 321 OFFCURVE",
"436 323 CURVE",
"440 324 OFFCURVE",
"444 327 OFFCURVE",
"447 330 CURVE SMOOTH",
"450 333 OFFCURVE",
"452 336 OFFCURVE",
"453 340 CURVE",
"454 343 OFFCURVE",
"455 347 OFFCURVE",
"454 352 CURVE SMOOTH",
"450 370 OFFCURVE",
"443 387 OFFCURVE",
"433 403 CURVE SMOOTH",
"423 418 OFFCURVE",
"411 432 OFFCURVE",
"396 444 CURVE",
"381 455 OFFCURVE",
"365 464 OFFCURVE",
"347 471 CURVE",
"328 477 OFFCURVE",
"309 480 OFFCURVE",
"288 480 CURVE SMOOTH",
"265 480 OFFCURVE",
"243 476 OFFCURVE",
"222 468 CURVE",
"201 459 OFFCURVE",
"184 448 OFFCURVE",
"169 433 CURVE SMOOTH",
"154 418 OFFCURVE",
"142 401 OFFCURVE",
"133 382 CURVE SMOOTH",
"124 363 OFFCURVE",
"119 342 OFFCURVE",
"119 320 CURVE SMOOTH",
"119 288 LINE",
"114 288 OFFCURVE",
"110 287 OFFCURVE",
"106 286 CURVE",
"102 284 OFFCURVE",
"99 282 OFFCURVE",
"96 279 CURVE SMOOTH",
"93 276 OFFCURVE",
"90 272 OFFCURVE",
"88 269 CURVE",
"86 265 OFFCURVE",
"85 261 OFFCURVE",
"85 256 CURVE SMOOTH",
"85 0 LINE SMOOTH",
"85 -5 OFFCURVE",
"86 -9 OFFCURVE",
"88 -12 CURVE",
"90 -16 OFFCURVE",
"93 -19 OFFCURVE",
"96 -22 CURVE SMOOTH",
"99 -25 OFFCURVE",
"102 -28 OFFCURVE",
"106 -29 CURVE",
"110 -31 OFFCURVE",
"114 -32 OFFCURVE",
"119 -32 CURVE SMOOTH",
"457 -32 LINE SMOOTH",
"462 -32 OFFCURVE",
"466 -31 OFFCURVE",
"470 -29 CURVE",
"474 -28 OFFCURVE",
"478 -25 OFFCURVE",
"481 -22 CURVE SMOOTH",
"484 -19 OFFCURVE",
"486 -16 OFFCURVE",
"488 -12 CURVE",
"490 -9 OFFCURVE",
"491 -5 OFFCURVE",
"491 0 CURVE SMOOTH",
"491 256 LINE SMOOTH",
"491 261 OFFCURVE",
"490 265 OFFCURVE",
"488 269 CURVE",
"486 272 OFFCURVE",
"484 276 OFFCURVE",
"481 279 CURVE SMOOTH",
"478 282 OFFCURVE",
"474 284 OFFCURVE",
"470 286 CURVE",
"466 287 OFFCURVE",
"462 288 OFFCURVE",
"457 288 CURVE SMOOTH",
"356 288 LINE"
);
},
{
closed = 1;
nodes = (
"153 32 LINE",
"153 224 LINE",
"423 224 LINE",
"423 32 LINE"
);
}
);
width = 576;
}
);
unicode = E630;
},
{
glyphname = uniE631;
layers = (
{
layerId = "19B4AD07-3ADD-4C6B-9307-3D60BE925762";
name = Regular;
paths = (
{
closed = 1;
nodes = (
"542 53 OFFCURVE",
"541 58 OFFCURVE",
"540 63 CURVE",
"538 67 OFFCURVE",
"536 71 OFFCURVE",
"533 74 CURVE SMOOTH",
"530 77 OFFCURVE",
"527 80 OFFCURVE",
"524 83 CURVE",
"520 86 OFFCURVE",
"515 88 OFFCURVE",
"510 91 CURVE",
"506 93 OFFCURVE",
"501 95 OFFCURVE",
"495 98 CURVE",
"488 101 OFFCURVE",
"481 104 OFFCURVE",
"472 107 CURVE SMOOTH",
"463 110 OFFCURVE",
"454 114 OFFCURVE",
"444 118 CURVE SMOOTH",
"433 122 OFFCURVE",
"423 126 OFFCURVE",
"413 130 CURVE",
"410 131 OFFCURVE",
"408 132 OFFCURVE",
"406 133 CURVE",
"403 134 OFFCURVE",
"401 134 OFFCURVE",
"400 135 CURVE",
"398 136 OFFCURVE",
"396 136 OFFCURVE",
"395 137 CURVE",
"393 138 OFFCURVE",
"392 138 OFFCURVE",
"391 139 CURVE",
"388 140 OFFCURVE",
"386 141 OFFCURVE",
"383 143 CURVE",
"380 144 OFFCURVE",
"378 146 OFFCURVE",
"376 148 CURVE",
"373 149 OFFCURVE",
"371 151 OFFCURVE",
"370 153 CURVE",
"368 154 OFFCURVE",
"366 156 OFFCURVE",
"365 157 CURVE SMOOTH",
"361 161 LINE",
"360 161 OFFCURVE",
"360 161 OFFCURVE",
"360 162 CURVE",
"360 162 OFFCURVE",
"360 162 OFFCURVE",
"360 163 CURVE",
"359 163 OFFCURVE",
"359 163 OFFCURVE",
"359 164 CURVE",
"358 164 OFFCURVE",
"358 164 OFFCURVE",
"358 164 CURVE",
"358 165 OFFCURVE",
"358 167 OFFCURVE",
"358 168 CURVE",
"357 169 OFFCURVE",
"357 171 OFFCURVE",
"356 172 CURVE SMOOTH",
"355 173 OFFCURVE",
"355 173 OFFCURVE",
"354 174 CURVE SMOOTH",
"353 175 OFFCURVE",
"353 175 OFFCURVE",
"352 176 CURVE",
"352 176 OFFCURVE",
"352 176 OFFCURVE",
"352 177 CURVE",
"351 177 OFFCURVE",
"351 177 OFFCURVE",
"351 177 CURVE SMOOTH",
"351 177 OFFCURVE",
"351 177 OFFCURVE",
"351 177 CURVE SMOOTH",
"350 177 OFFCURVE",
"350 177 OFFCURVE",
"350 178 CURVE",
"351 179 OFFCURVE",
"352 180 OFFCURVE",
"353 182 CURVE",
"354 183 OFFCURVE",
"355 185 OFFCURVE",
"356 187 CURVE",
"357 188 OFFCURVE",
"357 190 OFFCURVE",
"358 193 CURVE",
"359 195 OFFCURVE",
"359 197 OFFCURVE",
"360 200 CURVE",
"360 202 OFFCURVE",
"360 204 OFFCURVE",
"361 206 CURVE",
"361 208 OFFCURVE",
"361 210 OFFCURVE",
"362 212 CURVE",
"362 214 OFFCURVE",
"362 216 OFFCURVE",
"362 218 CURVE SMOOTH",
"362 219 OFFCURVE",
"362 221 OFFCURVE",
"363 222 CURVE SMOOTH",
"364 223 OFFCURVE",
"366 224 OFFCURVE",
"368 225 CURVE",
"369 226 OFFCURVE",
"371 228 OFFCURVE",
"373 230 CURVE SMOOTH",
"374 231 OFFCURVE",
"376 233 OFFCURVE",
"377 235 CURVE SMOOTH",
"378 237 OFFCURVE",
"378 240 OFFCURVE",
"379 243 CURVE",
"380 247 OFFCURVE",
"382 251 OFFCURVE",
"383 256 CURVE SMOOTH",
"384 261 OFFCURVE",
"384 265 OFFCURVE",
"385 270 CURVE SMOOTH",
"386 275 OFFCURVE",
"386 279 OFFCURVE",
"387 283 CURVE",
"387 287 OFFCURVE",
"387 290 OFFCURVE",
"388 291 CURVE",
"388 293 LINE SMOOTH",
"388 294 OFFCURVE",
"388 295 OFFCURVE",
"388 297 CURVE SMOOTH",
"388 298 OFFCURVE",
"388 300 OFFCURVE",
"388 301 CURVE SMOOTH",
"388 302 OFFCURVE",
"388 304 OFFCURVE",
"387 306 CURVE",
"386 307 OFFCURVE",
"386 309 OFFCURVE",
"385 311 CURVE",
"385 311 OFFCURVE",
"385 311 OFFCURVE",
"385 312 CURVE",
"385 312 OFFCURVE",
"385 312 OFFCURVE",
"385 313 CURVE SMOOTH",
"385 314 OFFCURVE",
"385 314 OFFCURVE",
"385 315 CURVE",
"385 315 OFFCURVE",
"385 315 OFFCURVE",
"385 315 CURVE",
"386 318 OFFCURVE",
"386 322 OFFCURVE",
"387 326 CURVE",
"387 330 OFFCURVE",
"387 334 OFFCURVE",
"388 338 CURVE",
"388 342 OFFCURVE",
"388 346 OFFCURVE",
"388 351 CURVE SMOOTH",
"388 355 OFFCURVE",
"388 359 OFFCURVE",
"388 363 CURVE SMOOTH",
"388 370 LINE SMOOTH",
"388 374 OFFCURVE",
"388 378 OFFCURVE",
"388 381 CURVE SMOOTH",
"388 384 OFFCURVE",
"388 386 OFFCURVE",
"388 389 CURVE",
"387 391 OFFCURVE",
"387 393 OFFCURVE",
"386 395 CURVE SMOOTH",
"385 397 OFFCURVE",
"385 399 OFFCURVE",
"384 401 CURVE SMOOTH",
"383 403 OFFCURVE",
"382 406 OFFCURVE",
"380 410 CURVE SMOOTH",
"378 414 OFFCURVE",
"376 418 OFFCURVE",
"373 423 CURVE",
"370 427 OFFCURVE",
"368 431 OFFCURVE",
"366 435 CURVE",
"363 439 OFFCURVE",
"361 442 OFFCURVE",
"359 443 CURVE",
"358 444 OFFCURVE",
"357 446 OFFCURVE",
"356 447 CURVE SMOOTH",
"355 448 OFFCURVE",
"353 450 OFFCURVE",
"352 451 CURVE",
"350 452 OFFCURVE",
"348 453 OFFCURVE",
"346 454 CURVE SMOOTH",
"344 455 OFFCURVE",
"341 457 OFFCURVE",
"338 459 CURVE",
"335 460 OFFCURVE",
"332 462 OFFCURVE",
"329 463 CURVE SMOOTH",
"326 464 OFFCURVE",
"322 466 OFFCURVE",
"318 467 CURVE SMOOTH",
"314 468 OFFCURVE",
"310 470 OFFCURVE",
"306 471 CURVE SMOOTH",
"302 472 OFFCURVE",
"298 473 OFFCURVE",
"294 474 CURVE",
"293 474 OFFCURVE",
"293 474 OFFCURVE",
"292 475 CURVE",
"291 475 OFFCURVE",
"291 475 OFFCURVE",
"291 475 CURVE SMOOTH",
"290 475 OFFCURVE",
"290 475 OFFCURVE",
"290 475 CURVE SMOOTH",
"289 475 OFFCURVE",
"289 475 OFFCURVE",
"288 475 CURVE",
"285 476 LINE",
"284 477 OFFCURVE",
"282 477 OFFCURVE",
"281 478 CURVE",
"280 478 OFFCURVE",
"278 478 OFFCURVE",
"277 479 CURVE",
"275 479 OFFCURVE",
"273 479 OFFCURVE",
"271 480 CURVE",
"269 480 OFFCURVE",
"267 480 OFFCURVE",
"265 480 CURVE SMOOTH",
"262 480 LINE SMOOTH",
"259 480 OFFCURVE",
"256 480 OFFCURVE",
"253 479 CURVE",
"249 478 OFFCURVE",
"245 478 OFFCURVE",
"241 477 CURVE SMOOTH",
"237 476 OFFCURVE",
"233 474 OFFCURVE",
"229 473 CURVE",
"225 471 OFFCURVE",
"221 469 OFFCURVE",
"217 467 CURVE",
"216 466 OFFCURVE",
"214 466 OFFCURVE",
"212 465 CURVE SMOOTH",
"210 464 OFFCURVE",
"208 462 OFFCURVE",
"207 461 CURVE",
"205 460 OFFCURVE",
"203 458 OFFCURVE",
"202 457 CURVE SMOOTH",
"201 456 OFFCURVE",
"199 454 OFFCURVE",
"198 452 CURVE",
"192 452 LINE SMOOTH",
"189 452 OFFCURVE",
"186 451 OFFCURVE",
"183 450 CURVE",
"180 448 OFFCURVE",
"178 446 OFFCURVE",
"176 444 CURVE",
"174 441 OFFCURVE",
"172 438 OFFCURVE",
"171 435 CURVE SMOOTH",
"170 432 OFFCURVE",
"168 428 OFFCURVE",
"167 425 CURVE",
"166 424 OFFCURVE",
"166 423 OFFCURVE",
"166 422 CURVE",
"165 421 OFFCURVE",
"165 420 OFFCURVE",
"165 419 CURVE",
"164 418 OFFCURVE",
"164 418 OFFCURVE",
"164 417 CURVE",
"163 416 OFFCURVE",
"163 414 OFFCURVE",
"163 413 CURVE",
"162 411 OFFCURVE",
"161 409 OFFCURVE",
"160 406 CURVE SMOOTH",
"159 403 OFFCURVE",
"158 401 OFFCURVE",
"157 398 CURVE SMOOTH",
"156 395 OFFCURVE",
"155 393 OFFCURVE",
"155 391 CURVE",
"154 388 OFFCURVE",
"154 386 OFFCURVE",
"154 383 CURVE",
"153 381 OFFCURVE",
"153 379 OFFCURVE",
"154 378 CURVE",
"154 376 OFFCURVE",
"154 374 OFFCURVE",
"155 372 CURVE",
"155 369 OFFCURVE",
"155 367 OFFCURVE",
"156 365 CURVE",
"156 363 OFFCURVE",
"156 361 OFFCURVE",
"156 358 CURVE",
"157 357 OFFCURVE",
"157 355 OFFCURVE",
"158 353 CURVE",
"158 351 OFFCURVE",
"158 349 OFFCURVE",
"159 348 CURVE",
"159 346 OFFCURVE",
"159 344 OFFCURVE",
"159 343 CURVE SMOOTH",
"159 342 OFFCURVE",
"159 340 OFFCURVE",
"159 339 CURVE SMOOTH",
"159 336 OFFCURVE",
"159 334 OFFCURVE",
"160 332 CURVE",
"160 329 OFFCURVE",
"160 327 OFFCURVE",
"161 325 CURVE",
"161 323 OFFCURVE",
"161 321 OFFCURVE",
"162 319 CURVE",
"162 317 OFFCURVE",
"162 315 OFFCURVE",
"162 314 CURVE",
"161 313 OFFCURVE",
"161 312 OFFCURVE",
"160 311 CURVE SMOOTH",
"159 310 OFFCURVE",
"159 308 OFFCURVE",
"159 307 CURVE",
"158 306 OFFCURVE",
"158 304 OFFCURVE",
"158 303 CURVE",
"157 301 OFFCURVE",
"157 299 OFFCURVE",
"158 296 CURVE",
"158 294 OFFCURVE",
"158 290 OFFCURVE",
"159 285 CURVE SMOOTH",
"160 279 OFFCURVE",
"161 273 OFFCURVE",
"162 267 CURVE SMOOTH",
"163 261 OFFCURVE",
"164 256 OFFCURVE",
"165 251 CURVE SMOOTH",
"166 246 OFFCURVE",
"166 242 OFFCURVE",
"167 240 CURVE SMOOTH",
"168 238 OFFCURVE",
"170 236 OFFCURVE",
"171 234 CURVE SMOOTH",
"172 232 OFFCURVE",
"173 230 OFFCURVE",
"174 229 CURVE SMOOTH",
"175 228 OFFCURVE",
"177 226 OFFCURVE",
"179 225 CURVE",
"180 224 OFFCURVE",
"182 223 OFFCURVE",
"184 222 CURVE",
"184 221 OFFCURVE",
"184 219 OFFCURVE",
"185 218 CURVE",
"185 216 OFFCURVE",
"185 214 OFFCURVE",
"186 212 CURVE",
"186 210 OFFCURVE",
"186 208 OFFCURVE",
"187 206 CURVE",
"187 204 OFFCURVE",
"187 202 OFFCURVE",
"187 200 CURVE SMOOTH",
"187 198 OFFCURVE",
"187 196 OFFCURVE",
"188 195 CURVE",
"189 193 OFFCURVE",
"189 191 OFFCURVE",
"190 189 CURVE SMOOTH",
"191 187 OFFCURVE",
"192 185 OFFCURVE",
"193 184 CURVE",
"194 182 OFFCURVE",
"195 180 OFFCURVE",
"196 179 CURVE",
"195 178 OFFCURVE",
"195 178 OFFCURVE",
"194 177 CURVE SMOOTH",
"193 176 OFFCURVE",
"192 176 OFFCURVE",
"191 175 CURVE SMOOTH",
"190 174 OFFCURVE",
"189 172 OFFCURVE",
"188 171 CURVE SMOOTH",
"187 170 OFFCURVE",
"186 168 OFFCURVE",
"185 166 CURVE",
"184 166 OFFCURVE",
"184 166 OFFCURVE",
"184 165 CURVE SMOOTH",
"184 164 OFFCURVE",
"184 164 OFFCURVE",
"184 163 CURVE",
"183 162 OFFCURVE",
"183 162 OFFCURVE",
"183 161 CURVE",
"182 160 OFFCURVE",
"182 160 OFFCURVE",
"182 159 CURVE",
"181 158 OFFCURVE",
"181 157 OFFCURVE",
"181 156 CURVE",
"180 155 OFFCURVE",
"180 154 OFFCURVE",
"179 153 CURVE SMOOTH",
"178 152 OFFCURVE",
"178 151 OFFCURVE",
"178 150 CURVE",
"177 149 OFFCURVE",
"177 148 OFFCURVE",
"176 147 CURVE SMOOTH",
"175 146 OFFCURVE",
"173 145 OFFCURVE",
"170 144 CURVE",
"166 142 OFFCURVE",
"162 140 OFFCURVE",
"157 139 CURVE",
"152 137 OFFCURVE",
"148 135 OFFCURVE",
"143 134 CURVE",
"138 132 OFFCURVE",
"133 130 OFFCURVE",
"128 129 CURVE",
"121 126 OFFCURVE",
"113 124 OFFCURVE",
"106 121 CURVE SMOOTH",
"99 118 OFFCURVE",
"92 115 OFFCURVE",
"85 112 CURVE SMOOTH",
"78 109 OFFCURVE",
"71 107 OFFCURVE",
"65 104 CURVE",
"58 101 OFFCURVE",
"53 98 OFFCURVE",
"48 96 CURVE SMOOTH",
"38 92 LINE SMOOTH",
"33 90 OFFCURVE",
"29 88 OFFCURVE",
"26 85 CURVE SMOOTH",
"23 82 OFFCURVE",
"20 80 OFFCURVE",
"18 78 CURVE SMOOTH",
"15 75 OFFCURVE",
"13 73 OFFCURVE",
"12 70 CURVE",
"10 67 OFFCURVE",
"9 65 OFFCURVE",
"8 64 CURVE",
"7 62 LINE",
"6 61 OFFCURVE",
"6 61 OFFCURVE",
"6 60 CURVE",
"5 59 OFFCURVE",
"5 58 OFFCURVE",
"4 57 CURVE SMOOTH",
"3 56 OFFCURVE",
"3 54 OFFCURVE",
"3 53 CURVE SMOOTH",
"3 52 OFFCURVE",
"3 50 OFFCURVE",
"3 48 CURVE SMOOTH",
"3 47 OFFCURVE",
"3 45 OFFCURVE",
"3 40 CURVE",
"2 35 OFFCURVE",
"2 30 OFFCURVE",
"2 23 CURVE",
"1 16 OFFCURVE",
"1 9 OFFCURVE",
"1 2 CURVE",
"0 -5 OFFCURVE",
"0 -12 OFFCURVE",
"0 -18 CURVE SMOOTH",
"0 -19 OFFCURVE",
"0 -20 OFFCURVE",
"0 -21 CURVE SMOOTH",
"0 -22 OFFCURVE",
"0 -22 OFFCURVE",
"1 -23 CURVE",
"1 -24 OFFCURVE",
"1 -25 OFFCURVE",
"2 -26 CURVE SMOOTH",
"3 -27 OFFCURVE",
"3 -27 OFFCURVE",
"4 -28 CURVE SMOOTH",
"5 -29 OFFCURVE",
"5 -29 OFFCURVE",
"6 -29 CURVE",
"7 -30 OFFCURVE",
"7 -30 OFFCURVE",
"8 -30 CURVE",
"9 -31 OFFCURVE",
"10 -31 OFFCURVE",
"11 -31 CURVE",
"12 -32 OFFCURVE",
"12 -32 OFFCURVE",
"13 -32 CURVE SMOOTH",
"531 -32 LINE SMOOTH",
"532 -32 OFFCURVE",
"534 -32 OFFCURVE",
"536 -31 CURVE",
"537 -30 OFFCURVE",
"539 -29 OFFCURVE",
"540 -28 CURVE SMOOTH",
"541 -27 OFFCURVE",
"542 -25 OFFCURVE",
"543 -24 CURVE SMOOTH",
"544 -23 OFFCURVE",
"544 -21 OFFCURVE",
"544 -19 CURVE SMOOTH",
"544 -18 OFFCURVE",
"544 -15 OFFCURVE",
"544 -10 CURVE SMOOTH",
"544 -5 OFFCURVE",
"544 1 OFFCURVE",
"544 8 CURVE SMOOTH",
"544 15 OFFCURVE",
"544 22 OFFCURVE",
"544 29 CURVE",
"543 36 OFFCURVE",
"543 42 OFFCURVE",
"543 47 CURVE"
);
}
);
width = 544;
}
);
unicode = E631;
},
